<svg xmlns="http://www.w3.org/2000/svg" xmlns:xlink="http://www.w3.org/1999/xlink" width="1680" height="1120" viewBox="0 0 1680 1120"><defs><clipPath id="a"><rect width="9.889" height="9.889" fill="#fff" stroke="#f86145" stroke-width="1"/></clipPath><clipPath id="c"><rect width="9.889" height="9.889" fill="#fff" stroke="#f86145" stroke-width="1.5"/></clipPath><filter id="f" x="1025" y="236" width="110" height="49" filterUnits="userSpaceOnUse"><feOffset input="SourceAlpha"/><feGaussianBlur stdDeviation="3" result="g"/><feFlood flood-color="#9b3d2c" flood-opacity="0.251"/><feComposite operator="in" in2="g"/><feComposite in="SourceGraphic"/></filter><filter id="i" x="173" y="238" width="119.493" height="45" filterUnits="userSpaceOnUse"><feOffset input="SourceAlpha"/><feGaussianBlur stdDeviation="3" result="j"/><feFlood flood-color="#9b3d2c" flood-opacity="0.4"/><feComposite operator="in" in2="j"/><feComposite in="SourceGraphic"/></filter><filter id="l" x="174" y="88" width="112" height="45" filterUnits="userSpaceOnUse"><feOffset input="SourceAlpha"/><feGaussianBlur stdDeviation="3" result="m"/><feFlood flood-color="#9b3d2c" flood-opacity="0.4"/><feComposite operator="in" in2="m"/><feComposite in="SourceGraphic"/></filter><filter id="n" x="1004" y="88" width="112" height="45" filterUnits="userSpaceOnUse"><feOffset input="SourceAlpha"/><feGaussianBlur stdDeviation="3" result="o"/><feFlood flood-color="#9b3d2c" flood-opacity="0.251"/><feComposite operator="in" in2="o"/><feComposite in="SourceGraphic"/></filter><filter id="p" x="945" y="386" width="42" height="42" filterUnits="userSpaceOnUse"><feOffset input="SourceAlpha"/><feGaussianBlur stdDeviation="3" result="q"/><feFlood flood-color="#9b3d2c" flood-opacity="0.251"/><feComposite operator="in" in2="q"/><feComposite in="SourceGraphic"/></filter><filter id="r" x="233" y="395" width="24" height="24" filterUnits="userSpaceOnUse"><feOffset dx="2" dy="2" input="SourceAlpha"/><feGaussianBlur stdDeviation="4" result="s"/><feFlood flood-color="#c40000" result="t"/><feComposite operator="out" in="SourceGraphic" in2="s"/><feComposite operator="in" in="t"/><feComposite operator="in" in2="SourceGraphic"/></filter><clipPath id="u"><rect width="9.889" height="9.889" fill="#989ba6" stroke="#f86145" stroke-width="1"/></clipPath><filter id="x" x="290" y="238" width="119.493" height="45" filterUnits="userSpaceOnUse"><feOffset input="SourceAlpha"/><feGaussianBlur stdDeviation="3" result="y"/><feFlood flood-color="#9b3d2c" flood-opacity="0.4"/><feComposite operator="in" in2="y"/><feComposite in="SourceGraphic"/></filter><clipPath id="ab"><rect width="9.889" height="9.889" fill="#7e8290" stroke="#f86145" stroke-width="1"/></clipPath><filter id="ae" x="116.5" y="390.5" width="33" height="33" filterUnits="userSpaceOnUse"><feOffset input="SourceAlpha"/><feGaussianBlur stdDeviation="1.5" result="af"/><feFlood flood-color="#c72204" flood-opacity="0.576"/><feComposite operator="in" in2="af"/><feComposite in="SourceGraphic"/></filter><clipPath id="ah"><rect width="1680" height="1120"/></clipPath></defs><g id="ag" clip-path="url(#ah)"><rect width="1680" height="1120" fill="#fff"/><text transform="translate(63 42)" fill="#65697a" font-size="18" font-family="Inter-Regular, Inter"><tspan x="0" y="0">Primary</tspan></text><text transform="translate(64 506)" fill="#65697a" font-size="18" font-family="Inter-Regular, Inter"><tspan x="0" y="0">Teritary </tspan></text><text transform="translate(64 361)" fill="#65697a" font-size="18" font-family="Inter-Regular, Inter"><tspan x="0" y="0">Primary - Symbol Only</tspan></text><text transform="translate(64 211)" fill="#65697a" font-size="18" font-family="Inter-Regular, Inter"><tspan x="0" y="0">Primary - with icon</tspan></text><text transform="translate(898 42)" fill="#65697a" font-size="18" font-family="Inter-Regular, Inter"><tspan x="0" y="0">Secondary</tspan></text><text transform="translate(480 506)" fill="#65697a" font-size="18" font-family="Inter-Regular, Inter"><tspan x="0" y="0">Tertiary - with icon</tspan></text><text transform="translate(898 361)" fill="#65697a" font-size="18" font-family="Inter-Regular, Inter"><tspan x="0" y="0">Secondary - Symbol Only</tspan></text><text transform="translate(898 211)" fill="#65697a" font-size="18" font-family="Inter-Regular, Inter"><tspan x="0" y="0">Secondary - with icon</tspan></text><g transform="translate(64 247)"><rect width="101.493" height="27" rx="5" fill="#f86145"/><g transform="translate(-139.507 -373)"><text transform="translate(172 392)" fill="#fff" font-size="14" font-family="Inter-Bold, Inter" font-weight="700" letter-spacing="-0.004em"><tspan x="0" y="0">Primary</tspan></text><g transform="translate(150.507 386.5) rotate(-45)" clip-path="url(#a)"><path d="M5.994,4.945l3.17-3.17.654-.654a.247.247,0,0,0,0-.35l-.7-.7a.247.247,0,0,0-.35,0L4.945,3.9,1.122.072a.247.247,0,0,0-.35,0l-.7.7a.247.247,0,0,0,0,.35L3.9,4.945.072,8.768a.247.247,0,0,0,0,.35l.7.7a.247.247,0,0,0,.35,0L4.945,5.994l3.17,3.17.654.654a.247.247,0,0,0,.35,0l.7-.7a.247.247,0,0,0,0-.35Z" transform="translate(0 0.019)" fill="#fff"/></g></g></g><g transform="translate(64 553)"><text transform="translate(0 14)" fill="#989ba6" font-size="14" font-family="Inter-SemiBold, Inter" font-weight="600" letter-spacing="-0.004em"><tspan x="0" y="0">Tertiary</tspan></text></g><g transform="translate(257 553)"><text transform="translate(0 14)" fill="#31374d" font-size="14" font-family="Inter-SemiBold, Inter" font-weight="600" letter-spacing="-0.004em"><tspan x="0" y="0">Pressed</tspan></text></g><g transform="translate(167 553)"><text transform="translate(0 14)" fill="#65697a" font-size="14" font-family="Inter-SemiBold, Inter" font-weight="600" letter-spacing="-0.004em"><tspan x="0" y="0">Hover</tspan></text></g><g transform="translate(1508 245)"><g fill="#fff"><path d="M 105 30.375 L 5 30.375 C 2.587614297866821 30.375 0.625 28.41238594055176 0.625 26 L 0.625 5 C 0.625 2.587614297866821 2.587614297866821 0.625 5 0.625 L 105 0.625 C 107.4123840332031 0.625 109.375 2.587614297866821 109.375 5 L 109.375 26 C 109.375 28.41238594055176 107.4123840332031 30.375 105 30.375 Z" stroke="none"/><path d="M 5 1.25 C 2.932243347167969 1.25 1.25 2.932245254516602 1.25 5 L 1.25 26 C 1.25 28.06775283813477 2.932243347167969 29.75 5 29.75 L 105 29.75 C 107.067756652832 29.75 108.75 28.06775283813477 108.75 26 L 108.75 5 C 108.75 2.932245254516602 107.067756652832 1.25 105 1.25 L 5 1.25 M 5 0 L 105 0 C 107.7614135742188 0 110 2.238569259643555 110 5 L 110 26 C 110 28.76141548156738 107.7614135742188 31 105 31 L 5 31 C 2.238571166992188 31 0 28.76141548156738 0 26 L 0 5 C 0 2.238569259643555 2.238571166992188 0 5 0 Z" stroke="none" fill="#cccdd3"/></g><g transform="translate(-139.508 -371)"><text transform="translate(172 392)" fill="#989ba6" font-size="14" font-family="Inter-Bold, Inter" font-weight="700" letter-spacing="-0.004em"><tspan x="0" y="0">Disabled</tspan></text><g transform="translate(150.507 386.5) rotate(-45)" clip-path="url(#a)"><path d="M5.994,4.945l3.17-3.17.654-.654a.247.247,0,0,0,0-.35l-.7-.7a.247.247,0,0,0-.35,0L4.945,3.9,1.122.072a.247.247,0,0,0-.35,0l-.7.7a.247.247,0,0,0,0,.35L3.9,4.945.072,8.768a.247.247,0,0,0,0,.35l.7.7a.247.247,0,0,0,.35,0L4.945,5.994l3.17,3.17.654.654a.247.247,0,0,0,.35,0l.7-.7a.247.247,0,0,0,0-.35Z" transform="translate(0 0.019)" fill="#989ba6"/></g></g></g><g transform="translate(1385.303 245)"><g fill="#fff"><path d="M 101.8598861694336 30.125 L 4.42868709564209 30.125 C 2.469172716140747 30.125 0.8750013709068298 28.27452850341797 0.8750013709068298 26 L 0.8750013709068298 5 C 0.8750013709068298 2.725471496582031 2.469172716140747 0.875 4.42868709564209 0.875 L 101.8598861694336 0.875 C 103.8194046020508 0.875 105.41357421875 2.725471496582031 105.41357421875 5 L 105.41357421875 26 C 105.41357421875 28.27452850341797 103.8194046020508 30.125 101.8598861694336 30.125 Z" stroke="none"/><path d="M 4.428688049316406 1.75 C 2.951652526855469 1.75 1.749992370605469 3.207939147949219 1.749992370605469 5 L 1.749992370605469 26 C 1.749992370605469 27.79206085205078 2.951652526855469 29.25 4.428688049316406 29.25 L 101.8598709106445 29.25 C 103.3369140625 29.25 104.5385818481445 27.79206085205078 104.5385818481445 26 L 104.5385818481445 5 C 104.5385818481445 3.207939147949219 103.3369140625 1.75 101.8598709106445 1.75 L 4.428688049316406 1.75 M 4.428688049316406 0 L 101.8598709106445 0 C 104.305778503418 0 106.2885818481445 2.238569259643555 106.2885818481445 5 L 106.2885818481445 26 C 106.2885818481445 28.76141548156738 104.305778503418 31 101.8598709106445 31 L 4.428688049316406 31 C 1.982795715332031 31 -7.62939453125e-06 28.76141548156738 -7.62939453125e-06 26 L -7.62939453125e-06 5 C -7.62939453125e-06 2.238569259643555 1.982795715332031 0 4.428688049316406 0 Z" stroke="none" fill="#141a34"/></g><g transform="translate(-139.508 -371)"><text transform="translate(172 392)" fill="#141a34" font-size="14" font-family="Inter-Bold, Inter" font-weight="700" letter-spacing="-0.004em"><tspan x="0" y="0">Selected</tspan></text><g transform="translate(150.507 386.5) rotate(-45)" clip-path="url(#c)"><path d="M5.994,4.945l3.17-3.17.654-.654a.247.247,0,0,0,0-.35l-.7-.7a.247.247,0,0,0-.35,0L4.945,3.9,1.122.072a.247.247,0,0,0-.35,0l-.7.7a.247.247,0,0,0,0,.35L3.9,4.945.072,8.768a.247.247,0,0,0,0,.35l.7.7a.247.247,0,0,0,.35,0L4.945,5.994l3.17,3.17.654.654a.247.247,0,0,0,.35,0l.7-.7a.247.247,0,0,0,0-.35Z" transform="translate(0 0.019)" fill="#141a34"/></g></g></g><g transform="translate(1262.507 245)"><g fill="#fff"><path d="M 101.8598861694336 30.125 L 4.42868709564209 30.125 C 2.469172716140747 30.125 0.8750013709068298 28.27452850341797 0.8750013709068298 26 L 0.8750013709068298 5 C 0.8750013709068298 2.725471496582031 2.469172716140747 0.875 4.42868709564209 0.875 L 101.8598861694336 0.875 C 103.8194046020508 0.875 105.41357421875 2.725471496582031 105.41357421875 5 L 105.41357421875 26 C 105.41357421875 28.27452850341797 103.8194046020508 30.125 101.8598861694336 30.125 Z" stroke="none"/><path d="M 4.428688049316406 1.75 C 2.951652526855469 1.75 1.749992370605469 3.207939147949219 1.749992370605469 5 L 1.749992370605469 26 C 1.749992370605469 27.79206085205078 2.951652526855469 29.25 4.428688049316406 29.25 L 101.8598709106445 29.25 C 103.3369140625 29.25 104.5385818481445 27.79206085205078 104.5385818481445 26 L 104.5385818481445 5 C 104.5385818481445 3.207939147949219 103.3369140625 1.75 101.8598709106445 1.75 L 4.428688049316406 1.75 M 4.428688049316406 0 L 101.8598709106445 0 C 104.305778503418 0 106.2885818481445 2.238569259643555 106.2885818481445 5 L 106.2885818481445 26 C 106.2885818481445 28.76141548156738 104.305778503418 31 101.8598709106445 31 L 4.428688049316406 31 C 1.982795715332031 31 -7.62939453125e-06 28.76141548156738 -7.62939453125e-06 26 L -7.62939453125e-06 5 C -7.62939453125e-06 2.238569259643555 1.982795715332031 0 4.428688049316406 0 Z" stroke="none" fill="#f86145"/></g><g transform="translate(-139.508 -371)"><text transform="translate(172 392)" fill="#f86145" font-size="14" font-family="Inter-Bold, Inter" font-weight="700" letter-spacing="-0.004em"><tspan x="0" y="0">Focused</tspan></text><g transform="translate(150.507 386.5) rotate(-45)" clip-path="url(#c)"><path d="M5.994,4.945l3.17-3.17.654-.654a.247.247,0,0,0,0-.35l-.7-.7a.247.247,0,0,0-.35,0L4.945,3.9,1.122.072a.247.247,0,0,0-.35,0l-.7.7a.247.247,0,0,0,0,.35L3.9,4.945.072,8.768a.247.247,0,0,0,0,.35l.7.7a.247.247,0,0,0,.35,0L4.945,5.994l3.17,3.17.654.654a.247.247,0,0,0,.35,0l.7-.7a.247.247,0,0,0,0-.35Z" transform="translate(0 0.019)" fill="#f86145"/></g></g></g><g transform="translate(1141 245)"><g fill="#fff" stroke="#db3618" stroke-width="1.5"><rect width="105" height="31" rx="5" stroke="none"/><rect x="0.75" y="0.75" width="103.5" height="29.5" rx="4.25" fill="none"/></g><g transform="translate(-139.508 -371)"><text transform="translate(172 392)" fill="#db3618" font-size="14" font-family="Inter-Bold, Inter" font-weight="700" letter-spacing="-0.004em"><tspan x="0" y="0">Pressed</tspan></text><g transform="translate(150.507 386.5) rotate(-45)" clip-path="url(#a)"><path d="M5.994,4.945l3.17-3.17.654-.654a.247.247,0,0,0,0-.35l-.7-.7a.247.247,0,0,0-.35,0L4.945,3.9,1.122.072a.247.247,0,0,0-.35,0l-.7.7a.247.247,0,0,0,0,.35L3.9,4.945.072,8.768a.247.247,0,0,0,0,.35l.7.7a.247.247,0,0,0,.35,0L4.945,5.994l3.17,3.17.654.654a.247.247,0,0,0,.35,0l.7-.7a.247.247,0,0,0,0-.35Z" transform="translate(0 0.019)" fill="#db3618"/></g></g></g><g transform="translate(1034 245)"><g transform="matrix(1, 0, 0, 1, -1034, -245)" filter="url(#f)"><g transform="translate(1034 245)" fill="#fff" stroke="#f86145" stroke-width="1.25"><rect width="92" height="31" rx="5" stroke="none"/><rect x="0.625" y="0.625" width="90.75" height="29.75" rx="4.375" fill="none"/></g></g><g transform="translate(-139.508 -371)"><text transform="translate(172 392)" fill="#f86145" font-size="14" font-family="Inter-Bold, Inter" font-weight="700" letter-spacing="-0.004em"><tspan x="0" y="0">Hover</tspan></text><g transform="translate(150.507 386.5) rotate(-45)" clip-path="url(#a)"><path d="M5.994,4.945l3.17-3.17.654-.654a.247.247,0,0,0,0-.35l-.7-.7a.247.247,0,0,0-.35,0L4.945,3.9,1.122.072a.247.247,0,0,0-.35,0l-.7.7a.247.247,0,0,0,0,.35L3.9,4.945.072,8.768a.247.247,0,0,0,0,.35l.7.7a.247.247,0,0,0,.35,0L4.945,5.994l3.17,3.17.654.654a.247.247,0,0,0,.35,0l.7-.7a.247.247,0,0,0,0-.35Z" transform="translate(0 0.019)" fill="#f86145"/></g></g></g><g transform="translate(182 247)"><g transform="matrix(1, 0, 0, 1, -182, -247)" filter="url(#i)"><rect width="101.493" height="27" rx="5" transform="translate(182 247)" fill="#f86145"/></g><g transform="translate(-139.507 -373)"><text transform="translate(172 392)" fill="#fff" font-size="14" font-family="Inter-Bold, Inter" font-weight="700" letter-spacing="-0.004em"><tspan x="0" y="0">Hover</tspan></text><g transform="translate(150.507 386.5) rotate(-45)" clip-path="url(#a)"><path d="M5.994,4.945l3.17-3.17.654-.654a.247.247,0,0,0,0-.35l-.7-.7a.247.247,0,0,0-.35,0L4.945,3.9,1.122.072a.247.247,0,0,0-.35,0l-.7.7a.247.247,0,0,0,0,.35L3.9,4.945.072,8.768a.247.247,0,0,0,0,.35l.7.7a.247.247,0,0,0,.35,0L4.945,5.994l3.17,3.17.654.654a.247.247,0,0,0,.35,0l.7-.7a.247.247,0,0,0,0-.35Z" transform="translate(0 0.019)" fill="#fff"/></g></g></g><g transform="translate(183 97)"><g transform="matrix(1, 0, 0, 1, -183, -97)" filter="url(#l)"><rect width="94" height="27" rx="5" transform="translate(183 97)" fill="#f86145"/></g><text transform="translate(47 19)" fill="#fff" font-size="14" font-family="Inter-Bold, Inter" font-weight="700" letter-spacing="-0.004em"><tspan x="-26.704" y="0" xml:space="preserve">  Hover  </tspan></text></g><g transform="translate(302 97)"><rect width="94" height="27" rx="5" fill="#db3618"/><text transform="translate(47 19)" fill="#fff" font-size="14" font-family="Inter-Bold, Inter" font-weight="700" letter-spacing="-0.004em"><tspan x="-27.746" y="0">Pressed</tspan></text></g><g transform="translate(421 97)"><g fill="#f86145" stroke="#db3618" stroke-width="1.5"><rect width="94" height="27" rx="5" stroke="none"/><rect x="0.75" y="0.75" width="92.5" height="25.5" rx="4.25" fill="none"/></g><text transform="translate(47 19)" fill="#fff" font-size="14" font-family="Inter-Bold, Inter" font-weight="700" letter-spacing="-0.004em"><tspan x="-28.988" y="0">Focused</tspan></text></g><g transform="translate(540 97)"><rect width="94" height="27" rx="5" fill="#141a34"/><text transform="translate(47 19)" fill="#fff" font-size="14" font-family="Inter-Bold, Inter" font-weight="700" letter-spacing="-0.004em"><tspan x="-30.102" y="0">Selected</tspan></text></g><g transform="translate(659 97)"><rect width="94" height="27" rx="5" fill="#e5e6e9"/><text transform="translate(47 19)" fill="#989ba6" font-size="14" font-family="Inter-Bold, Inter" font-weight="700" letter-spacing="-0.004em"><tspan x="-29.796" y="0">Disabled</tspan></text></g><g transform="translate(898 97)"><g fill="#fff" stroke="#f86145" stroke-miterlimit="10" stroke-width="1.25" opacity="0.9"><rect width="94" height="27" rx="5" stroke="none"/><rect x="0.625" y="0.625" width="92.75" height="25.75" rx="4.375" fill="none"/></g><text transform="translate(47 19)" fill="#f86145" font-size="14" font-family="Inter-Bold, Inter" font-weight="700" letter-spacing="-0.004em"><tspan x="-36.918" y="0">Secondary</tspan></text></g><g transform="translate(1484 97)"><g fill="#fff" opacity="0.9"><path d="M 89 26.375 L 5 26.375 C 2.587612390518188 26.375 0.625 24.7017993927002 0.625 22.64516258239746 L 0.625 4.354837417602539 C 0.625 2.298199892044067 2.587612390518188 0.625 5 0.625 L 89 0.625 C 91.41238403320312 0.625 93.375 2.298199892044067 93.375 4.354837417602539 L 93.375 22.64516258239746 C 93.375 24.7017993927002 91.41238403320312 26.375 89 26.375 Z" stroke="none"/><path d="M 5 1.25 C 2.932243347167969 1.25 1.25 2.642826080322266 1.25 4.354839324951172 L 1.25 22.64516067504883 C 1.25 24.35717391967773 2.932243347167969 25.75 5 25.75 L 89 25.75 C 91.06775665283203 25.75 92.75 24.35717391967773 92.75 22.64516067504883 L 92.75 4.354839324951172 C 92.75 2.642826080322266 91.06775665283203 1.25 89 1.25 L 5 1.25 M 5 0 L 89 0 C 91.76141357421875 0 94 1.949733734130859 94 4.354839324951172 L 94 22.64516067504883 C 94 25.05026626586914 91.76141357421875 27 89 27 L 5 27 C 2.238571166992188 27 0 25.05026626586914 0 22.64516067504883 L 0 4.354839324951172 C 0 1.949733734130859 2.238571166992188 0 5 0 Z" stroke="none" fill="#cccdd3"/></g><text transform="translate(47 19)" fill="#989ba6" font-size="14" font-family="Inter-Bold, Inter" font-weight="700" letter-spacing="-0.004em"><tspan x="-29.796" y="0">Disabled</tspan></text></g><g transform="translate(1372 97)"><g fill="#fff" stroke="#141a34" stroke-miterlimit="10" stroke-width="1.75" opacity="0.9"><rect width="94" height="27" rx="5" stroke="none"/><rect x="0.875" y="0.875" width="92.25" height="25.25" rx="4.125" fill="none"/></g><text transform="translate(47 19)" fill="#141a34" font-size="14" font-family="Inter-Bold, Inter" font-weight="700" letter-spacing="-0.004em"><tspan x="-30.102" y="0">Selected</tspan></text></g><g transform="translate(1253 97)"><g fill="#fff" stroke="#f86145" stroke-miterlimit="10" stroke-width="1.75" opacity="0.9"><rect width="94" height="27" rx="5" stroke="none"/><rect x="0.875" y="0.875" width="92.25" height="25.25" rx="4.125" fill="none"/></g><text transform="translate(47 19)" fill="#f86145" font-size="14" font-family="Inter-Bold, Inter" font-weight="700" letter-spacing="-0.004em"><tspan x="-35.381" y="0" xml:space="preserve">  Focused  </tspan></text></g><g transform="translate(1134 97)"><g fill="#fff" stroke="#db3618" stroke-miterlimit="10" stroke-width="1.5" opacity="0.9"><rect width="94" height="27" rx="5" stroke="none"/><rect x="0.75" y="0.75" width="92.5" height="25.5" rx="4.25" fill="none"/></g><text transform="translate(47 19)" fill="#db3618" font-size="14" font-family="Inter-Bold, Inter" font-weight="700" letter-spacing="-0.004em"><tspan x="-37.335" y="0" xml:space="preserve">   Pressed   </tspan></text></g><g transform="translate(1013 97)"><g transform="matrix(1, 0, 0, 1, -1013, -97)" filter="url(#n)"><g transform="translate(1013 97)" fill="#fff"><path d="M 88.53487396240234 26.375 L 5.465112686157227 26.375 C 2.796262502670288 26.375 0.625 24.7017993927002 0.625 22.64516258239746 L 0.625 4.354837417602539 C 0.625 2.298199892044067 2.796262502670288 0.625 5.465112686157227 0.625 L 88.53487396240234 0.625 C 91.20372772216797 0.625 93.375 2.298199892044067 93.375 4.354837417602539 L 93.375 22.64516258239746 C 93.375 24.7017993927002 91.20372772216797 26.375 88.53487396240234 26.375 Z" stroke="none"/><path d="M 5.465118408203125 1.25 C 4.287216186523438 1.25 3.191452026367188 1.606239318847656 2.379676818847656 2.253093719482422 C 1.651199340820312 2.833585739135742 1.25 3.579999923706055 1.25 4.354839324951172 L 1.25 22.64516067504883 C 1.25 23.42000007629395 1.651199340820312 24.16641235351562 2.379676818847656 24.74690628051758 C 3.191452026367188 25.39376068115234 4.287216186523438 25.75 5.465118408203125 25.75 L 88.53486633300781 25.75 C 89.71277618408203 25.75 90.80853271484375 25.39376068115234 91.62032318115234 24.74690628051758 C 92.34880065917969 24.16641235351562 92.75 23.42000007629395 92.75 22.64516067504883 L 92.75 4.354839324951172 C 92.75 3.579999923706055 92.34880065917969 2.833585739135742 91.62032318115234 2.253093719482422 C 90.80853271484375 1.606239318847656 89.71277618408203 1.25 88.53486633300781 1.25 L 5.465118408203125 1.25 M 5.465118408203125 0 L 88.53486633300781 0 C 91.55317687988281 0 94 1.949733734130859 94 4.354839324951172 L 94 22.64516067504883 C 94 25.05026626586914 91.55317687988281 27 88.53486633300781 27 L 5.465118408203125 27 C 2.446815490722656 27 0 25.05026626586914 0 22.64516067504883 L 0 4.354839324951172 C 0 1.949733734130859 2.446815490722656 0 5.465118408203125 0 Z" stroke="none" fill="#f86145"/></g></g><text transform="translate(47 19)" fill="#f86145" font-size="14" font-family="Inter-Bold, Inter" font-weight="700" letter-spacing="-0.004em"><tspan x="-33.097" y="0" xml:space="preserve">    Hover    </tspan></text></g><g transform="translate(954 395)"><g transform="matrix(1, 0, 0, 1, -954, -395)" filter="url(#p)"><g transform="translate(954 395)" fill="#fff" stroke="#f86145" stroke-width="1.25"><rect width="24" height="24" rx="12" stroke="none"/><rect x="0.625" y="0.625" width="22.75" height="22.75" rx="11.375" fill="none"/></g></g><g transform="translate(7.05 12) rotate(-45)"><line x1="7" y2="7" transform="translate(0 0)" fill="none" stroke="#f86145" stroke-linecap="round" stroke-width="1.25"/><line x2="7" y2="7" transform="translate(0 0)" fill="none" stroke="#f86145" stroke-linecap="round" stroke-width="1.25"/></g></g><g transform="translate(1010 395)"><g fill="#fff" stroke="#db3618" stroke-width="1.5"><rect width="24" height="24" rx="12" stroke="none"/><rect x="0.75" y="0.75" width="22.5" height="22.5" rx="11.25" fill="none"/></g><g transform="translate(7.05 12) rotate(-45)"><line x1="7" y2="7" transform="translate(0 0)" fill="none" stroke="#d90000" stroke-linecap="round" stroke-width="1.25"/><line x2="7" y2="7" transform="translate(0 0)" fill="none" stroke="#d90000" stroke-linecap="round" stroke-width="1.25"/></g></g><g transform="translate(1066 395)"><g fill="#fff" stroke="#f86145" stroke-width="1.75"><rect width="24" height="24" rx="12" stroke="none"/><rect x="0.875" y="0.875" width="22.25" height="22.25" rx="11.125" fill="none"/></g><g transform="translate(7.05 12) rotate(-45)"><line x1="7" y2="7" transform="translate(0 0)" fill="none" stroke="#f86145" stroke-linecap="round" stroke-width="1.75"/><line x2="7" y2="7" transform="translate(0 0)" fill="none" stroke="#f86145" stroke-linecap="round" stroke-width="1.75"/></g></g><g transform="translate(1122 395)"><g fill="#fff" stroke="#141a34" stroke-width="1.25"><rect width="24" height="24" rx="12" stroke="none"/><rect x="0.625" y="0.625" width="22.75" height="22.75" rx="11.375" fill="none"/></g><g transform="translate(7.05 12) rotate(-45)"><line x1="7" y2="7" transform="translate(0 0)" fill="none" stroke="#141a34" stroke-linecap="round" stroke-width="1.25"/><line x2="7" y2="7" transform="translate(0 0)" fill="none" stroke="#141a34" stroke-linecap="round" stroke-width="1.25"/></g></g><g transform="translate(1178 395)"><g fill="#fff" stroke="#cccdd3" stroke-width="1.25"><rect width="24" height="24" rx="12" stroke="none"/><rect x="0.625" y="0.625" width="22.75" height="22.75" rx="11.375" fill="none"/></g><g transform="translate(7.05 12) rotate(-45)"><line x1="7" y2="7" transform="translate(0 0)" fill="none" stroke="#cccdd3" stroke-linecap="round" stroke-width="1.25"/><line x2="7" y2="7" transform="translate(0 0)" fill="none" stroke="#cccdd3" stroke-linecap="round" stroke-width="1.25"/></g></g><g transform="translate(345 395)"><rect width="24" height="24" rx="12" fill="#e5e6e9"/><g transform="translate(7.05 12) rotate(-45)"><line x1="7" y2="7" transform="translate(0 0)" fill="none" stroke="#fff" stroke-linecap="round" stroke-width="1.5"/><line x2="7" y2="7" transform="translate(0 0)" fill="none" stroke="#fff" stroke-linecap="round" stroke-width="1.5"/></g></g><g transform="translate(177 395)"><rect width="24" height="24" rx="12" fill="#db3618"/><g transform="translate(7.05 12) rotate(-45)"><line x1="7" y2="7" transform="translate(0 0)" fill="none" stroke="#fff" stroke-linecap="round" stroke-width="1.5"/><line x2="7" y2="7" transform="translate(0 0)" fill="none" stroke="#fff" stroke-linecap="round" stroke-width="1.5"/></g></g><g transform="translate(233 395)"><g data-type="innerShadowGroup"><rect width="24" height="24" rx="12" fill="#f86145"/><g transform="matrix(1, 0, 0, 1, -233, -395)" filter="url(#r)"><rect width="24" height="24" rx="12" transform="translate(233 395)" fill="#fff"/></g></g><g transform="translate(7.05 12) rotate(-45)"><line x1="7" y2="7" transform="translate(0 0)" fill="none" stroke="#fff" stroke-linecap="round" stroke-width="1.5"/><line x2="7" y2="7" transform="translate(0 0)" fill="none" stroke="#fff" stroke-linecap="round" stroke-width="1.5"/></g></g><g transform="translate(289 395)"><rect width="24" height="24" rx="12" fill="#141a34"/><g transform="translate(7.05 12) rotate(-45)"><line x1="7" y2="7" transform="translate(0 0)" fill="none" stroke="#fff" stroke-linecap="round" stroke-width="1.5"/><line x2="7" y2="7" transform="translate(0 0)" fill="none" stroke="#fff" stroke-linecap="round" stroke-width="1.5"/></g></g><g transform="translate(652 247.262)"><path d="M5,0H96.493c2.761,0,5,1.95,5,4.355v18.29c0,2.405-2.239,4.355-5,4.355H5c-2.761,0-5-1.95-5-4.355V4.355C0,1.95,2.239,0,5,0Z" fill="#e5e6e9"/><g transform="translate(-139.507 -373)"><text transform="translate(172 392)" fill="#989ba6" font-size="14" font-family="Inter-Bold, Inter" font-weight="700" letter-spacing="-0.004em"><tspan x="0" y="0">Disabled</tspan></text><g transform="translate(150.507 386.5) rotate(-45)" clip-path="url(#u)"><path d="M5.994,4.945l3.17-3.17.654-.654a.247.247,0,0,0,0-.35l-.7-.7a.247.247,0,0,0-.35,0L4.945,3.9,1.122.072a.247.247,0,0,0-.35,0l-.7.7a.247.247,0,0,0,0,.35L3.9,4.945.072,8.768a.247.247,0,0,0,0,.35l.7.7a.247.247,0,0,0,.35,0L4.945,5.994l3.17,3.17.654.654a.247.247,0,0,0,.35,0l.7-.7a.247.247,0,0,0,0-.35Z" transform="translate(0 0.019)" fill="#989ba6"/></g></g></g><g transform="translate(534 247)"><rect width="101.493" height="27" rx="5" fill="#141a34"/><g transform="translate(-139.507 -373)"><text transform="translate(172 392)" fill="#fff" font-size="14" font-family="Inter-Bold, Inter" font-weight="700" letter-spacing="-0.004em"><tspan x="0" y="0">Selected</tspan></text><g transform="translate(150.507 386.5) rotate(-45)" clip-path="url(#a)"><path d="M5.994,4.945l3.17-3.17.654-.654a.247.247,0,0,0,0-.35l-.7-.7a.247.247,0,0,0-.35,0L4.945,3.9,1.122.072a.247.247,0,0,0-.35,0l-.7.7a.247.247,0,0,0,0,.35L3.9,4.945.072,8.768a.247.247,0,0,0,0,.35l.7.7a.247.247,0,0,0,.35,0L4.945,5.994l3.17,3.17.654.654a.247.247,0,0,0,.35,0l.7-.7a.247.247,0,0,0,0-.35Z" transform="translate(0 0.019)" fill="#fff"/></g></g></g><g transform="translate(417 246.932)"><g fill="#f86145"><path d="M 96.49266815185547 26.25 L 5.000004768371582 26.25 C 2.656551122665405 26.25 0.7500045299530029 24.63287925720215 0.7500045299530029 22.64516067504883 L 0.7500045299530029 4.35483980178833 C 0.7500045299530029 2.367120027542114 2.656551122665405 0.75 5.000004768371582 0.75 L 96.49266815185547 0.75 C 98.83612823486328 0.75 100.7426681518555 2.367120027542114 100.7426681518555 4.35483980178833 L 100.7426681518555 22.64516067504883 C 100.7426681518555 24.63287925720215 98.83612823486328 26.25 96.49266815185547 26.25 Z" stroke="none"/><path d="M 4.999992370605469 1.5 C 3.070091247558594 1.5 1.499992370605469 2.780672073364258 1.499992370605469 4.354843139648438 L 1.499992370605469 22.64515686035156 C 1.499992370605469 24.21932792663574 3.070091247558594 25.5 4.999992370605469 25.5 L 96.49268341064453 25.5 C 98.42257690429688 25.5 99.99268341064453 24.21932792663574 99.99268341064453 22.64515686035156 L 99.99268341064453 4.354843139648438 C 99.99268341064453 2.780672073364258 98.42257690429688 1.5 96.49268341064453 1.5 L 4.999992370605469 1.5 M 4.999992370605469 0 L 96.49268341064453 0 C 99.25409698486328 0 101.4926834106445 1.949728012084961 101.4926834106445 4.354843139648438 L 101.4926834106445 22.64515686035156 C 101.4926834106445 25.05027198791504 99.25409698486328 27 96.49268341064453 27 L 4.999992370605469 27 C 2.238578796386719 27 -7.62939453125e-06 25.05027198791504 -7.62939453125e-06 22.64515686035156 L -7.62939453125e-06 4.354843139648438 C -7.62939453125e-06 1.949728012084961 2.238578796386719 0 4.999992370605469 0 Z" stroke="none" fill="#db3618"/></g><g transform="translate(-139.507 -373)"><text transform="translate(172 392)" fill="#fff" font-size="14" font-family="Inter-Bold, Inter" font-weight="700" letter-spacing="-0.004em"><tspan x="0" y="0">Focused</tspan></text><g transform="translate(150.507 386.5) rotate(-45)" clip-path="url(#a)"><path d="M5.994,4.945l3.17-3.17.654-.654a.247.247,0,0,0,0-.35l-.7-.7a.247.247,0,0,0-.35,0L4.945,3.9,1.122.072a.247.247,0,0,0-.35,0l-.7.7a.247.247,0,0,0,0,.35L3.9,4.945.072,8.768a.247.247,0,0,0,0,.35l.7.7a.247.247,0,0,0,.35,0L4.945,5.994l3.17,3.17.654.654a.247.247,0,0,0,.35,0l.7-.7a.247.247,0,0,0,0-.35Z" transform="translate(0 0.019)" fill="#fff"/></g></g></g><g transform="translate(299 247)"><g transform="matrix(1, 0, 0, 1, -299, -247)" filter="url(#x)"><rect width="101.493" height="27" rx="5" transform="translate(299 247)" fill="#db3618"/></g><g transform="translate(-139.507 -373)"><text transform="translate(172 392)" fill="#fff" font-size="14" font-family="Inter-Bold, Inter" font-weight="700" letter-spacing="-0.004em"><tspan x="0" y="0">Pressed</tspan></text><g transform="translate(150.507 386.5) rotate(-45)" clip-path="url(#a)"><path d="M5.994,4.945l3.17-3.17.654-.654a.247.247,0,0,0,0-.35l-.7-.7a.247.247,0,0,0-.35,0L4.945,3.9,1.122.072a.247.247,0,0,0-.35,0l-.7.7a.247.247,0,0,0,0,.35L3.9,4.945.072,8.768a.247.247,0,0,0,0,.35l.7.7a.247.247,0,0,0,.35,0L4.945,5.994l3.17,3.17.654.654a.247.247,0,0,0,.35,0l.7-.7a.247.247,0,0,0,0-.35Z" transform="translate(0 0.019)" fill="#fff"/></g></g></g><g transform="translate(898 245)"><g fill="#fff" stroke="#f86145" stroke-width="1.25"><rect width="120" height="31" rx="5" stroke="none"/><rect x="0.625" y="0.625" width="118.75" height="29.75" rx="4.375" fill="none"/></g><g transform="translate(-139.508 -371)"><text transform="translate(172 392)" fill="#f86145" font-size="14" font-family="Inter-Bold, Inter" font-weight="700" letter-spacing="-0.004em"><tspan x="0" y="0">Secondary</tspan></text><g transform="translate(150.507 386.5) rotate(-45)" clip-path="url(#a)"><path d="M5.994,4.945l3.17-3.17.654-.654a.247.247,0,0,0,0-.35l-.7-.7a.247.247,0,0,0-.35,0L4.945,3.9,1.122.072a.247.247,0,0,0-.35,0l-.7.7a.247.247,0,0,0,0,.35L3.9,4.945.072,8.768a.247.247,0,0,0,0,.35l.7.7a.247.247,0,0,0,.35,0L4.945,5.994l3.17,3.17.654.654a.247.247,0,0,0,.35,0l.7-.7a.247.247,0,0,0,0-.35Z" transform="translate(0 0.019)" fill="#f86145"/></g></g></g><g transform="translate(604.493 553)"><text transform="translate(40 14)" fill="#65697a" font-size="14" font-family="Inter-SemiBold, Inter" font-weight="600" letter-spacing="-0.004em"><tspan x="-40.115" y="0">Hover</tspan></text><g transform="translate(46.015 9.5) rotate(-45)" clip-path="url(#ab)"><path d="M5.994,4.945l3.17-3.17.654-.654a.247.247,0,0,0,0-.35l-.7-.7a.247.247,0,0,0-.35,0L4.945,3.9,1.122.072a.247.247,0,0,0-.35,0l-.7.7a.247.247,0,0,0,0,.35L3.9,4.945.072,8.768a.247.247,0,0,0,0,.35l.7.7a.247.247,0,0,0,.35,0L4.945,5.994l3.17,3.17.654.654a.247.247,0,0,0,.35,0l.7-.7a.247.247,0,0,0,0-.35Z" transform="translate(0 0.019)" fill="#65697a"/></g><rect width="17" height="17" transform="translate(44.508 1)" fill="none"/></g><g transform="translate(715.986 553)"><text transform="translate(55 14)" fill="#31374d" font-size="14" font-family="Inter-SemiBold, Inter" font-weight="600" letter-spacing="-0.004em"><tspan x="-54.736" y="0">Pressed</tspan></text><g transform="translate(61.015 9.5) rotate(-45)" clip-path="url(#a)"><path d="M5.994,4.945l3.17-3.17.654-.654a.247.247,0,0,0,0-.35l-.7-.7a.247.247,0,0,0-.35,0L4.945,3.9,1.122.072a.247.247,0,0,0-.35,0l-.7.7a.247.247,0,0,0,0,.35L3.9,4.945.072,8.768a.247.247,0,0,0,0,.35l.7.7a.247.247,0,0,0,.35,0L4.945,5.994l3.17,3.17.654.654a.247.247,0,0,0,.35,0l.7-.7a.247.247,0,0,0,0-.35Z" transform="translate(0 0.019)" fill="#31374d"/></g><rect width="17" height="17" transform="translate(59.508 1)" fill="none"/></g><g transform="translate(64 97)"><rect width="94" height="27" rx="5" fill="#f86145"/><text transform="translate(47 19)" fill="#fff" font-size="14" font-family="Inter-Bold, Inter" font-weight="700" letter-spacing="-0.004em"><tspan x="-26.677" y="0">Primary</tspan></text></g><g transform="translate(480 553)"><text transform="translate(53 14)" fill="#7e8290" font-size="14" font-family="Inter-SemiBold, Inter" font-weight="600" letter-spacing="-0.004em"><tspan x="-52.916" y="0">Tertiary</tspan></text><g transform="translate(59.015 9.5) rotate(-45)" clip-path="url(#a)"><path d="M5.994,4.945l3.17-3.17.654-.654a.247.247,0,0,0,0-.35l-.7-.7a.247.247,0,0,0-.35,0L4.945,3.9,1.122.072a.247.247,0,0,0-.35,0l-.7.7a.247.247,0,0,0,0,.35L3.9,4.945.072,8.768a.247.247,0,0,0,0,.35l.7.7a.247.247,0,0,0,.35,0L4.945,5.994l3.17,3.17.654.654a.247.247,0,0,0,.35,0l.7-.7a.247.247,0,0,0,0-.35Z" transform="translate(0 0.019)" fill="#7e8290"/></g><rect width="17" height="17" transform="translate(57.508 1)" fill="none"/></g><g transform="translate(898 395)"><g fill="#fff" stroke="#f86145" stroke-width="1.25"><rect width="24" height="24" rx="12" stroke="none"/><rect x="0.625" y="0.625" width="22.75" height="22.75" rx="11.375" fill="none"/></g><g transform="translate(7.05 12) rotate(-45)"><line x1="7" y2="7" transform="translate(0 0)" fill="none" stroke="#f86145" stroke-linecap="round" stroke-width="1.25"/><line x2="7" y2="7" transform="translate(0 0)" fill="none" stroke="#f86145" stroke-linecap="round" stroke-width="1.25"/></g></g><g transform="translate(65 395)"><rect width="24" height="24" rx="12" fill="#f86145"/><g transform="translate(7.05 12) rotate(-45)"><line x1="7" y2="7" transform="translate(0 0)" fill="none" stroke="#fff" stroke-linecap="round" stroke-width="1.5"/><line x2="7" y2="7" transform="translate(0 0)" fill="none" stroke="#fff" stroke-linecap="round" stroke-width="1.5"/></g></g><g transform="translate(121 395)"><g transform="matrix(1, 0, 0, 1, -121, -395)" filter="url(#ae)"><rect width="24" height="24" rx="12" transform="translate(121 395)" fill="#f86145"/></g><g transform="translate(7.05 12) rotate(-45)"><line x1="7" y2="7" transform="translate(0 0)" fill="none" stroke="#fff" stroke-linecap="round" stroke-width="1.5"/><line x2="7" y2="7" transform="translate(0 0)" fill="none" stroke="#fff" stroke-linecap="round" stroke-width="1.5"/></g></g><text transform="translate(898 506)" fill="#65697a" font-size="18" font-family="Inter-Regular, Inter"><tspan x="0" y="0">Check Box</tspan></text><text transform="translate(1176 506)" fill="#65697a" font-size="18" font-family="Inter-Regular, Inter"><tspan x="0" y="0">Radio Button</tspan></text><text transform="translate(1454 506)" fill="#65697a" font-size="18" font-family="Inter-Regular, Inter"><tspan x="0" y="0">Nav arrow</tspan></text><g transform="translate(898 540)"><g fill="#fff" stroke="#cccdd3" stroke-width="1"><rect width="15" height="15" rx="3" stroke="none"/><rect x="0.5" y="0.5" width="14" height="14" rx="2.5" fill="none"/></g><path d="M1148.587,662.036l3.216,3.662,4.241-8.854" transform="translate(-1144.652 -653.821)" fill="none" stroke="#141a34" stroke-linecap="round" stroke-linejoin="round" stroke-width="1" opacity="0"/></g><g transform="translate(923 540)"><rect width="15" height="15" rx="3" fill="#4b5064"/><path d="M1148.587,661.036l2.6,2.957,3.432-6.781" transform="translate(-1143.934 -652.968)" fill="none" stroke="#fff" stroke-linecap="round" stroke-linejoin="round" stroke-width="1.25" opacity="0.999"/></g><g transform="translate(1176 540)"><g fill="#fff" stroke="#989ba6" stroke-width="1"><rect width="15" height="15" rx="3" stroke="none"/><rect x="0.5" y="0.5" width="14" height="14" rx="2.5" fill="none"/></g><rect width="11" height="11" rx="1.5" transform="translate(2 2)" fill="#4b5064" opacity="0"/></g><g transform="translate(1206 540)"><g fill="#fff" stroke="#989ba6" stroke-width="1"><rect width="15" height="15" rx="3" stroke="none"/><rect x="0.5" y="0.5" width="14" height="14" rx="2.5" fill="none"/></g><rect width="11" height="11" rx="1.5" transform="translate(2 2)" fill="#4b5064"/></g><g transform="translate(761 -340)"><g transform="translate(693 883)"><path d="M12.732-4.321l4.559-4.559,4.559,4.559" transform="translate(6.121 -12.732) rotate(90)" fill="none" stroke="#3e67ff" stroke-linecap="round" stroke-linejoin="round" stroke-width="1"/><line x1="15" transform="translate(0 4.559)" fill="none" stroke="#3e67ff" stroke-linecap="round" stroke-width="1"/></g></g><text transform="translate(64 84)" fill="#989ba6" font-size="12" font-family="Inter-Regular, Inter"><tspan x="0" y="0">Large</tspan></text><text transform="translate(64 540)" fill="#989ba6" font-size="12" font-family="Inter-Regular, Inter"><tspan x="0" y="0">Large</tspan></text><text transform="translate(481 540)" fill="#989ba6" font-size="12" font-family="Inter-Regular, Inter"><tspan x="0" y="0">Large</tspan></text><text transform="translate(898 84)" fill="#989ba6" font-size="12" font-family="Inter-Regular, Inter"><tspan x="0" y="0">Large</tspan></text><g transform="translate(80 692)"><g transform="translate(8.5)"><text transform="translate(11.5 14)" fill="#141a34" font-size="14" font-family="Inter-SemiBold, Inter" font-weight="600"><tspan x="0" y="0">Selected</tspan></text></g><path d="M.5-8.551v100" transform="translate(8.551 30.5) rotate(-90)" fill="none" stroke="#31374d" stroke-linecap="square" stroke-miterlimit="10" stroke-width="2"/><g transform="translate(100)"><g transform="translate(17.313)"><text transform="translate(2.687 14)" fill="#7e8290" font-size="14" font-family="Inter-SemiBold, Inter" font-weight="600"><tspan x="0" y="0">Unselected</tspan></text></g><path d="M.5-8.551v117" transform="translate(8.551 30.5) rotate(-90)" fill="none" stroke="#989ba6" stroke-linecap="square" stroke-miterlimit="10" stroke-width="1"/></g><g transform="translate(217)"><g transform="translate(17.313)"><text transform="translate(2.687 14)" fill="#7e8290" font-size="14" font-family="Inter-SemiBold, Inter" font-weight="600"><tspan x="0" y="0">Unselected</tspan></text></g><path d="M.5-8.551v117" transform="translate(8.551 30.5) rotate(-90)" fill="none" stroke="#989ba6" stroke-linecap="square" stroke-miterlimit="10" stroke-width="1"/></g></g><text transform="translate(63 657)" fill="#65697a" font-size="18" font-family="Inter-Regular, Inter"><tspan x="0" y="0">Tabs</tspan></text></g></svg>