<svg xmlns="http://www.w3.org/2000/svg" xmlns:xlink="http://www.w3.org/1999/xlink" width="1680" height="1120" viewBox="0 0 1680 1120"><defs><filter id="a" x="44" y="752" width="178" height="160" filterUnits="userSpaceOnUse"><feOffset dy="5" input="SourceAlpha"/><feGaussianBlur stdDeviation="5" result="b"/><feFlood flood-color="#141a34" flood-opacity="0.149"/><feComposite operator="in" in2="b"/><feComposite in="SourceGraphic"/></filter><filter id="c" x="378" y="750" width="280" height="160" filterUnits="userSpaceOnUse"><feOffset dy="3" input="SourceAlpha"/><feGaussianBlur stdDeviation="5" result="d"/><feFlood flood-color="#141a34" flood-opacity="0.149"/><feComposite operator="in" in2="d"/><feComposite in="SourceGraphic"/></filter><filter id="e" x="853" y="753" width="273" height="227" filterUnits="userSpaceOnUse"><feOffset dy="5" input="SourceAlpha"/><feGaussianBlur stdDeviation="5" result="f"/><feFlood flood-color="#141a34" flood-opacity="0.149"/><feComposite operator="in" in2="f"/><feComposite in="SourceGraphic"/></filter><filter id="g" x="1287.5" y="727.5" width="285" height="284" filterUnits="userSpaceOnUse"><feOffset input="SourceAlpha"/><feGaussianBlur stdDeviation="7.5" result="h"/><feFlood flood-color="#141a34" flood-opacity="0.149"/><feComposite operator="in" in2="h"/><feComposite in="SourceGraphic"/></filter><linearGradient id="i" y1="0.5" x2="1" y2="0.5" gradientUnits="objectBoundingBox"><stop offset="0" stop-color="#989ba6"/><stop offset="1" stop-color="#cccdd3"/></linearGradient><linearGradient id="k" x1="1" y1="0.5" x2="0" y2="0.5" gradientUnits="objectBoundingBox"><stop offset="0" stop-color="#a2fdb0"/><stop offset="0.547" stop-color="#6cf1a7"/><stop offset="1" stop-color="#3be69e"/></linearGradient><clipPath id="m"><rect width="1680" height="1120"/></clipPath></defs><g id="l" clip-path="url(#m)"><rect width="1680" height="1120" fill="#fff"/><text transform="translate(59 232)" fill="#65697a" font-size="18" font-family="Inter-Regular, Inter"><tspan x="0" y="0">Dropdown Field - No Label</tspan></text><text transform="translate(1169 439)" fill="#65697a" font-size="18" font-family="Inter-Regular, Inter"><tspan x="0" y="0">Annotation Tools Dropdown Field - No Label</tspan></text><text transform="translate(613 232)" fill="#65697a" font-size="18" font-family="Inter-Regular, Inter"><tspan x="0" y="0">Dropdown Field - with Label</tspan></text><text transform="translate(613 439)" fill="#65697a" font-size="18" font-family="Inter-Regular, Inter"><tspan x="0" y="0">Date Field - with Label</tspan></text><text transform="translate(59 439)" fill="#65697a" font-size="18" font-family="Inter-Regular, Inter"><tspan x="0" y="0">Date Field - No Label</tspan></text><text transform="translate(59 42)" fill="#65697a" font-size="18" font-family="Inter-Regular, Inter"><tspan x="0" y="0">Input Text Fields - No Label</tspan></text><text transform="translate(613 42)" fill="#65697a" font-size="18" font-family="Inter-Regular, Inter"><tspan x="0" y="0">Input Text Fields - with Label</tspan></text><text transform="translate(1172 42)" fill="#65697a" font-size="18" font-family="Inter-Regular, Inter"><tspan x="0" y="0">Password Field</tspan></text><text transform="translate(1169 232)" fill="#65697a" font-size="18" font-family="Inter-Regular, Inter"><tspan x="0" y="0">Phone Number Field</tspan></text><g transform="translate(59 103)"><g fill="#fff" stroke="#cccdd3" stroke-miterlimit="10" stroke-width="1"><rect width="440" height="40" rx="4" stroke="none"/><rect x="0.5" y="0.5" width="439" height="39" rx="3.5" fill="none"/></g><text transform="translate(14 26)" fill="#7e8290" font-size="16" font-family="Inter-Regular, Inter" letter-spacing="-0.004em"><tspan x="0" y="0">Placeholder Text</tspan></text></g><g transform="translate(613 76)"><g transform="translate(0 27)" fill="none" stroke="#cccdd3" stroke-miterlimit="10" stroke-width="1"><rect width="440" height="40" rx="4" stroke="none"/><rect x="0.5" y="0.5" width="439" height="39" rx="3.5" fill="none"/></g><text transform="translate(0 14)" fill="#4b5064" font-size="14" font-family="Inter-SemiBold, Inter" font-weight="600" letter-spacing="-0.004em"><tspan x="0" y="0">Label</tspan></text><text transform="translate(14 53)" fill="#989ba6" font-size="16" font-family="Inter-Regular, Inter" letter-spacing="-0.005em"><tspan x="0" y="0">Placeholder Text</tspan></text></g><g transform="translate(59 293)"><g fill="#fff" stroke="#cccdd3" stroke-miterlimit="10" stroke-width="1"><rect width="440" height="40" rx="4" stroke="none"/><rect x="0.5" y="0.5" width="439" height="39" rx="3.5" fill="none"/></g><text transform="translate(13 26)" fill="#7e8290" font-size="16" font-family="Inter-Regular, Inter" letter-spacing="-0.004em"><tspan x="0" y="0">Placeholder Text</tspan></text><path d="M5.62.443a.5.5,0,0,1,.759,0l4.913,5.732a.5.5,0,0,1-.38.825H1.087a.5.5,0,0,1-.38-.825Z" transform="translate(425 24) rotate(180)" fill="#7e8290"/></g><g transform="translate(613 266)"><g transform="translate(0 27)" fill="none" stroke="#cccdd3" stroke-miterlimit="10" stroke-width="1"><rect width="440" height="40" rx="4" stroke="none"/><rect x="0.5" y="0.5" width="439" height="39" rx="3.5" fill="none"/></g><text transform="translate(0 14)" fill="#4b5064" font-size="14" font-family="Inter-SemiBold, Inter" font-weight="600" letter-spacing="-0.004em"><tspan x="0" y="0">Label</tspan></text><text transform="translate(14 53)" fill="#989ba6" font-size="16" font-family="Inter-Regular, Inter" letter-spacing="-0.005em"><tspan x="0" y="0">Placeholder Text</tspan></text><path d="M5.62.443a.5.5,0,0,1,.759,0l4.913,5.732a.5.5,0,0,1-.38.825H1.087a.5.5,0,0,1-.38-.825Z" transform="translate(425 51) rotate(180)" fill="#7e8290"/></g><g transform="translate(1169 293)"><g fill="none" stroke="#cccdd3" stroke-miterlimit="10" stroke-width="1"><rect width="450" height="40" rx="4" stroke="none"/><rect x="0.5" y="0.5" width="449" height="39" rx="3.5" fill="none"/></g><text transform="translate(14 26)" fill="#989ba6" font-size="16" font-family="Inter-Regular, Inter" letter-spacing="-0.005em"><tspan x="0" y="0">+1 (___) ___-____</tspan></text></g><rect width="450" height="40" rx="4" transform="translate(1172 103)" fill="#fff"/><path d="M4,1A3,3,0,0,0,1,4V36a3,3,0,0,0,3,3H446a3,3,0,0,0,3-3V4a3,3,0,0,0-3-3H4M4,0H446a4,4,0,0,1,4,4V36a4,4,0,0,1-4,4H4a4,4,0,0,1-4-4V4A4,4,0,0,1,4,0Z" transform="translate(1172 103)" fill="#cccdd3"/><g transform="translate(1188 119.511)"><circle cx="3.489" cy="3.489" r="3.489" fill="#a6a6a6"/><circle cx="3.489" cy="3.489" r="3.489" transform="translate(14.954)" fill="#a6a6a6"/><circle cx="3.489" cy="3.489" r="3.489" transform="translate(29.908)" fill="#a6a6a6"/><circle cx="3.489" cy="3.489" r="3.489" transform="translate(44.862)" fill="#a6a6a6"/><circle cx="3.489" cy="3.489" r="3.489" transform="translate(59.816)" fill="#a6a6a6"/><circle cx="3.489" cy="3.489" r="3.489" transform="translate(74.77)" fill="#a6a6a6"/></g><g transform="translate(1169 506)"><g fill="#fff" stroke="#e5e6e9" stroke-width="1"><rect width="104.268" height="27" rx="5" stroke="none"/><rect x="0.5" y="0.5" width="103.268" height="26" rx="4.5" fill="none"/></g><g transform="translate(-931 -470)"><text transform="translate(941 488)" fill="#31374d" font-size="12" font-family="Inter-Medium, Inter" font-weight="500"><tspan x="0" y="0">Critical</tspan></text><path d="M4.893,187.459.12,182.612a.494.494,0,0,1,0-.7l.292-.292a.494.494,0,0,1,.7,0l4.131,4.209,4.131-4.205a.494.494,0,0,1,.7,0l.292.292a.494.494,0,0,1,0,.7l-4.773,4.847A.5.5,0,0,1,4.893,187.459Z" transform="translate(1014.757 298.961)" fill="#989ba6"/></g></g><g transform="translate(613 473)"><g transform="translate(0 27)" fill="none" stroke="#cccdd3" stroke-miterlimit="10" stroke-width="1"><rect width="440" height="40" rx="4" stroke="none"/><rect x="0.5" y="0.5" width="439" height="39" rx="3.5" fill="none"/></g><text transform="translate(0 14)" fill="#4b5064" font-size="14" font-family="Inter-SemiBold, Inter" font-weight="600" letter-spacing="-0.004em"><tspan x="0" y="0">Label</tspan></text><text transform="translate(14 53)" fill="#989ba6" font-size="16" font-family="Inter-Regular, Inter" letter-spacing="-0.005em"><tspan x="0" y="0">Placeholder Text</tspan></text><path d="M10.156,1.625H8.938V.3a.3.3,0,0,0-.3-.3h-.2a.3.3,0,0,0-.3.3v1.32H3.25V.3a.3.3,0,0,0-.3-.3h-.2a.3.3,0,0,0-.3.3v1.32H1.219A1.219,1.219,0,0,0,0,2.844v8.938A1.219,1.219,0,0,0,1.219,13h8.938a1.219,1.219,0,0,0,1.219-1.219V2.844A1.219,1.219,0,0,0,10.156,1.625Zm-8.937.813h8.938a.407.407,0,0,1,.406.406V4.062H.813V2.844A.407.407,0,0,1,1.219,2.438Zm8.938,9.75H1.219a.407.407,0,0,1-.406-.406V4.875h9.75v6.906A.407.407,0,0,1,10.156,12.188Z" transform="translate(413.5 41)" fill="#7e8290"/></g><g transform="translate(59 500)"><g fill="none" stroke="#cccdd3" stroke-miterlimit="10" stroke-width="1"><rect width="440" height="40" rx="4" stroke="none"/><rect x="0.5" y="0.5" width="439" height="39" rx="3.5" fill="none"/></g><text transform="translate(14 26)" fill="#989ba6" font-size="16" font-family="Inter-Regular, Inter" letter-spacing="-0.005em"><tspan x="0" y="0">Placeholder Text</tspan></text><path d="M10.156,1.625H8.938V.3a.3.3,0,0,0-.3-.3h-.2a.3.3,0,0,0-.3.3v1.32H3.25V.3a.3.3,0,0,0-.3-.3h-.2a.3.3,0,0,0-.3.3v1.32H1.219A1.219,1.219,0,0,0,0,2.844v8.938A1.219,1.219,0,0,0,1.219,13h8.938a1.219,1.219,0,0,0,1.219-1.219V2.844A1.219,1.219,0,0,0,10.156,1.625Zm-8.937.813h8.938a.407.407,0,0,1,.406.406V4.062H.813V2.844A.407.407,0,0,1,1.219,2.438Zm8.938,9.75H1.219a.407.407,0,0,1-.406-.406V4.875h9.75v6.906A.407.407,0,0,1,10.156,12.188Z" transform="translate(413.5 14)" fill="#7e8290"/></g><text transform="translate(59 712)" fill="#65697a" font-size="18" font-family="Inter-Regular, Inter"><tspan x="0" y="0">Drop Down Menu</tspan></text><text transform="translate(393 712)" fill="#65697a" font-size="18" font-family="Inter-Regular, Inter"><tspan x="0" y="0">Drop Down Menu - with Selectors</tspan></text><text transform="translate(868 712)" fill="#65697a" font-size="18" font-family="Inter-Regular, Inter"><tspan x="0" y="0">Drop Down Menu - Filter by:</tspan></text><g transform="translate(59 762)"><g transform="matrix(1, 0, 0, 1, -59, -762)" filter="url(#a)"><rect width="148" height="130" rx="5" transform="translate(59 762)" fill="#fff"/></g><path d="M0,0H148a0,0,0,0,1,0,0V39a5,5,0,0,1-5,5H5a5,5,0,0,1-5-5V0A0,0,0,0,1,0,0Z" transform="translate(0 86)" fill="#f3f9fc"/><line x2="147.5" transform="translate(0 86.5)" fill="none" stroke="#e5e6e9" stroke-width="1"/><line x2="147.5" transform="translate(0.5 43.5)" fill="none" stroke="#e5e6e9" stroke-width="1"/><text transform="translate(24.5 70.5)" fill="#4b5064" font-size="12" font-family="Inter-SemiBold, Inter" font-weight="600" letter-spacing="-0.004em"><tspan x="0" y="0">Project</tspan></text><text transform="translate(25 113)" fill="#4b5064" font-size="12" font-family="Inter-SemiBold, Inter" font-weight="600" letter-spacing="-0.004em"><tspan x="0" y="0">Due Date</tspan></text><text transform="translate(25 28)" fill="#4b5064" font-size="12" font-family="Inter-SemiBold, Inter" font-weight="600" letter-spacing="-0.004em"><tspan x="0" y="0">None</tspan></text></g><g transform="translate(393 762)"><g transform="matrix(1, 0, 0, 1, -393, -762)" filter="url(#c)"><rect width="250" height="130" rx="5" transform="translate(393 762)" fill="#fff"/></g><line x2="249.5" transform="translate(0 86.5)" fill="none" stroke="#e5e6e9" stroke-width="1"/><line x2="249.5" transform="translate(0.5 43.5)" fill="none" stroke="#e5e6e9" stroke-width="1"/><text transform="translate(41 69.5)" fill="#4b5064" font-size="12" font-family="Inter-SemiBold, Inter" font-weight="600" letter-spacing="-0.004em"><tspan x="0" y="0">Full Website Design</tspan></text><text transform="translate(41 113)" fill="#4b5064" font-size="12" font-family="Inter-SemiBold, Inter" font-weight="600" letter-spacing="-0.004em"><tspan x="0" y="0">Company Timeline</tspan></text><text transform="translate(41 26)" fill="#4b5064" font-size="12" font-family="Inter-SemiBold, Inter" font-weight="600" letter-spacing="-0.004em"><tspan x="0" y="0">All Projects</tspan></text><g transform="translate(15 58)"><g fill="#fff" stroke="#989ba6" stroke-width="1"><rect width="15" height="15" rx="3" stroke="none"/><rect x="0.5" y="0.5" width="14" height="14" rx="2.5" fill="none"/></g><rect width="11" height="11" rx="1.5" transform="translate(2 2)" fill="#4b5064"/></g><g transform="translate(15 101)"><g fill="#fff" stroke="#989ba6" stroke-width="1"><rect width="15" height="15" rx="3" stroke="none"/><rect x="0.5" y="0.5" width="14" height="14" rx="2.5" fill="none"/></g><rect width="11" height="11" rx="1.5" transform="translate(2 2)" fill="#4b5064" opacity="0"/></g><g transform="translate(15 14)"><g fill="#fff" stroke="#989ba6" stroke-width="1"><rect width="15" height="15" rx="3" stroke="none"/><rect x="0.5" y="0.5" width="14" height="14" rx="2.5" fill="none"/></g><rect width="11" height="11" rx="1.5" transform="translate(2 2)" fill="#4b5064" opacity="0"/></g></g><g transform="translate(868 737)"><g transform="translate(0 3)"><g transform="matrix(1, 0, 0, 1, -868, -740)" filter="url(#e)"><rect width="243" height="197" rx="5" transform="translate(868 763)" fill="#fff"/></g><g transform="translate(11.854 57)"><text transform="translate(0.587 18)" fill="#141a34" font-size="14" font-family="Inter-Bold, Inter" font-weight="700" letter-spacing="-0.004em" opacity="0.8"><tspan x="0" y="0">Client</tspan></text><g transform="translate(0 10)"><g transform="translate(-0.413 17)" fill="#fff" opacity="0.452"><path d="M 217 39.25 L 4 39.25 C 2.207944393157959 39.25 0.75 37.79205703735352 0.75 36 L 0.75 4 C 0.75 2.207944393157959 2.207944393157959 0.75 4 0.75 L 217 0.75 C 218.7920532226562 0.75 220.25 2.207944393157959 220.25 4 L 220.25 36 C 220.25 37.79205703735352 218.7920532226562 39.25 217 39.25 Z" stroke="none"/><path d="M 4 1.5 C 2.621505737304688 1.5 1.5 2.621498107910156 1.5 4 L 1.5 36 C 1.5 37.37850189208984 2.621505737304688 38.5 4 38.5 L 217 38.5 C 218.3784942626953 38.5 219.5 37.37850189208984 219.5 36 L 219.5 4 C 219.5 2.621498107910156 218.3784942626953 1.5 217 1.5 L 4 1.5 M 4 0 L 217 0 C 219.2091522216797 0 221 1.790851593017578 221 4 L 221 36 C 221 38.20914840698242 219.2091522216797 40 217 40 L 4 40 C 1.790847778320312 40 0 38.20914840698242 0 36 L 0 4 C 0 1.790851593017578 1.790847778320312 0 4 0 Z" stroke="none" fill="#cccdd3"/></g><text transform="translate(9.587 43)" fill="#4b5064" font-size="14" font-family="Inter-Regular, Inter" letter-spacing="0.005em"><tspan x="0" y="0">MediaAlpha</tspan></text><path d="M5.241.886a1,1,0,0,1,1.519,0l3.826,4.463A1,1,0,0,1,9.826,7H2.174a1,1,0,0,1-.759-1.651Z" transform="translate(209.587 41) rotate(180)" fill="#141a34"/></g></g><g transform="translate(11.854 135)" opacity="0.606"><text transform="translate(0.587 18)" fill="#141a34" font-size="14" font-family="Inter-Bold, Inter" font-weight="700" letter-spacing="-0.004em"><tspan x="0" y="0">Project</tspan></text><g transform="translate(0.146 32)"><g fill="#fff" stroke="#cccdd3" stroke-miterlimit="10" stroke-width="1"><rect width="220" height="40" rx="4" stroke="none"/><rect x="0.5" y="0.5" width="219" height="39" rx="3.5" fill="none"/></g><text transform="translate(6 26)" fill="#7e8290" font-size="16" font-family="Inter-Regular, Inter" letter-spacing="-0.004em"><tspan x="0" y="0">Placeholder Text</tspan></text><path d="M5.62.443a.5.5,0,0,1,.759,0l4.913,5.732a.5.5,0,0,1-.38.825H1.087a.5.5,0,0,1-.38-.825Z" transform="translate(208 24) rotate(180)" fill="#7e8290"/></g></g><text transform="translate(11.441 46)" fill="#65697a" font-size="14" font-family="Inter-Medium, Inter" font-weight="500" letter-spacing="-0.004em"><tspan x="0" y="0">Filter by:</tspan></text></g><g transform="translate(85.5)" opacity="0"><text transform="translate(84.5 14)" fill="#cccdd3" font-size="14" font-family="Inter-Medium, Inter" font-weight="500" letter-spacing="-0.004em"><tspan x="0" y="0">Filter</tspan></text><g transform="translate(-1162.815 -210.937)"><g transform="translate(1289 213)"><path/></g><path d="M12.7,1.031,8.046,5.681v6.59a.6.6,0,0,1-.949.494L5.085,11.357a.6.6,0,0,1-.257-.494V5.683L.176,1.031A.605.605,0,0,1,.6,0H12.27A.605.605,0,0,1,12.7,1.031Z" transform="translate(1289 213)" fill="none" stroke="#cccdd3" stroke-width="1"/></g></g></g><text transform="translate(1310 712)" fill="#65697a" font-size="18" font-family="Inter-Regular, Inter"><tspan x="0" y="0">Upload Modual</tspan></text><g transform="translate(846 -81)"><g transform="translate(464 831)"><g transform="matrix(1, 0, 0, 1, -1310, -750)" filter="url(#g)"><path d="M5,0H235a5,5,0,0,1,5,5V239a0,0,0,0,1,0,0H0a0,0,0,0,1,0,0V5A5,5,0,0,1,5,0Z" transform="translate(1310 750)" fill="#fff"/></g></g><text transform="translate(479 990.752)" fill="#4b5064" font-size="12" font-family="Inter-Medium, Inter" font-weight="500" letter-spacing="-0.004em"><tspan x="0" y="0">Our Products - V1</tspan></text><text transform="translate(479 1042)" fill="#4b5064" font-size="12" font-family="Inter-Medium, Inter" font-weight="500" letter-spacing="-0.004em"><tspan x="0" y="0">Homepage - V1</tspan></text><text transform="translate(479 856)" fill="#4b5064" font-size="14" font-family="Inter-Bold, Inter" font-weight="700" letter-spacing="-0.004em"><tspan x="0" y="0">Uploads</tspan></text><text transform="translate(639.769 990.752)" fill="#31374d" font-size="8" font-family="Inter-SemiBold, Inter" font-weight="600" letter-spacing="0.005em"><tspan x="0" y="0">UPLOADED</tspan></text><rect width="204.769" height="5" rx="2.5" transform="translate(479 999.752)" fill="#fff"/><path d="M2.5,0a2.5,2.5,0,0,0,0,5H202.269a2.5,2.5,0,0,0,0-5H2.5m0-.75H202.269a3.25,3.25,0,0,1,0,6.5H2.5a3.25,3.25,0,0,1,0-6.5Z" transform="translate(479 999.752)" fill="#cccdd3"/><g transform="translate(479 881)"><text transform="translate(0 12)" fill="#4b5064" font-size="12" font-family="Inter-Medium, Inter" font-weight="500" letter-spacing="-0.004em"><tspan x="0" y="0">Meet the Team - V1</tspan></text><text transform="translate(171 12)" fill="#989ba6" font-size="8" font-family="Inter-SemiBold, Inter" font-weight="600" letter-spacing="0.005em"><tspan x="0" y="0">CANCEL</tspan></text><rect width="204" height="5" rx="2.5" transform="translate(0 20)" fill="#fff"/><path d="M2.5,0a2.5,2.5,0,0,0,0,5h199a2.5,2.5,0,0,0,0-5H2.5m0-.75h199a3.25,3.25,0,0,1,0,6.5H2.5a3.25,3.25,0,0,1,0-6.5Z" transform="translate(0 20)" fill="#cccdd3"/><rect width="81" height="5" rx="2.5" transform="translate(0 20)" fill="url(#i)"/></g><g transform="translate(479.361 929.991)"><text transform="translate(0 12)" fill="#4b5064" font-size="12" font-family="Inter-Medium, Inter" font-weight="500" letter-spacing="-0.004em"><tspan x="0" y="0">About Us Page - V1</tspan></text><text transform="translate(171.769 12.27)" fill="#989ba6" font-size="8" font-family="Inter-SemiBold, Inter" font-weight="600" letter-spacing="0.005em"><tspan x="0" y="0">CANCEL</tspan></text><rect width="204.769" height="5" rx="2.5" transform="translate(0 19.77)" fill="#fff"/><path d="M2.5,0a2.5,2.5,0,0,0,0,5H202.269a2.5,2.5,0,0,0,0-5H2.5m0-.75H202.269a3.25,3.25,0,0,1,0,6.5H2.5a3.25,3.25,0,0,1,0-6.5Z" transform="translate(0 19.77)" fill="#cccdd3"/><rect width="136" height="5" rx="2.5" transform="translate(0 19.77)" fill="url(#i)"/></g><rect width="204.769" height="5" rx="2.5" transform="translate(479 999.752)" fill="url(#k)"/><path d="M204.769.5H0v-1H204.769Z" transform="translate(479.5 919.5)" fill="#e5e6e9"/><path d="M240,.5H0v-1H240Z" transform="translate(464.5 870.509)" fill="#e5e6e9"/><path d="M204.769.5H0v-1H204.769Z" transform="translate(479.5 968.261)" fill="#e5e6e9"/><path d="M204.769.5H0v-1H204.769Z" transform="translate(479.5 1018.021)" fill="#e5e6e9"/><path d="M204.769.5H0v-1H204.769Z" transform="translate(479.5 1057)" fill="#e5e6e9"/><g transform="translate(662.219 1028)"><path d="M9.251,1A8.26,8.26,0,0,0,1,9.251v.5a8.251,8.251,0,0,0,16.5,0v-.5A8.26,8.26,0,0,0,9.251,1m0-1A9.251,9.251,0,0,1,18.5,9.251v.5a9.251,9.251,0,0,1-18.5,0v-.5A9.251,9.251,0,0,1,9.251,0Z" fill="#3be69e"/><path d="M4268.823,19212.922a.5.5,0,0,1-.375-.168l-3.1-3.51a.5.5,0,0,1,.749-.664l2.649,3,4.083-6.9a.5.5,0,1,1,.86.508l-4.432,7.488a.5.5,0,0,1-.383.244A.384.384,0,0,1,4268.823,19212.922Z" transform="translate(-4260.174 -19199.178)" fill="#3be69e"/></g><g transform="translate(686.5 870.509)"><g transform="translate(7 5)"><rect width="5" height="186.991" rx="2.5" fill="#e5e6e9"/><rect width="5" height="50" rx="2.5" fill="#989ba6"/></g><line y1="199" transform="translate(0.5 0.491)" fill="none" stroke="#e5e6e9" stroke-width="1" opacity="0"/><path d="M0,0H18a0,0,0,0,1,0,0V193.991a5,5,0,0,1-5,5H0a0,0,0,0,1,0,0V0A0,0,0,0,1,0,0Z" fill="none"/></g><g transform="translate(684.059 853.559) rotate(180)"><path d="M12.732-4.321l4.559-4.559,4.559,4.559" transform="translate(-12.732 8.879)" fill="none" stroke="#141a34" stroke-linecap="round" stroke-linejoin="round" stroke-width="1"/></g></g><path d="M1560,.5H0v-1H1560Z" transform="translate(59.5 621.511)" fill="#e5e6e9"/></g></svg>