<svg width="115" height="30" viewBox="0 0 115 30" fill="none" xmlns="http://www.w3.org/2000/svg">
<rect width="115" height="30" rx="15" fill="#ABABAB"/>
<path d="M50.6214 22V7.45455H55.9482C56.9804 7.45455 57.835 7.625 58.5121 7.96591C59.1892 8.30208 59.6958 8.759 60.032 9.33665C60.3681 9.90956 60.5362 10.5559 60.5362 11.2756C60.5362 11.8816 60.425 12.393 60.2024 12.8097C59.9799 13.2216 59.6816 13.553 59.3075 13.804C58.9382 14.0502 58.531 14.2301 58.0859 14.3438V14.4858C58.5689 14.5095 59.04 14.6657 59.4993 14.9545C59.9633 15.2386 60.3468 15.6435 60.6499 16.169C60.9529 16.6946 61.1044 17.3338 61.1044 18.0866C61.1044 18.83 60.9292 19.4976 60.5788 20.0895C60.2332 20.6766 59.6982 21.143 58.9737 21.4886C58.2493 21.8295 57.3236 22 56.1967 22H50.6214ZM52.8161 20.1179H55.9837C57.0348 20.1179 57.7876 19.9143 58.2422 19.5071C58.6967 19.0999 58.924 18.5909 58.924 17.9801C58.924 17.5208 58.808 17.0994 58.576 16.7159C58.344 16.3324 58.0125 16.027 57.5817 15.7997C57.1555 15.5724 56.6489 15.4588 56.0618 15.4588H52.8161V20.1179ZM52.8161 13.7472H55.7564C56.2488 13.7472 56.6915 13.6525 57.0845 13.4631C57.4822 13.2737 57.7971 13.0085 58.0291 12.6676C58.2659 12.322 58.3842 11.9148 58.3842 11.446C58.3842 10.8447 58.1735 10.3404 57.7521 9.93324C57.3307 9.52604 56.6844 9.32244 55.8132 9.32244H52.8161V13.7472ZM65.7116 22.2415C65.0204 22.2415 64.3954 22.1136 63.8366 21.858C63.2779 21.5975 62.8352 21.2211 62.5085 20.7287C62.1866 20.2363 62.0256 19.6326 62.0256 18.9176C62.0256 18.3021 62.1439 17.7955 62.3807 17.3977C62.6174 17 62.937 16.6851 63.3395 16.4531C63.742 16.2211 64.1918 16.0459 64.6889 15.9276C65.1861 15.8092 65.6927 15.7192 66.2088 15.6577C66.8622 15.5819 67.3925 15.5204 67.7997 15.473C68.2069 15.4209 68.5028 15.3381 68.6875 15.2244C68.8722 15.1108 68.9645 14.9261 68.9645 14.6705V14.6207C68.9645 14.0005 68.7893 13.5199 68.4389 13.179C68.0933 12.8381 67.5772 12.6676 66.8906 12.6676C66.1757 12.6676 65.6122 12.8262 65.2003 13.1435C64.7931 13.456 64.5114 13.804 64.3551 14.1875L62.3594 13.733C62.5961 13.0701 62.9418 12.535 63.3963 12.1278C63.8556 11.7159 64.3835 11.4176 64.9801 11.233C65.5767 11.0436 66.2041 10.9489 66.8622 10.9489C67.2978 10.9489 67.7595 11.0009 68.2472 11.1051C68.7396 11.2045 69.1989 11.3892 69.625 11.6591C70.0559 11.929 70.4086 12.3149 70.6832 12.8168C70.9579 13.3139 71.0952 13.9602 71.0952 14.7557V22H69.0213V20.5085H68.9361C68.7988 20.7831 68.5928 21.053 68.3182 21.3182C68.0436 21.5833 67.6908 21.8035 67.2599 21.9787C66.8291 22.1539 66.313 22.2415 65.7116 22.2415ZM66.1733 20.5369C66.7604 20.5369 67.2623 20.4209 67.679 20.1889C68.1004 19.9569 68.42 19.6539 68.6378 19.2798C68.8603 18.901 68.9716 18.4962 68.9716 18.0653V16.6591C68.8958 16.7348 68.7491 16.8059 68.5312 16.8722C68.3182 16.9337 68.0743 16.9882 67.7997 17.0355C67.5251 17.0781 67.2576 17.1184 66.9972 17.1562C66.7367 17.1894 66.5189 17.2178 66.3438 17.2415C65.9318 17.2936 65.5554 17.3812 65.2145 17.5043C64.8783 17.6274 64.6084 17.8049 64.4048 18.0369C64.206 18.2642 64.1065 18.5672 64.1065 18.946C64.1065 19.4716 64.3007 19.8693 64.6889 20.1392C65.0772 20.4044 65.572 20.5369 66.1733 20.5369ZM77.5188 22.2202C76.4629 22.2202 75.5539 21.9811 74.7915 21.5028C74.034 21.0199 73.4516 20.3546 73.0444 19.5071C72.6372 18.6596 72.4336 17.6889 72.4336 16.5952C72.4336 15.4872 72.6419 14.5095 73.0586 13.6619C73.4753 12.8097 74.0624 12.1444 74.82 11.6662C75.5775 11.188 76.4701 10.9489 77.4975 10.9489C78.3261 10.9489 79.0647 11.1027 79.7134 11.4105C80.3621 11.7135 80.8853 12.1397 81.283 12.6889C81.6855 13.2382 81.9246 13.8797 82.0004 14.6136H79.9336C79.82 14.1023 79.5595 13.6619 79.1523 13.2926C78.7499 12.9233 78.2101 12.7386 77.533 12.7386C76.9412 12.7386 76.4227 12.8949 75.9776 13.2074C75.5373 13.5152 75.194 13.9555 74.9478 14.5284C74.7016 15.0966 74.5785 15.7689 74.5785 16.5455C74.5785 17.3409 74.6992 18.0275 74.9407 18.6051C75.1822 19.1828 75.5231 19.6302 75.9634 19.9474C76.4085 20.2647 76.9317 20.4233 77.533 20.4233C77.9355 20.4233 78.3001 20.3499 78.6268 20.2031C78.9582 20.0516 79.2352 19.8362 79.4577 19.5568C79.685 19.2775 79.8436 18.9413 79.9336 18.5483H82.0004C81.9246 19.2538 81.695 19.8835 81.3114 20.4375C80.9279 20.9915 80.4142 21.4271 79.7702 21.7443C79.131 22.0616 78.3806 22.2202 77.5188 22.2202ZM85.2244 18.2997L85.2102 15.7074H85.5795L89.9261 11.0909H92.4688L87.5114 16.3466H87.1776L85.2244 18.2997ZM83.2713 22V7.45455H85.3949V22H83.2713ZM90.1605 22L86.2543 16.8153L87.7173 15.331L92.767 22H90.1605Z" fill="white"/>
<g clip-path="url(#clip0_75_69)">
<path d="M36 14H24.14L27.77 9.64003C27.9397 9.43581 28.0214 9.17253 27.997 8.90811C27.9726 8.64368 27.8442 8.39977 27.64 8.23003C27.4358 8.06029 27.1725 7.97863 26.9081 8.00301C26.6436 8.02739 26.3997 8.15581 26.23 8.36003L21.23 14.36C21.1964 14.4078 21.1663 14.4579 21.14 14.51C21.14 14.56 21.14 14.59 21.07 14.64C21.0247 14.7547 21.0009 14.8767 21 15C21.0009 15.1233 21.0247 15.2454 21.07 15.36C21.07 15.41 21.07 15.44 21.14 15.49C21.1663 15.5422 21.1964 15.5923 21.23 15.64L26.23 21.64C26.324 21.7529 26.4418 21.8437 26.5748 21.9059C26.7079 21.9681 26.8531 22.0003 27 22C27.2337 22.0005 27.4601 21.9191 27.64 21.77C27.7413 21.6861 27.825 21.583 27.8863 21.4666C27.9477 21.3503 27.9855 21.223 27.9975 21.092C28.0096 20.961 27.9957 20.829 27.9567 20.7034C27.9176 20.5777 27.8542 20.4611 27.77 20.36L24.14 16H36C36.2652 16 36.5196 15.8947 36.7071 15.7071C36.8946 15.5196 37 15.2652 37 15C37 14.7348 36.8946 14.4805 36.7071 14.2929C36.5196 14.1054 36.2652 14 36 14Z" fill="white"/>
</g>
<defs>
<clipPath id="clip0_75_69">
<rect width="24" height="24" fill="white" transform="translate(17 3)"/>
</clipPath>
</defs>
</svg>
