<svg xmlns="http://www.w3.org/2000/svg" xmlns:xlink="http://www.w3.org/1999/xlink" width="1680" height="1120" viewBox="0 0 1680 1120"><defs><filter id="a" x="221" y="661" width="105" height="100" filterUnits="userSpaceOnUse"><feOffset dy="3" input="SourceAlpha"/><feGaussianBlur stdDeviation="3" result="b"/><feFlood flood-opacity="0.161"/><feComposite operator="in" in2="b"/><feComposite in="SourceGraphic"/></filter><filter id="c" x="20.5" y="63.5" width="495" height="440" filterUnits="userSpaceOnUse"><feOffset dy="5" input="SourceAlpha"/><feGaussianBlur stdDeviation="7.5" result="d"/><feFlood flood-color="#141a34" flood-opacity="0.149"/><feComposite operator="in" in2="d"/><feComposite in="SourceGraphic"/></filter><filter id="e" x="1165.45" y="944.5" width="130" height="63" filterUnits="userSpaceOnUse"><feOffset dy="1" input="SourceAlpha"/><feGaussianBlur stdDeviation="2.5" result="f"/><feFlood flood-color="#31374d" flood-opacity="0.149"/><feComposite operator="in" in2="f"/><feComposite in="SourceGraphic"/></filter><clipPath id="g"><rect width="17.363" height="7.098" transform="translate(258.687 292.761)" fill="none"/></clipPath><filter id="h" x="1123" y="83" width="265" height="145" filterUnits="userSpaceOnUse"><feOffset dy="5" input="SourceAlpha"/><feGaussianBlur stdDeviation="10" result="i"/><feFlood flood-opacity="0.161"/><feComposite operator="in" in2="i"/><feComposite in="SourceGraphic"/></filter><filter id="j" x="1401" y="83" width="265" height="145" filterUnits="userSpaceOnUse"><feOffset dy="5" input="SourceAlpha"/><feGaussianBlur stdDeviation="10" result="k"/><feFlood flood-opacity="0.161"/><feComposite operator="in" in2="k"/><feComposite in="SourceGraphic"/></filter><filter id="l" x="1402" y="271" width="265" height="145" filterUnits="userSpaceOnUse"><feOffset dy="5" input="SourceAlpha"/><feGaussianBlur stdDeviation="10" result="m"/><feFlood flood-opacity="0.161"/><feComposite operator="in" in2="m"/><feComposite in="SourceGraphic"/></filter><filter id="n" x="1123" y="271" width="265" height="145" filterUnits="userSpaceOnUse"><feOffset dy="5" input="SourceAlpha"/><feGaussianBlur stdDeviation="10" result="o"/><feFlood flood-opacity="0.161"/><feComposite operator="in" in2="o"/><feComposite in="SourceGraphic"/></filter><filter id="p" x="541.5" y="63.5" width="495" height="440" filterUnits="userSpaceOnUse"><feOffset dy="5" input="SourceAlpha"/><feGaussianBlur stdDeviation="7.5" result="q"/><feFlood flood-color="#141a34" flood-opacity="0.149"/><feComposite operator="in" in2="q"/><feComposite in="SourceGraphic"/></filter><clipPath id="r"><g transform="matrix(1, 0, 0, 1, 0, 0)" filter="url(#a)"><rect width="87" height="82" transform="translate(1428 227)" fill="#fff"/></g></clipPath><clipPath id="s"><rect width="27.623" height="11.292" fill="#7c4bff"/></clipPath><filter id="t" x="1155" y="613.5" width="239.5" height="148" filterUnits="userSpaceOnUse"><feOffset dy="1" input="SourceAlpha"/><feGaussianBlur stdDeviation="2.5" result="u"/><feFlood flood-color="#31374d" flood-opacity="0.149"/><feComposite operator="in" in2="u"/><feComposite in="SourceGraphic"/></filter><clipPath id="w"><rect width="1680" height="1120"/></clipPath></defs><g id="v" clip-path="url(#w)"><rect width="1680" height="1120" fill="#fff"/><g transform="translate(18)"><text transform="translate(25 42)" fill="#65697a" font-size="18" font-family="Inter-Regular, Inter"><tspan x="0" y="0">Success Module</tspan></text><text transform="translate(546 42)" fill="#65697a" font-size="18" font-family="Inter-Regular, Inter"><tspan x="0" y="0">Failure Module</tspan></text><text transform="translate(27 588)" fill="#65697a" font-size="18" font-family="Inter-Regular, Inter"><tspan x="0" y="0">Request Confirmation</tspan></text><text transform="translate(548 588)" fill="#65697a" font-size="18" font-family="Inter-Regular, Inter"><tspan x="0" y="0">Request Sent</tspan></text><text transform="translate(1136.95 918)" fill="#65697a" font-size="18" font-family="Inter-Regular, Inter"><tspan x="0" y="0">Tool Tips</tspan></text><text transform="translate(1140 588)" fill="#65697a" font-size="18" font-family="Inter-Regular, Inter"><tspan x="0" y="0">Onboarding Messages</tspan></text><text transform="translate(1135 43)" fill="#65697a" font-size="18" font-family="Inter-Regular, Inter"><tspan x="0" y="0">Toast Notifications</tspan></text><g transform="translate(25 81)"><g transform="matrix(1, 0, 0, 1, -43, -81)" filter="url(#c)"><g transform="translate(43 81)" fill="#fff"><path d="M 445.26318359375 393.5 L 4.736882209777832 393.5 C 2.952058792114258 393.5 1.5 391.9242248535156 1.5 389.9873046875 L 1.5 5.01270580291748 C 1.5 3.075764656066895 2.952058792114258 1.5 4.736882209777832 1.5 L 445.26318359375 1.5 C 447.0479431152344 1.5 448.5 3.075764656066895 448.5 5.01270580291748 L 448.5 389.9873046875 C 448.5 391.9242248535156 447.0479431152344 393.5 445.26318359375 393.5 Z" stroke="none"/><path d="M 4.73681640625 3 C 3.77911376953125 3 3 3.90289306640625 3 5.0126953125 L 3 389.9873046875 C 3 391.0971069335938 3.77911376953125 392 4.73681640625 392 L 445.26318359375 392 C 446.2208862304688 392 447 391.0971069335938 447 389.9873046875 L 447 5.0126953125 C 447 3.90289306640625 446.2208862304688 3 445.26318359375 3 L 4.73681640625 3 M 4.73681640625 0 L 445.26318359375 0 C 447.8792419433594 0 450 2.244232177734375 450 5.0126953125 L 450 389.9873046875 C 450 392.7557067871094 447.8792419433594 395 445.26318359375 395 L 4.73681640625 395 C 2.120758056640625 395 0 392.7557067871094 0 389.9873046875 L 0 5.0126953125 C 0 2.244232177734375 2.120758056640625 0 4.73681640625 0 Z" stroke="none" fill="#3be69e"/></g></g><text transform="translate(180 190)" fill="#141a34" font-size="20" font-family="Inter-Bold, Inter" font-weight="700" letter-spacing="0.005em"><tspan x="0" y="0">Success!</tspan></text><text transform="translate(82 209)" fill="#141a34" font-size="16" font-family="Inter-Regular, Inter"><tspan x="21.807" y="16">Roberto Lucero has been added </tspan><tspan x="30.67" y="41">as a Designer to the Whip Mix</tspan><tspan x="40.807" y="66">Full Website Design Project</tspan></text><g transform="translate(410 30)"><line x1="10" y2="10" fill="none" stroke="#cccdd3" stroke-linecap="round" stroke-width="1.5"/><line x2="10" y2="10" fill="none" stroke="#cccdd3" stroke-linecap="round" stroke-width="1.5"/></g><g transform="translate(198 323)"><text transform="translate(0 14)" fill="#989ba6" font-size="14" font-family="Inter-SemiBold, Inter" font-weight="600" letter-spacing="-0.004em"><tspan x="0" y="0">Go Back</tspan></text></g><g transform="translate(186 61)"><g fill="none" stroke="#3be69e" stroke-width="3"><rect width="80" height="80" rx="40" stroke="none"/><rect x="1.5" y="1.5" width="77" height="77" rx="38.5" fill="none"/></g><path d="M4265.718,19219.264l9.54,10.5,15.475-26.043" transform="translate(-4238.226 -19176.738)" fill="none" stroke="#3be69e" stroke-linecap="round" stroke-linejoin="round" stroke-width="3"/></g></g><g transform="translate(1135 951)"><g transform="translate(0 18)"><circle cx="5.5" cy="5.5" r="5.5" fill="#ac8dff"/><path d="M4268.189,19207.594v-3.184" transform="translate(-4262.689 -19199.23)" fill="#22b3ff" stroke="#fff" stroke-linecap="round" stroke-linejoin="round" stroke-width="1.25"/><path d="M4268.189,19204.41v.027" transform="translate(-4262.689 -19201.736)" fill="#22b3ff" stroke="#fff" stroke-linecap="round" stroke-linejoin="round" stroke-width="1.25"/></g><g transform="translate(-1274 -632)"><g transform="translate(-4.051 1)"><g transform="matrix(1, 0, 0, 1, 125.05, -320)" filter="url(#e)"><path d="M-6052.5-13688h110a2.5,2.5,0,0,1,2.5,2.5v43a2.5,2.5,0,0,1-2.5,2.5h-110a2.5,2.5,0,0,1-2.5-2.5v-43A2.5,2.5,0,0,1-6052.5-13688Z" transform="translate(7227.95 14639)" fill="#31374d"/></g><g transform="translate(1591.959 386.313) rotate(90)"><g clip-path="url(#g)"><path d="M298.67,263.58h-62.6a2,2,0,0,0-2,2v26.308a2,2,0,0,0,2,2h26.14a2,2,0,0,1,1.527.708l3.175,3.754a1,1,0,0,0,1.527,0l3.175-3.754a2,2,0,0,1,1.527-.708H298.67a2,2,0,0,0,2-2V265.58A2,2,0,0,0,298.67,263.58Z" fill="#31374d"/></g></g></g><text transform="translate(1301.05 638)" fill="#f7f8f8" font-size="8" font-family="Inter-SemiBold, Inter" font-weight="600" letter-spacing="-0.004em"><tspan x="7.499" y="8">Check this box to give </tspan><tspan x="4.427" y="20">your collaborators tools </tspan><tspan x="8.35" y="32">to bold, italicizes, etc. </tspan></text></g></g><g transform="translate(1135 108)"><g transform="matrix(1, 0, 0, 1, -1153, -108)" filter="url(#h)"><g transform="translate(1153 108)" fill="#fff"><path d="M 200 83.75 L 5 83.75 C 2.932236909866333 83.75 1.25 82.06776428222656 1.25 80 L 1.25 5 C 1.25 2.932236909866333 2.932236909866333 1.25 5 1.25 L 200 1.25 C 202.0677642822266 1.25 203.75 2.932236909866333 203.75 5 L 203.75 80 C 203.75 82.06776428222656 202.0677642822266 83.75 200 83.75 Z" stroke="none"/><path d="M 5 2.5 C 3.621505737304688 2.5 2.5 3.621498107910156 2.5 5 L 2.5 80 C 2.5 81.37850189208984 3.621505737304688 82.5 5 82.5 L 200 82.5 C 201.3784942626953 82.5 202.5 81.37850189208984 202.5 80 L 202.5 5 C 202.5 3.621498107910156 201.3784942626953 2.5 200 2.5 L 5 2.5 M 5 0 L 200 0 C 202.7614135742188 0 205 2.23858642578125 205 5 L 205 80 C 205 82.76141357421875 202.7614135742188 85 200 85 L 5 85 C 2.238555908203125 85 0 82.76141357421875 0 80 L 0 5 C 0 2.23858642578125 2.238555908203125 0 5 0 Z" stroke="none" fill="#3be69e"/></g></g><g transform="translate(7 -2)"><text transform="translate(39 42)" fill="#65697a" font-size="10" font-family="Inter-Medium, Inter" font-weight="500" letter-spacing="-0.004em"><tspan x="0" y="10">This is descriptive text to </tspan><tspan x="0" y="23">provide more information </tspan></text><g transform="translate(11 19)"><text transform="translate(29 15)" fill="#31374d" font-size="12" font-family="Inter-Bold, Inter" font-weight="700" letter-spacing="-0.004em"><tspan x="0" y="0">Success Message</tspan></text><g fill="none" stroke="#3be69e" stroke-width="1.25"><rect width="20" height="20" rx="10" stroke="none"/><rect x="0.625" y="0.625" width="18.75" height="18.75" rx="9.375" fill="none"/></g><path d="M4265.718,19207.742l2.471,2.721,4.009-6.746" transform="translate(-4258.773 -19196.904)" fill="none" stroke="#3be69e" stroke-linecap="round" stroke-linejoin="round" stroke-width="1.25"/></g></g><g transform="translate(180.5 14.5)"><line x1="10" y2="10" fill="none" stroke="#cccdd3" stroke-linecap="round" stroke-width="1.5"/><line x2="10" y2="10" fill="none" stroke="#cccdd3" stroke-linecap="round" stroke-width="1.5"/></g></g><g transform="translate(1413 108)"><g transform="matrix(1, 0, 0, 1, -1431, -108)" filter="url(#j)"><g transform="translate(1431 108)" fill="#fff" stroke="#22b3ff" stroke-width="3"><rect width="205" height="85" rx="5" stroke="none"/><rect x="1.5" y="1.5" width="202" height="82" rx="3.5" fill="none"/></g></g><g transform="translate(7 -2)"><text transform="translate(39 42)" fill="#65697a" font-size="10" font-family="Inter-Medium, Inter" font-weight="500" letter-spacing="-0.004em"><tspan x="0" y="10">This is descriptive text to </tspan><tspan x="0" y="23">provide more information </tspan></text><g transform="translate(11 19)"><text transform="translate(29 15)" fill="#31374d" font-size="12" font-family="Inter-Bold, Inter" font-weight="700" letter-spacing="-0.004em"><tspan x="0" y="0">Info Message</tspan></text><g fill="none" stroke="#22b3ff" stroke-width="1.25"><rect width="20" height="20" rx="10" stroke="none"/><rect x="0.625" y="0.625" width="18.75" height="18.75" rx="9.375" fill="none"/></g><path d="M4268.189,19211.3v-6.887" transform="translate(-4258.189 -19196.514)" fill="none" stroke="#22b3ff" stroke-linecap="round" stroke-linejoin="round" stroke-width="1.25"/><path d="M4268.189,19204.41v.027" transform="translate(-4258.189 -19199.543)" fill="none" stroke="#22b3ff" stroke-linecap="round" stroke-linejoin="round" stroke-width="1.25"/></g></g><g transform="translate(180.5 14.5)"><line x1="10" y2="10" fill="none" stroke="#cccdd3" stroke-linecap="round" stroke-width="1.5"/><line x2="10" y2="10" fill="none" stroke="#cccdd3" stroke-linecap="round" stroke-width="1.5"/></g></g><g transform="translate(1413 294)"><g transform="matrix(1, 0, 0, 1, -1431, -294)" filter="url(#l)"><g transform="translate(1432 296)" fill="#fff"><path d="M 200 83.5 L 5 83.5 C 3.070105314254761 83.5 1.5 81.92989349365234 1.5 80 L 1.5 5 C 1.5 3.070105314254761 3.070105314254761 1.5 5 1.5 L 200 1.5 C 201.9299011230469 1.5 203.5 3.070105314254761 203.5 5 L 203.5 80 C 203.5 81.92989349365234 201.9299011230469 83.5 200 83.5 Z" stroke="none"/><path d="M 5 3 C 3.897201538085938 3 3 3.897193908691406 3 5 L 3 80 C 3 81.10280609130859 3.897201538085938 82 5 82 L 200 82 C 201.1027984619141 82 202 81.10280609130859 202 80 L 202 5 C 202 3.897193908691406 201.1027984619141 3 200 3 L 5 3 M 5 0 L 200 0 C 202.7614135742188 0 205 2.23858642578125 205 5 L 205 80 C 205 82.76141357421875 202.7614135742188 85 200 85 L 5 85 C 2.238555908203125 85 0 82.76141357421875 0 80 L 0 5 C 0 2.23858642578125 2.238555908203125 0 5 0 Z" stroke="none" fill="#ffdd4e"/></g></g><g transform="translate(8)"><text transform="translate(39 42)" fill="#65697a" font-size="10" font-family="Inter-Medium, Inter" font-weight="500" letter-spacing="-0.004em"><tspan x="0" y="10">This is descriptive text to </tspan><tspan x="0" y="23">provide more information </tspan></text><g transform="translate(11 19)"><text transform="translate(29 15)" fill="#31374d" font-size="12" font-family="Inter-Bold, Inter" font-weight="700" letter-spacing="-0.004em"><tspan x="0" y="0">Warning Message</tspan></text><path d="M4268.189,19211.3v-6.887" transform="translate(4278.189 19216.164) rotate(180)" fill="none" stroke="#ffdd4e" stroke-linecap="round" stroke-linejoin="round" stroke-width="1.25"/><path d="M4268.189,19204.41v.027" transform="translate(4278.189 19219.193) rotate(180)" fill="none" stroke="#ffdd4e" stroke-linecap="round" stroke-linejoin="round" stroke-width="1.25"/><g transform="translate(-4 -4)" fill="none"><path d="M11.437,4.21a3,3,0,0,1,5.125,0l8.662,14.23A3,3,0,0,1,22.662,23H5.338a3,3,0,0,1-2.563-4.56Z" stroke="none"/><path d="M 14 4.019813537597656 C 13.37497997283936 4.019813537597656 12.83012008666992 4.326013565063477 12.50514984130859 4.859903335571289 L 3.843299865722656 19.0900936126709 C 3.509929656982422 19.63776397705078 3.498439788818359 20.29843330383301 3.812559127807617 20.85737228393555 C 4.126680374145508 21.41630363464355 4.697000503540039 21.75000381469727 5.338150024414062 21.75000381469727 L 22.66184997558594 21.75000381469727 C 23.30299949645996 21.75000381469727 23.87331962585449 21.41630363464355 24.18742942810059 20.85737228393555 C 24.50155067443848 20.29843330383301 24.49006080627441 19.63777351379395 24.15669059753418 19.0900936126709 L 15.49485015869141 4.859912872314453 C 15.16987037658691 4.326013565063477 14.62502002716064 4.019813537597656 14 4.019813537597656 M 14 2.769815444946289 C 14.98909282684326 2.769815444946289 15.97818470001221 3.249868392944336 16.56259918212891 4.209972381591797 L 25.22443962097168 18.44016265869141 C 26.44133949279785 20.4393424987793 25.00226974487305 23.00000381469727 22.66184997558594 23.00000381469727 L 5.338150024414062 23.00000381469727 C 2.997730255126953 23.00000381469727 1.558660507202148 20.4393424987793 2.775550842285156 18.44016265869141 L 11.43740081787109 4.209972381591797 C 12.02181529998779 3.249868392944336 13.01090717315674 2.769815444946289 14 2.769815444946289 Z" stroke="none" fill="#ffdd4e"/></g></g></g></g><g transform="translate(1135 296)"><g transform="matrix(1, 0, 0, 1, -1153, -296)" filter="url(#n)"><g transform="translate(1153 296)" fill="#fff"><path d="M 200 83.5 L 5 83.5 C 3.070105314254761 83.5 1.5 81.92989349365234 1.5 80 L 1.5 5 C 1.5 3.070105314254761 3.070105314254761 1.5 5 1.5 L 200 1.5 C 201.9299011230469 1.5 203.5 3.070105314254761 203.5 5 L 203.5 80 C 203.5 81.92989349365234 201.9299011230469 83.5 200 83.5 Z" stroke="none"/><path d="M 5 3 C 3.897201538085938 3 3 3.897193908691406 3 5 L 3 80 C 3 81.10280609130859 3.897201538085938 82 5 82 L 200 82 C 201.1027984619141 82 202 81.10280609130859 202 80 L 202 5 C 202 3.897193908691406 201.1027984619141 3 200 3 L 5 3 M 5 0 L 200 0 C 202.7614135742188 0 205 2.23858642578125 205 5 L 205 80 C 205 82.76141357421875 202.7614135742188 85 200 85 L 5 85 C 2.238555908203125 85 0 82.76141357421875 0 80 L 0 5 C 0 2.23858642578125 2.238555908203125 0 5 0 Z" stroke="none" fill="#d90000"/></g></g><g transform="translate(7 -2)"><text transform="translate(39 42)" fill="#65697a" font-size="10" font-family="Inter-Medium, Inter" font-weight="500" letter-spacing="-0.004em"><tspan x="0" y="10">This is descriptive text to </tspan><tspan x="0" y="23">provide more information </tspan></text><g transform="translate(11 19)"><text transform="translate(29 15)" fill="#31374d" font-size="12" font-family="Inter-Bold, Inter" font-weight="700" letter-spacing="-0.004em"><tspan x="0" y="0">Error Message</tspan></text><g transform="translate(20 20) rotate(180)"><g fill="none" stroke="#d90000" stroke-width="1.25"><rect width="20" height="20" rx="10" stroke="none"/><rect x="0.625" y="0.625" width="18.75" height="18.75" rx="9.375" fill="none"/></g><path d="M4268.189,19211.3v-6.887" transform="translate(-4258.189 -19196.514)" fill="none" stroke="#d90000" stroke-linecap="round" stroke-linejoin="round" stroke-width="1.25"/><path d="M4268.189,19204.41v.027" transform="translate(-4258.189 -19199.543)" fill="none" stroke="#d90000" stroke-linecap="round" stroke-linejoin="round" stroke-width="1.25"/></g></g></g><g transform="translate(180.5 14.5)"><line x1="10" y2="10" fill="none" stroke="#cccdd3" stroke-linecap="round" stroke-width="1.5"/><line x2="10" y2="10" fill="none" stroke="#cccdd3" stroke-linecap="round" stroke-width="1.5"/></g></g><text transform="translate(1138 88)" fill="#65697a" font-size="12" font-family="Inter-Regular, Inter"><tspan x="0" y="0">Success</tspan></text><text transform="translate(1416 88)" fill="#65697a" font-size="12" font-family="Inter-Regular, Inter"><tspan x="0" y="0">Info</tspan></text><text transform="translate(1414 276)" fill="#65697a" font-size="12" font-family="Inter-Regular, Inter"><tspan x="0" y="0">Warning</tspan></text><text transform="translate(1135 276)" fill="#65697a" font-size="12" font-family="Inter-Regular, Inter"><tspan x="0" y="0">Error</tspan></text><g transform="translate(546 81)"><g transform="matrix(1, 0, 0, 1, -564, -81)" filter="url(#p)"><g transform="translate(564 81)" fill="#fff"><path d="M 445.26318359375 393.5 L 4.736882209777832 393.5 C 2.952058792114258 393.5 1.5 391.9242248535156 1.5 389.9873046875 L 1.5 5.01270580291748 C 1.5 3.075764656066895 2.952058792114258 1.5 4.736882209777832 1.5 L 445.26318359375 1.5 C 447.0479431152344 1.5 448.5 3.075764656066895 448.5 5.01270580291748 L 448.5 389.9873046875 C 448.5 391.9242248535156 447.0479431152344 393.5 445.26318359375 393.5 Z" stroke="none"/><path d="M 4.73681640625 3 C 3.77911376953125 3 3 3.90289306640625 3 5.0126953125 L 3 389.9873046875 C 3 391.0971069335938 3.77911376953125 392 4.73681640625 392 L 445.26318359375 392 C 446.2208862304688 392 447 391.0971069335938 447 389.9873046875 L 447 5.0126953125 C 447 3.90289306640625 446.2208862304688 3 445.26318359375 3 L 4.73681640625 3 M 4.73681640625 0 L 445.26318359375 0 C 447.8792419433594 0 450 2.244232177734375 450 5.0126953125 L 450 389.9873046875 C 450 392.7557067871094 447.8792419433594 395 445.26318359375 395 L 4.73681640625 395 C 2.120758056640625 395 0 392.7557067871094 0 389.9873046875 L 0 5.0126953125 C 0 2.244232177734375 2.120758056640625 0 4.73681640625 0 Z" stroke="none" fill="#d90000"/></g></g><g transform="translate(410 30)"><line x1="10" y2="10" fill="none" stroke="#cccdd3" stroke-linecap="round" stroke-width="1.5"/><line x2="10" y2="10" fill="none" stroke="#cccdd3" stroke-linecap="round" stroke-width="1.5"/></g><text transform="translate(179.5 191)" fill="#141a34" font-size="20" font-family="Inter-Bold, Inter" font-weight="700" letter-spacing="0.005em"><tspan x="0" y="0">Whoops</tspan></text><text transform="translate(81.5 210)" fill="#141a34" font-size="16" font-family="Inter-Regular, Inter"><tspan x="8.625" y="16">That email doesn’t exist for Roberto </tspan><tspan x="10.466" y="40">Lucero. Please go back and enter a </tspan><tspan x="68.977" y="64">valid email address.</tspan></text><g transform="translate(198.5 323)"><text transform="translate(0 14)" fill="#989ba6" font-size="14" font-family="Inter-SemiBold, Inter" font-weight="600" letter-spacing="-0.004em"><tspan x="0" y="0">Go Back</tspan></text></g><g transform="translate(185 60)"><g fill="none" stroke="#d90000" stroke-width="3"><rect width="80" height="80" rx="40" stroke="none"/><rect x="1.5" y="1.5" width="77" height="77" rx="38.5" fill="none"/></g><g transform="translate(28.506 28.506)"><line x2="22.987" y2="22.987" fill="none" stroke="#d90000" stroke-linecap="round" stroke-width="3"/><line x1="22.987" y2="22.987" fill="none" stroke="#d90000" stroke-linecap="round" stroke-width="3"/></g></g></g><g transform="translate(-115 -60)"><path d="M4.737,0H445.263A4.881,4.881,0,0,1,450,5.013V389.987A4.881,4.881,0,0,1,445.263,395H4.737A4.881,4.881,0,0,1,0,389.987V5.013A4.881,4.881,0,0,1,4.737,0Z" transform="translate(140 679)" fill="#fff"/><path d="M4.737,3A1.892,1.892,0,0,0,3,5.013V389.987A1.892,1.892,0,0,0,4.737,392H445.263A1.892,1.892,0,0,0,447,389.987V5.013A1.892,1.892,0,0,0,445.263,3H4.737m0-3H445.263A4.881,4.881,0,0,1,450,5.013V389.987A4.881,4.881,0,0,1,445.263,395H4.737A4.881,4.881,0,0,1,0,389.987V5.013A4.881,4.881,0,0,1,4.737,0Z" transform="translate(140 679)" fill="#f86145"/><g transform="translate(552 711)"><line x1="10" y2="10" fill="none" stroke="#cccdd3" stroke-linecap="round" stroke-width="1.5"/><line x2="10" y2="10" fill="none" stroke="#cccdd3" stroke-linecap="round" stroke-width="1.5"/></g><text transform="translate(238 909)" fill="#141a34" font-size="20" font-family="Inter-Bold, Inter" font-weight="700" letter-spacing="0.005em"><tspan x="0" y="0">Ready to send your email?</tspan></text><text transform="translate(249 918)" fill="#141a34" font-size="16" font-family="Inter-Regular, Inter"><tspan x="1.807" y="16">This request email will be send </tspan><tspan x="19.389" y="40">to </tspan><tspan y="40" font-family="Inter-SemiBold, Inter" font-weight="600" letter-spacing="-0.005em">6 contacts</tspan><tspan y="40" xml:space="preserve"> immediately </tspan></text><g transform="translate(300 978)"><rect width="134" height="27" rx="5" fill="#f86145"/><text transform="translate(67 19)" fill="#fff" font-size="14" font-family="Inter-Bold, Inter" font-weight="700" letter-spacing="-0.004em"><tspan x="-47.243" y="0">Send Request</tspan></text></g><g transform="translate(339 1024)"><text transform="translate(0 14)" fill="#989ba6" font-size="14" font-family="Inter-SemiBold, Inter" font-weight="600" letter-spacing="-0.004em"><tspan x="0" y="0">Go Back</tspan></text></g><circle cx="78.5" cy="78.5" r="78.5" transform="translate(292 712)" fill="#ffd8d1"/><g transform="translate(0 -2)"><path d="M3,3V55H84V3H3M0,0H87V55a3,3,0,0,1-3,3H3a3,3,0,0,1-3-3Z" transform="translate(327 783)" fill="#989ba6"/><g transform="translate(-1101 502)" clip-path="url(#r)"><path d="M49.464,3.718a4.618,4.618,0,0,1,7.071,0L97.464,49.756c3.15,3.543.919,9.6-3.536,9.6H12.071c-4.455,0-6.685-6.058-3.536-9.6Z" transform="translate(1418.939 232)" fill="#f7f8f8"/><path d="M53,4.071a2.733,2.733,0,0,0-2.041.976L10.03,51.085a4.1,4.1,0,0,0-.592,4.377,2.962,2.962,0,0,0,2.633,1.895H93.929a2.962,2.962,0,0,0,2.633-1.895,4.1,4.1,0,0,0-.592-4.377L55.041,5.047A2.733,2.733,0,0,0,53,4.071m0-2a4.719,4.719,0,0,1,3.536,1.647L97.464,49.756c3.15,3.543.919,9.6-3.536,9.6H12.071c-4.455,0-6.685-6.058-3.536-9.6L49.464,3.718A4.719,4.719,0,0,1,53,2.071Z" transform="translate(1418.939 232)" fill="#31374d"/></g><rect width="80" height="57" transform="translate(331 759)" fill="#141a34"/><g transform="translate(355.034 770)"><rect width="14.878" height="7.331" transform="translate(15.987 0.001)" fill="#fab2ea"/><path d="M193.58,399a7.884,7.884,0,0,0,7.863,7.324h7V399Z" transform="translate(-193.559 -390.568)" fill="#f86145"/><path d="M208.439,350.65h-7a7.883,7.883,0,0,0-7.863,7.323h14.859Z" transform="translate(-193.559 -350.65)" fill="#fab2ea"/><path d="M300,406.4a7.884,7.884,0,0,0-7.863-7.324H285.14V406.4Z" transform="translate(-269.153 -390.634)" fill="#f86145"/><path d="M285.14,454.794h6.994A7.883,7.883,0,0,0,300,447.471H285.14Z" transform="translate(-269.153 -430.587)" fill="#3e67ff"/><rect width="14.878" height="7.331" transform="translate(0 16.876)" fill="#3e67ff"/></g><path d="M3495.161-8692l86.932,57.872h-86.932Z" transform="translate(-3168.161 9475)" fill="#fff"/><path d="M3497.161-8688.266v52.138h78.319l-78.319-52.138m-2-3.734,86.932,57.872h-86.932Z" transform="translate(-3168.161 9475)" fill="#31374d"/><path d="M0,54.54l86.859-58H0Z" transform="translate(414 837.54) rotate(180)" fill="#fff"/><path d="M2,50.8,80.262-1.46H2V50.8M0,54.54v-58H86.859Z" transform="translate(414 837.54) rotate(180)" fill="#31374d"/></g></g><g transform="translate(-145 -60)"><path d="M4.737,0H445.263A4.881,4.881,0,0,1,450,5.013V389.987A4.881,4.881,0,0,1,445.263,395H4.737A4.881,4.881,0,0,1,0,389.987V5.013A4.881,4.881,0,0,1,4.737,0Z" transform="translate(691 679)" fill="#fff"/><path d="M4.737,3A1.892,1.892,0,0,0,3,5.013V389.987A1.892,1.892,0,0,0,4.737,392H445.263A1.892,1.892,0,0,0,447,389.987V5.013A1.892,1.892,0,0,0,445.263,3H4.737m0-3H445.263A4.881,4.881,0,0,1,450,5.013V389.987A4.881,4.881,0,0,1,445.263,395H4.737A4.881,4.881,0,0,1,0,389.987V5.013A4.881,4.881,0,0,1,4.737,0Z" transform="translate(691 679)" fill="#3e67ff"/><g transform="translate(1103 711)"><line x1="10" y2="10" fill="none" stroke="#cccdd3" stroke-linecap="round" stroke-width="1.5"/><line x2="10" y2="10" fill="none" stroke="#cccdd3" stroke-linecap="round" stroke-width="1.5"/></g><text transform="translate(823 909)" fill="#141a34" font-size="20" font-family="Inter-Bold, Inter" font-weight="700" letter-spacing="0.005em"><tspan x="0" y="0">Request Email Sent!</tspan></text><text transform="translate(800 918)" fill="#141a34" font-size="16" font-family="Inter-Regular, Inter"><tspan x="3.523" y="16">This request has been send to </tspan><tspan x="29.119" y="40">6 contacts successfully</tspan></text><g transform="translate(902 1002)"><text transform="translate(0 14)" fill="#989ba6" font-size="14" font-family="Inter-SemiBold, Inter" font-weight="600" letter-spacing="-0.004em"><tspan x="0" y="0">Undo</tspan></text></g><circle cx="78.5" cy="78.5" r="78.5" transform="translate(842 712)" fill="#e2f2fa"/><g transform="translate(-25.713 -4.646)"><circle cx="5" cy="5" r="5" transform="matrix(0.438, 0.899, -0.899, 0.438, 883.366, 834.326)" fill="#fab2ea"/><circle cx="3.5" cy="3.5" r="3.5" transform="matrix(0.438, 0.899, -0.899, 0.438, 885.509, 782.998)" fill="#3e67ff"/><circle cx="5" cy="5" r="5" transform="matrix(0.899, -0.438, 0.438, 0.899, 937.658, 832.532)" fill="#f86145"/><circle cx="3.5" cy="3.5" r="3.5" transform="matrix(0.899, -0.438, 0.438, 0.899, 883.897, 814.798)" fill="#f86145"/><circle cx="5" cy="5" r="5" transform="matrix(0.438, 0.899, -0.899, 0.438, 902.245, 787.121)" fill="#fab2ea"/><path d="M0,10.489a1,1,0,0,1-.826-.435,1,1,0,0,1,.26-1.39L13.286-.825a1,1,0,0,1,1.39.26,1,1,0,0,1-.26,1.39L.565,10.313A1,1,0,0,1,0,10.489Z" transform="translate(920.5 841.012)" fill="#31374d"/><path d="M0,15.377a1,1,0,0,1-.885-.534,1,1,0,0,1,.418-1.351L26.783-.884a1,1,0,0,1,1.351.418A1,1,0,0,1,27.716.884L.467,15.261A1,1,0,0,1,0,15.377Z" transform="translate(860.5 800.123)" fill="#31374d"/><path d="M0,17a1,1,0,0,1-.684-.27A1,1,0,0,1-.73,15.316l15-16A1,1,0,0,1,15.684-.73,1,1,0,0,1,15.73.684l-15,16A1,1,0,0,1,0,17Z" transform="matrix(0.966, 0.259, -0.259, 0.966, 896.826, 818.48)" fill="#31374d"/><path d="M0,21a1,1,0,0,1-.833-.445,1,1,0,0,1,.277-1.387l30-20a1,1,0,0,1,1.387.277A1,1,0,0,1,30.555.832l-30,20A1,1,0,0,1,0,21Z" transform="translate(896.5 828.5)" fill="#31374d"/><path d="M0,14a1,1,0,0,1-.862-.491,1,1,0,0,1,.352-1.37l22-13a1,1,0,0,1,1.37.352,1,1,0,0,1-.352,1.37l-22,13A1,1,0,0,1,0,14Z" transform="translate(856.5 821.5)" fill="#31374d"/><path d="M0,11.007a1,1,0,0,1-.845-.464,1,1,0,0,1,.308-1.38L15.221-.844a1,1,0,0,1,1.38.308,1,1,0,0,1-.308,1.38L.536,10.851A1,1,0,0,1,0,11.007Z" transform="translate(899.5 800.493)" fill="#31374d"/><g transform="matrix(0.966, 0.259, -0.259, 0.966, 240.615, -218.442)"><path d="M-2614.089,9501l89.572-35.574-22.126,73.991-13.342-7.913-27.245,6.123-1.315-22.609Z" transform="translate(3511 -8713.713)" fill="#fff"/><path d="M-2524.518,9464.426a1,1,0,0,1,.676.263,1,1,0,0,1,.282,1.023l-22.126,73.991a1,1,0,0,1-.594.646,1,1,0,0,1-.874-.071l-13-7.711-26.857,6.036a1,1,0,0,1-.821-.177,1,1,0,0,1-.4-.741l-1.283-22.057-25.059-13.751a1,1,0,0,1-.517-.938,1,1,0,0,1,.629-.868l89.572-35.574A1.012,1.012,0,0,1-2524.518,9464.426Zm-22.717,73.478,21.168-70.786-85.679,34.028,23.682,13a1,1,0,0,1,.517.819l1.247,21.433,26.1-5.864a.993.993,0,0,1,.729.115Z" transform="translate(3511 -8713.713)" fill="#31374d"/><path d="M-2587.625,9537v20.954l63.108-71.429Z" transform="translate(3511 -8734.809)" fill="#cccdd3"/><path d="M-2587.625,9558.95a1.014,1.014,0,0,1-.354-.064,1,1,0,0,1-.646-.936V9537a1,1,0,0,1,.375-.781l63.108-50.475a1,1,0,0,1,1.349.092,1,1,0,0,1,.025,1.352l-63.108,71.429A1,1,0,0,1-2587.625,9558.95Zm1-21.474v17.831l53.7-60.783Z" transform="translate(3511 -8734.809)" fill="#31374d"/></g></g></g><g transform="translate(1136 620)"><g transform="translate(11.292 52.189) rotate(90)"><g clip-path="url(#s)"><path d="M102.776,0H3.182A3.182,3.182,0,0,0,0,3.182V45.035a3.182,3.182,0,0,0,3.182,3.182H44.767A3.181,3.181,0,0,1,47.2,49.343l5.051,5.972a1.591,1.591,0,0,0,2.429,0l5.051-5.972a3.184,3.184,0,0,1,2.429-1.126h40.618a3.182,3.182,0,0,0,3.182-3.182V3.182A3.182,3.182,0,0,0,102.776,0Z" transform="translate(-39.167 -46.424)" fill="#7c4bff"/></g></g><g transform="matrix(1, 0, 0, 1, -1154, -620)" filter="url(#t)"><g transform="translate(1162.5 620)" fill="#ac8dff"><path d="M 222 132 L 2.5 132 C 1.672911763191223 132 1 131.3270874023438 1 130.5 L 1 2.5 C 1 1.672911763191223 1.672911763191223 1 2.5 1 L 222 1 C 222.8270874023438 1 223.5 1.672911763191223 223.5 2.5 L 223.5 130.5 C 223.5 131.3270874023438 222.8270874023438 132 222 132 Z" stroke="none"/><path d="M 2.5 2 C 2.224288940429688 2 2 2.224288940429688 2 2.5 L 2 130.5 C 2 130.7757110595703 2.224288940429688 131 2.5 131 L 222 131 C 222.2757110595703 131 222.5 130.7757110595703 222.5 130.5 L 222.5 2.5 C 222.5 2.224288940429688 222.2757110595703 2 222 2 L 2.5 2 M 2.5 0 L 222 0 C 223.3807067871094 0 224.5 1.119293212890625 224.5 2.5 L 224.5 130.5 C 224.5 131.8807067871094 223.3807067871094 133 222 133 L 2.5 133 C 1.119293212890625 133 0 131.8807067871094 0 130.5 L 0 2.5 C 0 1.119293212890625 1.119293212890625 0 2.5 0 Z" stroke="none" fill="#7c4bff"/></g></g><g transform="translate(190 107)"><text fill="#fff" font-size="11" font-family="Inter-SemiBold, Inter" font-weight="600"><tspan x="3.082" y="11">Next</tspan></text></g><g transform="translate(23.5 107)"><text fill="#fff" font-size="11" font-family="Inter-SemiBold, Inter" font-weight="600"><tspan x="0" y="11">Back</tspan></text></g><text transform="translate(23.5 82.745)" fill="#f7f8f8" font-size="11" font-family="Inter-Medium, Inter" font-weight="500" letter-spacing="-0.004em" text-decoration="underline"><tspan x="0" y="11">Action Link</tspan></text><text transform="translate(24 34)" fill="#fff" font-size="11" font-family="Inter-SemiBold, Inter" font-weight="600" letter-spacing="-0.004em"><tspan x="0" y="11">Onboarding messages will help </tspan><tspan x="0" y="26">users navigate through the </tspan><tspan x="0" y="41">SimpleStage UI for the first time</tspan></text><text transform="translate(24 15)" fill="#e5e6e9" font-size="11" font-family="Inter-Medium, Inter" font-weight="500" letter-spacing="-0.004em"><tspan x="0" y="11">1 of 6</tspan></text><g transform="translate(203 15)"><line x1="10" y2="10" fill="none" stroke="#cccdd3" stroke-linecap="round" stroke-width="1.5"/><line x2="10" y2="10" fill="none" stroke="#cccdd3" stroke-linecap="round" stroke-width="1.5"/></g></g></g></g></svg>