<svg width="736" height="153" viewBox="0 0 736 153" fill="none" xmlns="http://www.w3.org/2000/svg">
<path d="M517.265 69.406C517.265 107.195 486.631 137.83 448.842 137.83C411.052 137.83 380.418 107.195 380.418 69.406C380.418 31.6167 411.052 0.982422 448.842 0.982422C486.631 0.982422 517.265 31.6167 517.265 69.406Z" stroke="#E3E2E1"/>
<path d="M643.113 69.406C643.113 107.195 612.479 137.83 574.689 137.83C536.9 137.83 506.266 107.195 506.266 69.406C506.266 31.6167 536.9 0.982422 574.689 0.982422C612.479 0.982422 643.113 31.6167 643.113 69.406Z" stroke="#E3E2E1"/>
<path d="M391.156 69.406C391.156 107.195 360.521 137.83 322.732 137.83C284.943 137.83 254.309 107.195 254.309 69.406C254.309 31.6167 284.943 0.982422 322.732 0.982422C360.521 0.982422 391.156 31.6167 391.156 69.406Z" stroke="#E3E2E1"/>
<path d="M264.309 69.406C264.309 107.195 233.674 137.83 195.885 137.83C158.096 137.83 127.461 107.195 127.461 69.406C127.461 31.6167 158.096 0.982422 195.885 0.982422C233.674 0.982422 264.309 31.6167 264.309 69.406Z" stroke="#E3E2E1"/>
<path d="M137.659 69.406C137.659 107.195 107.024 137.83 69.2351 137.83C31.4458 137.83 0.811523 107.195 0.811523 69.406C0.811523 31.6167 31.4458 0.982422 69.2351 0.982422C107.024 0.982422 137.659 31.6167 137.659 69.406Z" stroke="#E3E2E1"/>
<rect x="0.311523" y="47.2969" width="732.442" height="104.789" fill="white"/>
<path d="M448.409 138.778C486.474 138.778 517.332 107.92 517.332 69.8542C517.332 31.7888 486.474 0.930664 448.409 0.930664" stroke="#E3E2E1"/>
<path d="M379.838 69.5C379.643 69.3047 379.327 69.3047 379.131 69.5L375.949 72.6819C375.754 72.8772 375.754 73.1938 375.949 73.389C376.145 73.5843 376.461 73.5843 376.656 73.389L379.485 70.5606L382.313 73.389C382.509 73.5843 382.825 73.5843 383.02 73.389C383.216 73.1938 383.216 72.8772 383.02 72.6819L379.838 69.5ZM448.408 138.277C410.619 138.277 379.985 107.643 379.985 69.8535L378.985 69.8535C378.985 108.195 410.067 139.277 448.408 139.277L448.408 138.277ZM516.832 69.8535C516.832 107.643 486.198 138.277 448.408 138.277L448.408 139.277C486.75 139.277 517.832 108.195 517.832 69.8535L516.832 69.8535Z" fill="#E3E2E1"/>
<path d="M22.1292 50.5762C24.7883 50.5762 26.365 48.9313 26.365 46.204C26.365 43.4853 24.7883 41.8489 22.1889 41.8489H19.1718V50.5762H22.1292ZM20.7528 49.2083V43.2168H22.0994C23.8721 43.2168 24.7968 44.2054 24.7968 46.204C24.7968 48.2111 23.8721 49.2083 22.0525 49.2083H20.7528ZM29.6881 41.8489H28.1071V50.5762H29.6881V41.8489ZM36.383 44.248H37.9043C37.8745 42.7736 36.6174 41.7296 34.7594 41.7296C32.927 41.7296 31.5506 42.7608 31.5549 44.3034C31.5549 45.5563 32.4455 46.2765 33.8816 46.6472L34.8745 46.9029C35.8162 47.1415 36.4384 47.4355 36.4427 48.1131C36.4384 48.8588 35.731 49.3574 34.6998 49.3574C33.7111 49.3574 32.9441 48.9142 32.8802 47.998H31.3248C31.3887 49.7324 32.6799 50.7083 34.7126 50.7083C36.8049 50.7083 38.0194 49.6642 38.0236 48.1259C38.0194 46.6131 36.7708 45.9228 35.4583 45.6117L34.6401 45.4071C33.9242 45.2367 33.1486 44.9341 33.1572 44.2054C33.1614 43.5492 33.7495 43.0676 34.7381 43.0676C35.6799 43.0676 36.302 43.5066 36.383 44.248ZM47.1433 44.7935C46.8748 42.8546 45.3833 41.7296 43.4486 41.7296C41.1688 41.7296 39.4515 43.3915 39.4515 46.2125C39.4515 49.0293 41.1475 50.6955 43.4486 50.6955C45.5239 50.6955 46.9004 49.3532 47.1433 47.687L45.5495 47.6784C45.3492 48.7012 44.514 49.2765 43.47 49.2765C42.0552 49.2765 41.041 48.2154 41.041 46.2125C41.041 44.2438 42.0467 43.1486 43.4742 43.1486C44.5353 43.1486 45.3663 43.7495 45.5495 44.7935H47.1433ZM56.6293 46.2125C56.6293 43.3915 54.9078 41.7296 52.6194 41.7296C50.3268 41.7296 48.6095 43.3915 48.6095 46.2125C48.6095 49.0293 50.3268 50.6955 52.6194 50.6955C54.9078 50.6955 56.6293 49.0336 56.6293 46.2125ZM55.0399 46.2125C55.0399 48.1983 54.0427 49.2765 52.6194 49.2765C51.2004 49.2765 50.1989 48.1983 50.1989 46.2125C50.1989 44.2267 51.2004 43.1486 52.6194 43.1486C54.0427 43.1486 55.0399 44.2267 55.0399 46.2125ZM59.0629 41.8489H57.3285L60.401 50.5762H62.3527L65.4294 41.8489H63.6907L61.4237 48.7182H61.3342L59.0629 41.8489ZM66.8189 50.5762H72.5291V49.2509H68.3998V46.8688H72.201V45.5435H68.3998V43.1742H72.495V41.8489H66.8189V50.5762ZM74.3479 50.5762H75.9289V47.3801H77.5397L79.2528 50.5762H81.017L79.1292 47.1159C80.1562 46.7026 80.6974 45.8248 80.6974 44.6401C80.6974 42.9739 79.6235 41.8489 77.6207 41.8489H74.3479V50.5762ZM75.9289 46.0676V43.1699H77.3778C78.5582 43.1699 79.0866 43.7111 79.0866 44.6401C79.0866 45.5691 78.5582 46.0676 77.3863 46.0676H75.9289Z" fill="#1E1D1D"/>
<path d="M24.1411 67.187H25.1638C25.1169 65.8702 23.9024 64.8858 22.2149 64.8858C20.5445 64.8858 19.232 65.8574 19.232 67.3233C19.232 68.4995 20.0843 69.1983 21.4479 69.5904L22.5218 69.8972C23.4422 70.1529 24.2604 70.4767 24.2604 71.3461C24.2604 72.3006 23.3399 72.9313 22.1297 72.9313C21.0899 72.9313 20.1695 72.4711 20.0843 71.4824H18.9933C19.0956 72.9142 20.2547 73.8858 22.1297 73.8858C24.1411 73.8858 25.2831 72.7779 25.2831 71.3631C25.2831 69.7267 23.732 69.1983 22.8286 68.9597L21.9422 68.7211C21.2945 68.5506 20.2547 68.2097 20.2547 67.2722C20.2547 66.437 21.0218 65.8233 22.1808 65.8233C23.2377 65.8233 24.0388 66.3262 24.1411 67.187ZM30.7693 71.0563C30.7693 72.2836 29.8318 72.8461 29.0818 72.8461C28.2466 72.8461 27.65 72.2324 27.65 71.2779V67.187H26.6443V71.3461C26.6443 73.0165 27.5307 73.8176 28.758 73.8176C29.7466 73.8176 30.3943 73.2892 30.7011 72.6245H30.7693V73.7324H31.775V67.187H30.7693V71.0563ZM33.377 73.7324H34.3827V69.5904C34.3827 68.704 35.0815 68.0563 36.0361 68.0563C36.3045 68.0563 36.5815 68.1074 36.6497 68.1245V67.1017C36.5346 67.0932 36.2704 67.0847 36.1213 67.0847C35.3372 67.0847 34.6554 67.5279 34.4168 68.1756H34.3486V67.187H33.377V73.7324ZM43.1533 67.187H42.0624L40.2556 72.4029H40.1874L38.3806 67.187H37.2897L39.7101 73.7324H40.7329L43.1533 67.187ZM46.7507 73.8688C48.0802 73.8688 49.0518 73.204 49.3586 72.2154L48.387 71.9426C48.1314 72.6245 47.539 72.9654 46.7507 72.9654C45.5703 72.9654 44.7564 72.2026 44.7095 70.8006H49.4609V70.3745C49.4609 67.937 48.012 67.1017 46.6484 67.1017C44.8757 67.1017 43.6995 68.4995 43.6995 70.5108C43.6995 72.5222 44.8586 73.8688 46.7507 73.8688ZM44.7095 69.9313C44.7777 68.9128 45.4978 68.0051 46.6484 68.0051C47.7393 68.0051 48.4382 68.8233 48.4382 69.9313H44.7095ZM51.1992 76.187C52.1069 76.187 52.7461 75.7054 53.1254 74.687L55.9123 67.204L54.8129 67.187L53.0061 72.4029H52.9379L51.1311 67.187H50.0401L52.4606 73.7665L52.2731 74.2779C51.9066 75.275 51.4549 75.3688 50.722 75.1813L50.4663 76.0676C50.5686 76.1188 50.8583 76.187 51.1992 76.187ZM25.0956 87.0051V92.6983C25.0956 93.9767 24.2178 94.8972 22.7604 94.8972C21.303 94.8972 20.4252 93.9767 20.4252 92.6983V87.0051H19.3683V92.7836C19.3683 94.5733 20.7064 95.8858 22.7604 95.8858C24.8144 95.8858 26.1524 94.5733 26.1524 92.7836V87.0051H25.0956ZM32.5229 90.6529C32.2075 89.7239 31.5001 89.1017 30.2047 89.1017C28.824 89.1017 27.8013 89.8858 27.8013 90.9938C27.8013 91.8972 28.3382 92.5023 29.5399 92.7836L30.6308 93.0392C31.2913 93.1926 31.6024 93.508 31.6024 93.9597C31.6024 94.5222 31.0058 94.9824 30.0683 94.9824C29.2459 94.9824 28.7303 94.6287 28.5513 93.9256L27.5967 94.1642C27.8311 95.2765 28.7473 95.8688 30.0854 95.8688C31.6067 95.8688 32.6422 95.0378 32.6422 93.9086C32.6422 92.9966 32.0712 92.4213 30.9036 92.1358L29.932 91.8972C29.1564 91.7054 28.807 91.4455 28.807 90.9426C28.807 90.3801 29.4036 89.9711 30.2047 89.9711C31.0825 89.9711 31.4447 90.4569 31.6195 90.9086L32.5229 90.6529ZM36.6604 95.8688C37.9899 95.8688 38.9615 95.204 39.2683 94.2154L38.2967 93.9426C38.041 94.6245 37.4487 94.9654 36.6604 94.9654C35.48 94.9654 34.666 94.2026 34.6192 92.8006H39.3706V92.3745C39.3706 89.937 37.9217 89.1017 36.5581 89.1017C34.7854 89.1017 33.6092 90.4995 33.6092 92.5108C33.6092 94.5222 34.7683 95.8688 36.6604 95.8688ZM34.6192 91.9313C34.6873 90.9128 35.4075 90.0051 36.5581 90.0051C37.649 90.0051 38.3479 90.8233 38.3479 91.9313H34.6192ZM40.6604 95.7324H41.6661V91.5904C41.6661 90.704 42.365 90.0563 43.3195 90.0563C43.588 90.0563 43.865 90.1074 43.9331 90.1245V89.1017C43.8181 89.0932 43.5539 89.0847 43.4047 89.0847C42.6206 89.0847 41.9388 89.5279 41.7002 90.1756H41.632V89.187H40.6604V95.7324ZM49.2134 87.0051H48.1566V95.7324H49.2134V87.0051ZM51.9617 91.7949C51.9617 90.6529 52.6691 90.0051 53.6322 90.0051C54.5654 90.0051 55.1322 90.6145 55.1322 91.6415V95.7324H56.1379V91.5733C56.1379 89.9029 55.2472 89.1017 53.9219 89.1017C52.9333 89.1017 52.3197 89.5449 52.0129 90.2097H51.9276V89.187H50.956V95.7324H51.9617V91.7949ZM60.5822 89.187H59.1844V87.6188H58.1788V89.187H57.1901V90.0392H58.1788V94.1301C58.1788 95.2722 59.0992 95.8176 59.9515 95.8176C60.3265 95.8176 60.5651 95.7495 60.7015 95.6983L60.4969 94.7949C60.4117 94.812 60.2753 94.8461 60.0538 94.8461C59.6106 94.8461 59.1844 94.7097 59.1844 93.8574V90.0392H60.5822V89.187ZM64.529 95.8688C65.8585 95.8688 66.8301 95.204 67.1369 94.2154L66.1653 93.9426C65.9096 94.6245 65.3173 94.9654 64.529 94.9654C63.3486 94.9654 62.5346 94.2026 62.4878 92.8006H67.2392V92.3745C67.2392 89.937 65.7903 89.1017 64.4267 89.1017C62.654 89.1017 61.4778 90.4995 61.4778 92.5108C61.4778 94.5222 62.6369 95.8688 64.529 95.8688ZM62.4878 91.9313C62.5559 90.9128 63.2761 90.0051 64.4267 90.0051C65.5176 90.0051 66.2165 90.8233 66.2165 91.9313H62.4878ZM68.529 95.7324H69.5347V91.5904C69.5347 90.704 70.2336 90.0563 71.1881 90.0563C71.4566 90.0563 71.7336 90.1074 71.8017 90.1245V89.1017C71.6867 89.0932 71.4225 89.0847 71.2733 89.0847C70.4892 89.0847 69.8074 89.5279 69.5688 90.1756H69.5006V89.187H68.529V95.7324ZM78.3053 89.187H77.2144L75.4076 94.4029H75.3394L73.5326 89.187H72.4417L74.8622 95.7324H75.8849L78.3053 89.187ZM79.3928 95.7324H80.3984V89.187H79.3928V95.7324ZM79.9041 88.0961C80.2962 88.0961 80.62 87.7892 80.62 87.4142C80.62 87.0392 80.2962 86.7324 79.9041 86.7324C79.5121 86.7324 79.1882 87.0392 79.1882 87.4142C79.1882 87.7892 79.5121 88.0961 79.9041 88.0961ZM84.7447 95.8688C86.0743 95.8688 87.0459 95.204 87.3527 94.2154L86.3811 93.9426C86.1254 94.6245 85.5331 94.9654 84.7447 94.9654C83.5643 94.9654 82.7504 94.2026 82.7035 92.8006H87.455V92.3745C87.455 89.937 86.0061 89.1017 84.6425 89.1017C82.8697 89.1017 81.6936 90.4995 81.6936 92.5108C81.6936 94.5222 82.8527 95.8688 84.7447 95.8688ZM82.7035 91.9313C82.7717 90.9128 83.4919 90.0051 84.6425 90.0051C85.7334 90.0051 86.4322 90.8233 86.4322 91.9313H82.7035ZM90.2277 95.7324H91.2164L92.6482 90.704H92.7505L94.1823 95.7324H95.1709L97.1652 89.187H96.1084L94.6937 94.1813H94.6255L93.2448 89.187H92.1709L90.7732 94.1983H90.705L89.2902 89.187H88.2334L90.2277 95.7324ZM102.891 90.6529C102.576 89.7239 101.868 89.1017 100.573 89.1017C99.1923 89.1017 98.1696 89.8858 98.1696 90.9938C98.1696 91.8972 98.7065 92.5023 99.9082 92.7836L100.999 93.0392C101.66 93.1926 101.971 93.508 101.971 93.9597C101.971 94.5222 101.374 94.9824 100.437 94.9824C99.6142 94.9824 99.0985 94.6287 98.9196 93.9256L97.965 94.1642C98.1994 95.2765 99.1156 95.8688 100.454 95.8688C101.975 95.8688 103.01 95.0378 103.01 93.9086C103.01 92.9966 102.439 92.4213 101.272 92.1358L100.3 91.8972C99.5247 91.7054 99.1752 91.4455 99.1752 90.9426C99.1752 90.3801 99.7718 89.9711 100.573 89.9711C101.451 89.9711 101.813 90.4569 101.988 90.9086L102.891 90.6529ZM26.3911 111.732C26.0672 109.943 24.6354 108.886 22.8797 108.886C20.6468 108.886 19.0274 110.607 19.0274 113.369C19.0274 116.13 20.6468 117.852 22.8797 117.852C24.6354 117.852 26.0672 116.795 26.3911 115.005H25.3343C25.0786 116.215 24.0388 116.863 22.8797 116.863C21.2945 116.863 20.0502 115.636 20.0502 113.369C20.0502 111.102 21.2945 109.874 22.8797 109.874C24.0388 109.874 25.0786 110.522 25.3343 111.732H26.3911ZM30.3815 117.869C32.1543 117.869 33.3474 116.522 33.3474 114.494C33.3474 112.448 32.1543 111.102 30.3815 111.102C28.6088 111.102 27.4156 112.448 27.4156 114.494C27.4156 116.522 28.6088 117.869 30.3815 117.869ZM30.3815 116.965C29.0349 116.965 28.4213 115.806 28.4213 114.494C28.4213 113.181 29.0349 112.005 30.3815 112.005C31.7281 112.005 32.3418 113.181 32.3418 114.494C32.3418 115.806 31.7281 116.965 30.3815 116.965ZM34.6426 117.732H35.6483V113.642C35.6483 112.683 36.3471 112.005 37.1312 112.005C37.894 112.005 38.4267 112.504 38.4267 113.249V117.732H39.4494V113.471C39.4494 112.627 39.9778 112.005 40.8983 112.005C41.6142 112.005 42.2278 112.384 42.2278 113.352V117.732H43.2335V113.352C43.2335 111.813 42.4068 111.102 41.2392 111.102C40.3017 111.102 39.6156 111.532 39.279 112.21H39.2108C38.8869 111.511 38.3159 111.102 37.4551 111.102C36.6028 111.102 35.9721 111.511 35.6994 112.21H35.6142V111.187H34.6426V117.732ZM44.8323 120.187H45.838V116.727H45.9232C46.1448 117.085 46.5709 117.869 47.8323 117.869C49.4687 117.869 50.6107 116.556 50.6107 114.477C50.6107 112.414 49.4687 111.102 47.8152 111.102C46.5368 111.102 46.1448 111.886 45.9232 112.227H45.8039V111.187H44.8323V120.187ZM45.8209 114.46C45.8209 112.994 46.4687 112.005 47.6959 112.005C48.9743 112.005 49.605 113.079 49.605 114.46C49.605 115.857 48.9573 116.965 47.6959 116.965C46.4857 116.965 45.8209 115.943 45.8209 114.46ZM54.6491 117.869C55.9787 117.869 56.9502 117.204 57.2571 116.215L56.2855 115.943C56.0298 116.624 55.4375 116.965 54.6491 116.965C53.4687 116.965 52.6548 116.203 52.6079 114.801H57.3593V114.374C57.3593 111.937 55.9105 111.102 54.5468 111.102C52.7741 111.102 51.598 112.499 51.598 114.511C51.598 116.522 52.7571 117.869 54.6491 117.869ZM52.6079 113.931C52.6761 112.913 53.3963 112.005 54.5468 112.005C55.6377 112.005 56.3366 112.823 56.3366 113.931H52.6079ZM61.4958 111.187H60.098V109.619H59.0923V111.187H58.1037V112.039H59.0923V116.13C59.0923 117.272 60.0128 117.818 60.8651 117.818C61.2401 117.818 61.4787 117.749 61.6151 117.698L61.4105 116.795C61.3253 116.812 61.1889 116.846 60.9673 116.846C60.5242 116.846 60.098 116.71 60.098 115.857V112.039H61.4958V111.187ZM64.6947 117.886C65.8367 117.886 66.4333 117.272 66.6379 116.846H66.689V117.732H67.6947V113.42C67.6947 111.34 66.1095 111.102 65.2742 111.102C64.2856 111.102 63.1606 111.443 62.6492 112.636L63.6038 112.977C63.8254 112.499 64.3495 111.988 65.3083 111.988C66.233 111.988 66.689 112.478 66.689 113.318V113.352C66.689 113.838 66.1947 113.795 65.0015 113.948C63.787 114.106 62.4617 114.374 62.4617 115.874C62.4617 117.153 63.4504 117.886 64.6947 117.886ZM64.8481 116.982C64.047 116.982 63.4674 116.624 63.4674 115.926C63.4674 115.159 64.1663 114.92 64.9504 114.818C65.3765 114.767 66.5185 114.647 66.689 114.443V115.363C66.689 116.181 66.0413 116.982 64.8481 116.982ZM72.1368 111.187H70.7391V109.619H69.7334V111.187H68.7448V112.039H69.7334V116.13C69.7334 117.272 70.6539 117.818 71.5062 117.818C71.8812 117.818 72.1198 117.749 72.2562 117.698L72.0516 116.795C71.9664 116.812 71.83 116.846 71.6084 116.846C71.1653 116.846 70.7391 116.71 70.7391 115.857V112.039H72.1368V111.187ZM73.4096 117.732H74.4153V111.187H73.4096V117.732ZM73.921 110.096C74.313 110.096 74.6369 109.789 74.6369 109.414C74.6369 109.039 74.313 108.732 73.921 108.732C73.529 108.732 73.2051 109.039 73.2051 109.414C73.2051 109.789 73.529 110.096 73.921 110.096ZM81.3696 111.187H80.2787L78.4718 116.403H78.4037L76.5968 111.187H75.5059L77.9264 117.732H78.9491L81.3696 111.187ZM84.9669 117.869C86.2965 117.869 87.2681 117.204 87.5749 116.215L86.6033 115.943C86.3476 116.624 85.7553 116.965 84.9669 116.965C83.7865 116.965 82.9726 116.203 82.9257 114.801H87.6771V114.374C87.6771 111.937 86.2283 111.102 84.8646 111.102C83.0919 111.102 81.9158 112.499 81.9158 114.511C81.9158 116.522 83.0749 117.869 84.9669 117.869ZM82.9257 113.931C82.9939 112.913 83.7141 112.005 84.8646 112.005C85.9556 112.005 86.6544 112.823 86.6544 113.931H82.9257ZM19.7263 134.732L20.6041 132.261H24.1325L25.0104 134.732H26.1183L22.9138 126.005H21.8229L18.6183 134.732H19.7263ZM20.9365 131.323L22.3343 127.386H22.4024L23.8002 131.323H20.9365ZM28.107 130.795C28.107 129.653 28.8144 129.005 29.7775 129.005C30.7107 129.005 31.2775 129.615 31.2775 130.642V134.732H32.2832V130.573C32.2832 128.903 31.3925 128.102 30.0673 128.102C29.0786 128.102 28.465 128.545 28.1582 129.21H28.0729V128.187H27.1014V134.732H28.107V130.795ZM35.807 134.886C36.9491 134.886 37.5457 134.272 37.7502 133.846H37.8013V134.732H38.807V130.42C38.807 128.34 37.2218 128.102 36.3866 128.102C35.3979 128.102 34.2729 128.443 33.7616 129.636L34.7161 129.977C34.9377 129.499 35.4619 128.988 36.4207 128.988C37.3454 128.988 37.8013 129.478 37.8013 130.318V130.352C37.8013 130.838 37.307 130.795 36.1138 130.948C34.8994 131.106 33.5741 131.374 33.5741 132.874C33.5741 134.153 34.5627 134.886 35.807 134.886ZM35.9604 133.982C35.1593 133.982 34.5797 133.624 34.5797 132.926C34.5797 132.159 35.2786 131.92 36.0627 131.818C36.4888 131.767 37.6309 131.647 37.8013 131.443V132.363C37.8013 133.181 37.1536 133.982 35.9604 133.982ZM41.4083 126.005H40.4026V134.732H41.4083V126.005ZM43.658 137.187C44.5657 137.187 45.2049 136.705 45.5841 135.687L48.3711 128.204L47.2716 128.187L45.4648 133.403H45.3966L43.5898 128.187H42.4989L44.9194 134.767L44.7319 135.278C44.3654 136.275 43.9137 136.369 43.1807 136.181L42.925 137.068C43.0273 137.119 43.3171 137.187 43.658 137.187ZM54.098 129.653C53.7827 128.724 53.0753 128.102 51.7798 128.102C50.3992 128.102 49.3764 128.886 49.3764 129.994C49.3764 130.897 49.9134 131.502 51.1151 131.784L52.206 132.039C52.8665 132.193 53.1776 132.508 53.1776 132.96C53.1776 133.522 52.581 133.982 51.6435 133.982C50.821 133.982 50.3054 133.629 50.1264 132.926L49.1719 133.164C49.4063 134.276 50.3225 134.869 51.6605 134.869C53.1818 134.869 54.2173 134.038 54.2173 132.909C54.2173 131.997 53.6463 131.421 52.4787 131.136L51.5071 130.897C50.7316 130.705 50.3821 130.445 50.3821 129.943C50.3821 129.38 50.9787 128.971 51.7798 128.971C52.6577 128.971 53.0199 129.457 53.1946 129.909L54.098 129.653ZM55.4912 134.732H56.4969V128.187H55.4912V134.732ZM56.0026 127.096C56.3946 127.096 56.7185 126.789 56.7185 126.414C56.7185 126.039 56.3946 125.732 56.0026 125.732C55.6105 125.732 55.2867 126.039 55.2867 126.414C55.2867 126.789 55.6105 127.096 56.0026 127.096ZM62.7352 129.653C62.4199 128.724 61.7125 128.102 60.417 128.102C59.0364 128.102 58.0136 128.886 58.0136 129.994C58.0136 130.897 58.5506 131.502 59.7523 131.784L60.8432 132.039C61.5037 132.193 61.8148 132.508 61.8148 132.96C61.8148 133.522 61.2182 133.982 60.2807 133.982C59.4582 133.982 58.9426 133.629 58.7636 132.926L57.8091 133.164C58.0435 134.276 58.9596 134.869 60.2977 134.869C61.819 134.869 62.8545 134.038 62.8545 132.909C62.8545 131.997 62.2835 131.421 61.1159 131.136L60.1443 130.897C59.3687 130.705 59.0193 130.445 59.0193 129.943C59.0193 129.38 59.6159 128.971 60.417 128.971C61.2949 128.971 61.6571 129.457 61.8318 129.909L62.7352 129.653Z" fill="#1E1D1D"/>
<circle cx="5.81152" cy="46.0039" r="4.5" fill="#1E1D1D"/>
<path d="M148.78 50.5762C151.439 50.5762 153.015 48.9313 153.015 46.204C153.015 43.4853 151.439 41.8489 148.839 41.8489H145.822V50.5762H148.78ZM147.403 49.2083V43.2168H148.75C150.523 43.2168 151.447 44.2054 151.447 46.204C151.447 48.2111 150.523 49.2083 148.703 49.2083H147.403ZM154.758 50.5762H160.468V49.2509H156.338V46.8688H160.14V45.5435H156.338V43.1742H160.434V41.8489H154.758V50.5762ZM162.287 50.5762H163.868V46.8688H167.494V45.5435H163.868V43.1742H167.878V41.8489H162.287V50.5762ZM171.139 41.8489H169.558V50.5762H171.139V41.8489ZM180.263 41.8489H178.69V47.7978H178.614L174.506 41.8489H173.091V50.5762H174.672V44.6316H174.744L178.856 50.5762H180.263V41.8489ZM182.225 50.5762H187.936V49.2509H183.806V46.8688H187.607V45.5435H183.806V43.1742H187.901V41.8489H182.225V50.5762Z" fill="#1E1D1D"/>
<path d="M146.376 73.7324L147.254 71.2608H150.782L151.66 73.7324H152.768L149.564 65.0051H148.473L145.268 73.7324H146.376ZM147.586 70.3233L148.984 66.3858H149.052L150.45 70.3233H147.586ZM156.666 67.187H155.2V66.5222C155.2 65.8745 155.473 65.5336 156.138 65.5336C156.427 65.5336 156.598 65.6017 156.7 65.6358L156.99 64.7665C156.836 64.6983 156.53 64.5961 156.035 64.5961C155.098 64.5961 154.194 65.1586 154.194 66.2836V67.187H153.138V68.0392H154.194V73.7324H155.2V68.0392H156.666V67.187ZM160.75 67.187H159.284V66.5222C159.284 65.8745 159.557 65.5336 160.222 65.5336C160.512 65.5336 160.682 65.6017 160.784 65.6358L161.074 64.7665C160.921 64.6983 160.614 64.5961 160.12 64.5961C159.182 64.5961 158.279 65.1586 158.279 66.2836V67.187H157.222V68.0392H158.279V73.7324H159.284V68.0392H160.75V67.187ZM161.92 73.7324H162.925V67.187H161.92V73.7324ZM162.431 66.0961C162.823 66.0961 163.147 65.7892 163.147 65.4142C163.147 65.0392 162.823 64.7324 162.431 64.7324C162.039 64.7324 161.715 65.0392 161.715 65.4142C161.715 65.7892 162.039 66.0961 162.431 66.0961ZM165.533 69.7949C165.533 68.6529 166.24 68.0051 167.203 68.0051C168.137 68.0051 168.703 68.6145 168.703 69.6415V73.7324H169.709V69.5733C169.709 67.9029 168.819 67.1017 167.493 67.1017C166.505 67.1017 165.891 67.5449 165.584 68.2097H165.499V67.187H164.527V73.7324H165.533V69.7949ZM171.307 73.7324H172.313V67.187H171.307V73.7324ZM171.818 66.0961C172.21 66.0961 172.534 65.7892 172.534 65.4142C172.534 65.0392 172.21 64.7324 171.818 64.7324C171.426 64.7324 171.102 65.0392 171.102 65.4142C171.102 65.7892 171.426 66.0961 171.818 66.0961ZM176.761 67.187H175.363V65.6188H174.358V67.187H173.369V68.0392H174.358V72.1301C174.358 73.2722 175.278 73.8176 176.13 73.8176C176.505 73.8176 176.744 73.7495 176.88 73.6983L176.676 72.7949C176.591 72.812 176.454 72.8461 176.233 72.8461C175.79 72.8461 175.363 72.7097 175.363 71.8574V68.0392H176.761V67.187ZM178.682 76.187C179.589 76.187 180.229 75.7054 180.608 74.687L183.395 67.204L182.295 67.187L180.488 72.4029H180.42L178.613 67.187H177.523L179.943 73.7665L179.756 74.2779C179.389 75.275 178.937 75.3688 178.204 75.1813L177.949 76.0676C178.051 76.1188 178.341 76.187 178.682 76.187ZM187.757 65.0051V73.7324H188.745V67.1017H188.831L191.558 73.7324H192.512L195.24 67.1017H195.325V73.7324H196.313V65.0051H195.052L192.086 72.2495H191.984L189.018 65.0051H187.757ZM199.982 73.8858C201.124 73.8858 201.721 73.2722 201.925 72.8461H201.977V73.7324H202.982V69.4199C202.982 67.3404 201.397 67.1017 200.562 67.1017C199.573 67.1017 198.448 67.4426 197.937 68.6358L198.891 68.9767C199.113 68.4995 199.637 67.9881 200.596 67.9881C201.521 67.9881 201.977 68.4782 201.977 69.3176V69.3517C201.977 69.8375 201.482 69.7949 200.289 69.9483C199.075 70.106 197.749 70.3745 197.749 71.8745C197.749 73.1529 198.738 73.8858 199.982 73.8858ZM200.136 72.9824C199.335 72.9824 198.755 72.6245 198.755 71.9256C198.755 71.1586 199.454 70.9199 200.238 70.8176C200.664 70.7665 201.806 70.6472 201.977 70.4426V71.3631C201.977 72.1813 201.329 72.9824 200.136 72.9824ZM204.578 76.187H205.584V72.7267H205.669C205.89 73.0847 206.316 73.8688 207.578 73.8688C209.214 73.8688 210.356 72.5563 210.356 70.4767C210.356 68.4142 209.214 67.1017 207.561 67.1017C206.282 67.1017 205.89 67.8858 205.669 68.2267H205.549V67.187H204.578V76.187ZM205.566 70.4597C205.566 68.9938 206.214 68.0051 207.441 68.0051C208.72 68.0051 209.351 69.079 209.351 70.4597C209.351 71.8574 208.703 72.9654 207.441 72.9654C206.231 72.9654 205.566 71.9426 205.566 70.4597ZM146.018 95.7324H147.075V91.829H150.859V90.8915H147.075V87.9426H151.251V87.0051H146.018V95.7324ZM154.949 95.8688C156.278 95.8688 157.25 95.204 157.557 94.2154L156.585 93.9426C156.329 94.6245 155.737 94.9654 154.949 94.9654C153.768 94.9654 152.954 94.2026 152.908 92.8006H157.659V92.3745C157.659 89.937 156.21 89.1017 154.846 89.1017C153.074 89.1017 151.898 90.4995 151.898 92.5108C151.898 94.5222 153.057 95.8688 154.949 95.8688ZM152.908 91.9313C152.976 90.9128 153.696 90.0051 154.846 90.0051C155.937 90.0051 156.636 90.8233 156.636 91.9313H152.908ZM160.875 95.8858C162.017 95.8858 162.614 95.2722 162.818 94.8461H162.869V95.7324H163.875V91.4199C163.875 89.3404 162.29 89.1017 161.454 89.1017C160.466 89.1017 159.341 89.4426 158.829 90.6358L159.784 90.9767C160.006 90.4995 160.53 89.9881 161.489 89.9881C162.413 89.9881 162.869 90.4782 162.869 91.3176V91.3517C162.869 91.8375 162.375 91.7949 161.182 91.9483C159.967 92.106 158.642 92.3745 158.642 93.8745C158.642 95.1529 159.631 95.8858 160.875 95.8858ZM161.028 94.9824C160.227 94.9824 159.648 94.6245 159.648 93.9256C159.648 93.1586 160.346 92.9199 161.131 92.8176C161.557 92.7665 162.699 92.6472 162.869 92.4426V93.3631C162.869 94.1813 162.221 94.9824 161.028 94.9824ZM168.317 89.187H166.919V87.6188H165.914V89.187H164.925V90.0392H165.914V94.1301C165.914 95.2722 166.834 95.8176 167.686 95.8176C168.061 95.8176 168.3 95.7495 168.436 95.6983L168.232 94.7949C168.147 94.812 168.01 94.8461 167.789 94.8461C167.345 94.8461 166.919 94.7097 166.919 93.8574V90.0392H168.317V89.187ZM173.715 93.0563C173.715 94.2836 172.777 94.8461 172.027 94.8461C171.192 94.8461 170.596 94.2324 170.596 93.2779V89.187H169.59V93.3461C169.59 95.0165 170.476 95.8176 171.703 95.8176C172.692 95.8176 173.34 95.2892 173.647 94.6245H173.715V95.7324H174.721V89.187H173.715V93.0563ZM176.323 95.7324H177.328V91.5904C177.328 90.704 178.027 90.0563 178.982 90.0563C179.25 90.0563 179.527 90.1074 179.595 90.1245V89.1017C179.48 89.0932 179.216 89.0847 179.067 89.0847C178.283 89.0847 177.601 89.5279 177.362 90.1756H177.294V89.187H176.323V95.7324ZM183.092 95.8688C184.422 95.8688 185.394 95.204 185.7 94.2154L184.729 93.9426C184.473 94.6245 183.881 94.9654 183.092 94.9654C181.912 94.9654 181.098 94.2026 181.051 92.8006H185.803V92.3745C185.803 89.937 184.354 89.1017 182.99 89.1017C181.217 89.1017 180.041 90.4995 180.041 92.5108C180.041 94.5222 181.2 95.8688 183.092 95.8688ZM181.051 91.9313C181.119 90.9128 181.84 90.0051 182.99 90.0051C184.081 90.0051 184.78 90.8233 184.78 91.9313H181.051ZM146.018 112.732H147.075V109.545H148.984C151.017 109.545 151.933 108.309 151.933 106.767C151.933 105.224 151.017 104.005 148.967 104.005H146.018V112.732ZM147.075 108.607V104.943H148.933C150.352 104.943 150.893 105.718 150.893 106.767C150.893 107.815 150.352 108.607 148.95 108.607H147.075ZM153.259 112.732H154.265V108.59C154.265 107.704 154.964 107.056 155.918 107.056C156.187 107.056 156.464 107.107 156.532 107.124V106.102C156.417 106.093 156.153 106.085 156.003 106.085C155.219 106.085 154.537 106.528 154.299 107.176H154.231V106.187H153.259V112.732ZM157.484 112.732H158.49V106.187H157.484V112.732ZM157.995 105.096C158.387 105.096 158.711 104.789 158.711 104.414C158.711 104.039 158.387 103.732 157.995 103.732C157.603 103.732 157.279 104.039 157.279 104.414C157.279 104.789 157.603 105.096 157.995 105.096ZM162.751 112.869C164.523 112.869 165.717 111.522 165.717 109.494C165.717 107.448 164.523 106.102 162.751 106.102C160.978 106.102 159.785 107.448 159.785 109.494C159.785 111.522 160.978 112.869 162.751 112.869ZM162.751 111.965C161.404 111.965 160.79 110.806 160.79 109.494C160.79 108.181 161.404 107.005 162.751 107.005C164.097 107.005 164.711 108.181 164.711 109.494C164.711 110.806 164.097 111.965 162.751 111.965ZM167.012 112.732H168.017V108.59C168.017 107.704 168.716 107.056 169.671 107.056C169.939 107.056 170.216 107.107 170.284 107.124V106.102C170.169 106.093 169.905 106.085 169.756 106.085C168.972 106.085 168.29 106.528 168.051 107.176H167.983V106.187H167.012V112.732ZM171.237 112.732H172.242V106.187H171.237V112.732ZM171.748 105.096C172.14 105.096 172.464 104.789 172.464 104.414C172.464 104.039 172.14 103.732 171.748 103.732C171.356 103.732 171.032 104.039 171.032 104.414C171.032 104.789 171.356 105.096 171.748 105.096ZM176.691 106.187H175.293V104.619H174.287V106.187H173.299V107.039H174.287V111.13C174.287 112.272 175.208 112.818 176.06 112.818C176.435 112.818 176.674 112.749 176.81 112.698L176.606 111.795C176.52 111.812 176.384 111.846 176.162 111.846C175.719 111.846 175.293 111.71 175.293 110.857V107.039H176.691V106.187ZM177.964 112.732H178.969V106.187H177.964V112.732ZM178.475 105.096C178.867 105.096 179.191 104.789 179.191 104.414C179.191 104.039 178.867 103.732 178.475 103.732C178.083 103.732 177.759 104.039 177.759 104.414C177.759 104.789 178.083 105.096 178.475 105.096ZM180.384 112.732H185.514V111.795H181.781V111.727L185.395 106.988V106.187H180.503V107.124H184.1V107.193L180.384 111.965V112.732ZM188.75 112.886C189.892 112.886 190.488 112.272 190.693 111.846H190.744V112.732H191.75V108.42C191.75 106.34 190.164 106.102 189.329 106.102C188.34 106.102 187.215 106.443 186.704 107.636L187.659 107.977C187.88 107.499 188.404 106.988 189.363 106.988C190.288 106.988 190.744 107.478 190.744 108.318V108.352C190.744 108.838 190.25 108.795 189.056 108.948C187.842 109.106 186.517 109.374 186.517 110.874C186.517 112.153 187.505 112.886 188.75 112.886ZM188.903 111.982C188.102 111.982 187.522 111.624 187.522 110.926C187.522 110.159 188.221 109.92 189.005 109.818C189.431 109.767 190.573 109.647 190.744 109.443V110.363C190.744 111.181 190.096 111.982 188.903 111.982ZM196.192 106.187H194.794V104.619H193.788V106.187H192.8V107.039H193.788V111.13C193.788 112.272 194.709 112.818 195.561 112.818C195.936 112.818 196.175 112.749 196.311 112.698L196.107 111.795C196.021 111.812 195.885 111.846 195.663 111.846C195.22 111.846 194.794 111.71 194.794 110.857V107.039H196.192V106.187ZM197.465 112.732H198.47V106.187H197.465V112.732ZM197.976 105.096C198.368 105.096 198.692 104.789 198.692 104.414C198.692 104.039 198.368 103.732 197.976 103.732C197.584 103.732 197.26 104.039 197.26 104.414C197.26 104.789 197.584 105.096 197.976 105.096ZM202.731 112.869C204.504 112.869 205.697 111.522 205.697 109.494C205.697 107.448 204.504 106.102 202.731 106.102C200.959 106.102 199.765 107.448 199.765 109.494C199.765 111.522 200.959 112.869 202.731 112.869ZM202.731 111.965C201.385 111.965 200.771 110.806 200.771 109.494C200.771 108.181 201.385 107.005 202.731 107.005C204.078 107.005 204.692 108.181 204.692 109.494C204.692 110.806 204.078 111.965 202.731 111.965ZM207.998 108.795C207.998 107.653 208.705 107.005 209.668 107.005C210.602 107.005 211.168 107.615 211.168 108.642V112.732H212.174V108.573C212.174 106.903 211.284 106.102 209.958 106.102C208.97 106.102 208.356 106.545 208.049 107.21H207.964V106.187H206.992V112.732H207.998V108.795ZM151.746 126.005V131.698C151.746 132.977 150.868 133.897 149.41 133.897C147.953 133.897 147.075 132.977 147.075 131.698V126.005H146.018V131.784C146.018 133.573 147.356 134.886 149.41 134.886C151.464 134.886 152.802 133.573 152.802 131.784V126.005H151.746ZM159.173 129.653C158.857 128.724 158.15 128.102 156.855 128.102C155.474 128.102 154.451 128.886 154.451 129.994C154.451 130.897 154.988 131.502 156.19 131.784L157.281 132.039C157.941 132.193 158.252 132.508 158.252 132.96C158.252 133.522 157.656 133.982 156.718 133.982C155.896 133.982 155.38 133.629 155.201 132.926L154.247 133.164C154.481 134.276 155.397 134.869 156.735 134.869C158.257 134.869 159.292 134.038 159.292 132.909C159.292 131.997 158.721 131.421 157.553 131.136L156.582 130.897C155.806 130.705 155.457 130.445 155.457 129.943C155.457 129.38 156.053 128.971 156.855 128.971C157.732 128.971 158.095 129.457 158.269 129.909L159.173 129.653ZM163.31 134.869C164.64 134.869 165.611 134.204 165.918 133.215L164.947 132.943C164.691 133.624 164.099 133.965 163.31 133.965C162.13 133.965 161.316 133.203 161.269 131.801H166.02V131.374C166.02 128.937 164.572 128.102 163.208 128.102C161.435 128.102 160.259 129.499 160.259 131.511C160.259 133.522 161.418 134.869 163.31 134.869ZM161.269 130.931C161.337 129.913 162.057 129.005 163.208 129.005C164.299 129.005 164.998 129.823 164.998 130.931H161.269ZM167.31 134.732H168.316V130.59C168.316 129.704 169.015 129.056 169.969 129.056C170.238 129.056 170.515 129.107 170.583 129.124V128.102C170.468 128.093 170.204 128.085 170.055 128.085C169.271 128.085 168.589 128.528 168.35 129.176H168.282V128.187H167.31V134.732ZM174.807 134.732H175.863V131.545H177.772C179.805 131.545 180.721 130.309 180.721 128.767C180.721 127.224 179.805 126.005 177.755 126.005H174.807V134.732ZM175.863 130.607V126.943H177.721C179.14 126.943 179.682 127.718 179.682 128.767C179.682 129.815 179.14 130.607 177.738 130.607H175.863ZM184.721 134.869C186.051 134.869 187.022 134.204 187.329 133.215L186.358 132.943C186.102 133.624 185.51 133.965 184.721 133.965C183.541 133.965 182.727 133.203 182.68 131.801H187.432V131.374C187.432 128.937 185.983 128.102 184.619 128.102C182.846 128.102 181.67 129.499 181.67 131.511C181.67 133.522 182.829 134.869 184.721 134.869ZM182.68 130.931C182.748 129.913 183.469 129.005 184.619 129.005C185.71 129.005 186.409 129.823 186.409 130.931H182.68ZM188.721 134.732H189.727V130.59C189.727 129.704 190.426 129.056 191.381 129.056C191.649 129.056 191.926 129.107 191.994 129.124V128.102C191.879 128.093 191.615 128.085 191.466 128.085C190.682 128.085 190 128.528 189.761 129.176H189.693V128.187H188.721V134.732ZM197.583 129.653C197.267 128.724 196.56 128.102 195.264 128.102C193.884 128.102 192.861 128.886 192.861 129.994C192.861 130.897 193.398 131.502 194.6 131.784L195.691 132.039C196.351 132.193 196.662 132.508 196.662 132.96C196.662 133.522 196.066 133.982 195.128 133.982C194.306 133.982 193.79 133.629 193.611 132.926L192.656 133.164C192.891 134.276 193.807 134.869 195.145 134.869C196.666 134.869 197.702 134.038 197.702 132.909C197.702 131.997 197.131 131.421 195.963 131.136L194.992 130.897C194.216 130.705 193.867 130.445 193.867 129.943C193.867 129.38 194.463 128.971 195.264 128.971C196.142 128.971 196.504 129.457 196.679 129.909L197.583 129.653ZM201.635 134.869C203.408 134.869 204.601 133.522 204.601 131.494C204.601 129.448 203.408 128.102 201.635 128.102C199.862 128.102 198.669 129.448 198.669 131.494C198.669 133.522 199.862 134.869 201.635 134.869ZM201.635 133.965C200.288 133.965 199.675 132.806 199.675 131.494C199.675 130.181 200.288 129.005 201.635 129.005C202.981 129.005 203.595 130.181 203.595 131.494C203.595 132.806 202.981 133.965 201.635 133.965ZM206.902 130.795C206.902 129.653 207.609 129.005 208.572 129.005C209.505 129.005 210.072 129.615 210.072 130.642V134.732H211.078V130.573C211.078 128.903 210.187 128.102 208.862 128.102C207.873 128.102 207.26 128.545 206.953 129.21H206.868V128.187H205.896V134.732H206.902V130.795ZM214.602 134.886C215.744 134.886 216.34 134.272 216.545 133.846H216.596V134.732H217.602V130.42C217.602 128.34 216.016 128.102 215.181 128.102C214.193 128.102 213.068 128.443 212.556 129.636L213.511 129.977C213.732 129.499 214.256 128.988 215.215 128.988C216.14 128.988 216.596 129.478 216.596 130.318V130.352C216.596 130.838 216.102 130.795 214.908 130.948C213.694 131.106 212.369 131.374 212.369 132.874C212.369 134.153 213.357 134.886 214.602 134.886ZM214.755 133.982C213.954 133.982 213.374 133.624 213.374 132.926C213.374 132.159 214.073 131.92 214.857 131.818C215.283 131.767 216.425 131.647 216.596 131.443V132.363C216.596 133.181 215.948 133.982 214.755 133.982Z" fill="#1E1D1D"/>
<circle cx="132.461" cy="46.0039" r="4.5" fill="#1E1D1D"/>
<path d="M274.073 41.8489H272.492V50.5762H274.073V41.8489ZM278.982 50.5762C281.642 50.5762 283.218 48.9313 283.218 46.204C283.218 43.4853 281.642 41.8489 279.042 41.8489H276.025V50.5762H278.982ZM277.606 49.2083V43.2168H278.953C280.725 43.2168 281.65 44.2054 281.65 46.204C281.65 48.2111 280.725 49.2083 278.906 49.2083H277.606ZM284.96 50.5762H290.671V49.2509H286.541V46.8688H290.343V45.5435H286.541V43.1742H290.637V41.8489H284.96V50.5762ZM293.61 50.5762L294.33 48.4242H297.612L298.336 50.5762H300.024L296.947 41.8489H294.995L291.923 50.5762H293.61ZM294.757 47.1543L295.937 43.6387H296.005L297.186 47.1543H294.757ZM299.975 43.1742H302.672V50.5762H304.24V43.1742H306.938V41.8489H299.975V43.1742ZM308.52 50.5762H314.23V49.2509H310.101V46.8688H313.902V45.5435H310.101V43.1742H314.196V41.8489H308.52V50.5762Z" fill="#1E1D1D"/>
<path d="M278.415 65.0051V70.6983C278.415 71.9767 277.538 72.8972 276.08 72.8972C274.623 72.8972 273.745 71.9767 273.745 70.6983V65.0051H272.688V70.7836C272.688 72.5733 274.026 73.8858 276.08 73.8858C278.134 73.8858 279.472 72.5733 279.472 70.7836V65.0051H278.415ZM285.843 68.6529C285.527 67.7239 284.82 67.1017 283.525 67.1017C282.144 67.1017 281.121 67.8858 281.121 68.9938C281.121 69.8972 281.658 70.5023 282.86 70.7836L283.951 71.0392C284.611 71.1926 284.922 71.508 284.922 71.9597C284.922 72.5222 284.326 72.9824 283.388 72.9824C282.566 72.9824 282.05 72.6287 281.871 71.9256L280.917 72.1642C281.151 73.2765 282.067 73.8688 283.405 73.8688C284.927 73.8688 285.962 73.0378 285.962 71.9086C285.962 70.9966 285.391 70.4213 284.223 70.1358L283.252 69.8972C282.476 69.7054 282.127 69.4455 282.127 68.9426C282.127 68.3801 282.723 67.9711 283.525 67.9711C284.402 67.9711 284.765 68.4569 284.939 68.9086L285.843 68.6529ZM289.98 73.8688C291.31 73.8688 292.281 73.204 292.588 72.2154L291.617 71.9426C291.361 72.6245 290.769 72.9654 289.98 72.9654C288.8 72.9654 287.986 72.2026 287.939 70.8006H292.69V70.3745C292.69 67.937 291.242 67.1017 289.878 67.1017C288.105 67.1017 286.929 68.4995 286.929 70.5108C286.929 72.5222 288.088 73.8688 289.98 73.8688ZM287.939 69.9313C288.007 68.9128 288.727 68.0051 289.878 68.0051C290.969 68.0051 291.668 68.8233 291.668 69.9313H287.939ZM293.98 73.7324H294.986V69.5904C294.986 68.704 295.685 68.0563 296.639 68.0563C296.908 68.0563 297.185 68.1074 297.253 68.1245V67.1017C297.138 67.0932 296.874 67.0847 296.725 67.0847C295.94 67.0847 295.259 67.5279 295.02 68.1756H294.952V67.187H293.98V73.7324ZM301.476 73.7324H302.533V69.829H306.317V68.8915H302.533V65.9426H306.709V65.0051H301.476V73.7324ZM309.149 65.0051H308.143V73.7324H309.149V65.0051ZM313.41 73.8688C315.183 73.8688 316.376 72.5222 316.376 70.4938C316.376 68.4483 315.183 67.1017 313.41 67.1017C311.637 67.1017 310.444 68.4483 310.444 70.4938C310.444 72.5222 311.637 73.8688 313.41 73.8688ZM313.41 72.9654C312.063 72.9654 311.45 71.8063 311.45 70.4938C311.45 69.1813 312.063 68.0051 313.41 68.0051C314.756 68.0051 315.37 69.1813 315.37 70.4938C315.37 71.8063 314.756 72.9654 313.41 72.9654ZM318.931 73.7324H319.92L321.352 68.704H321.454L322.886 73.7324H323.874L325.869 67.187H324.812L323.397 72.1813H323.329L321.948 67.187H320.874L319.477 72.1983H319.408L317.994 67.187H316.937L318.931 73.7324ZM331.595 68.6529C331.279 67.7239 330.572 67.1017 329.276 67.1017C327.896 67.1017 326.873 67.8858 326.873 68.9938C326.873 69.8972 327.41 70.5023 328.612 70.7836L329.703 71.0392C330.363 71.1926 330.674 71.508 330.674 71.9597C330.674 72.5222 330.078 72.9824 329.14 72.9824C328.318 72.9824 327.802 72.6287 327.623 71.9256L326.668 72.1642C326.903 73.2765 327.819 73.8688 329.157 73.8688C330.678 73.8688 331.714 73.0378 331.714 71.9086C331.714 70.9966 331.143 70.4213 329.975 70.1358L329.004 69.8972C328.228 69.7054 327.879 69.4455 327.879 68.9426C327.879 68.3801 328.475 67.9711 329.276 67.9711C330.154 67.9711 330.516 68.4569 330.691 68.9086L331.595 68.6529ZM277.461 87.187H278.484C278.437 85.8702 277.222 84.8858 275.535 84.8858C273.864 84.8858 272.552 85.8574 272.552 87.3233C272.552 88.4995 273.404 89.1983 274.768 89.5904L275.842 89.8972C276.762 90.1529 277.58 90.4767 277.58 91.3461C277.58 92.3006 276.66 92.9313 275.45 92.9313C274.41 92.9313 273.489 92.4711 273.404 91.4824H272.313C272.415 92.9142 273.575 93.8858 275.45 93.8858C277.461 93.8858 278.603 92.7779 278.603 91.3631C278.603 89.7267 277.052 89.1983 276.148 88.9597L275.262 88.7211C274.614 88.5506 273.575 88.2097 273.575 87.2722C273.575 86.437 274.342 85.8233 275.501 85.8233C276.557 85.8233 277.359 86.3262 277.461 87.187ZM279.964 93.7324H280.97V87.187H279.964V93.7324ZM280.476 86.0961C280.868 86.0961 281.191 85.7892 281.191 85.4142C281.191 85.0392 280.868 84.7324 280.476 84.7324C280.083 84.7324 279.76 85.0392 279.76 85.4142C279.76 85.7892 280.083 86.0961 280.476 86.0961ZM285.418 87.187H284.021V85.6188H283.015V87.187H282.026V88.0392H283.015V92.1301C283.015 93.2722 283.935 93.8176 284.788 93.8176C285.163 93.8176 285.401 93.7495 285.538 93.6983L285.333 92.7949C285.248 92.812 285.112 92.8461 284.89 92.8461C284.447 92.8461 284.021 92.7097 284.021 91.8574V88.0392H285.418V87.187ZM289.365 93.8688C290.695 93.8688 291.666 93.204 291.973 92.2154L291.002 91.9426C290.746 92.6245 290.154 92.9654 289.365 92.9654C288.185 92.9654 287.371 92.2026 287.324 90.8006H292.075V90.3745C292.075 87.937 290.627 87.1017 289.263 87.1017C287.49 87.1017 286.314 88.4995 286.314 90.5108C286.314 92.5222 287.473 93.8688 289.365 93.8688ZM287.324 89.9313C287.392 88.9128 288.112 88.0051 289.263 88.0051C290.354 88.0051 291.053 88.8233 291.053 89.9313H287.324ZM296.637 85.0051V93.7324H297.625V87.1017H297.71L300.438 93.7324H301.392L304.12 87.1017H304.205V93.7324H305.193V85.0051H303.932L300.966 92.2495H300.864L297.898 85.0051H296.637ZM308.862 93.8858C310.004 93.8858 310.601 93.2722 310.805 92.8461H310.856V93.7324H311.862V89.4199C311.862 87.3404 310.277 87.1017 309.442 87.1017C308.453 87.1017 307.328 87.4426 306.817 88.6358L307.771 88.9767C307.993 88.4995 308.517 87.9881 309.476 87.9881C310.401 87.9881 310.856 88.4782 310.856 89.3176V89.3517C310.856 89.8375 310.362 89.7949 309.169 89.9483C307.954 90.106 306.629 90.3745 306.629 91.8745C306.629 93.1529 307.618 93.8858 308.862 93.8858ZM309.016 92.9824C308.214 92.9824 307.635 92.6245 307.635 91.9256C307.635 91.1586 308.334 90.9199 309.118 90.8176C309.544 90.7665 310.686 90.6472 310.856 90.4426V91.3631C310.856 92.1813 310.209 92.9824 309.016 92.9824ZM313.458 96.187H314.463V92.7267H314.549C314.77 93.0847 315.196 93.8688 316.458 93.8688C318.094 93.8688 319.236 92.5563 319.236 90.4767C319.236 88.4142 318.094 87.1017 316.441 87.1017C315.162 87.1017 314.77 87.8858 314.549 88.2267H314.429V87.187H313.458V96.187ZM314.446 90.4597C314.446 88.9938 315.094 88.0051 316.321 88.0051C317.6 88.0051 318.23 89.079 318.23 90.4597C318.23 91.8574 317.583 92.9654 316.321 92.9654C315.111 92.9654 314.446 91.9426 314.446 90.4597ZM277.461 107.187H278.484C278.437 105.87 277.222 104.886 275.535 104.886C273.864 104.886 272.552 105.857 272.552 107.323C272.552 108.499 273.404 109.198 274.768 109.59L275.842 109.897C276.762 110.153 277.58 110.477 277.58 111.346C277.58 112.301 276.66 112.931 275.45 112.931C274.41 112.931 273.489 112.471 273.404 111.482H272.313C272.415 112.914 273.575 113.886 275.45 113.886C277.461 113.886 278.603 112.778 278.603 111.363C278.603 109.727 277.052 109.198 276.148 108.96L275.262 108.721C274.614 108.551 273.575 108.21 273.575 107.272C273.575 106.437 274.342 105.823 275.501 105.823C276.557 105.823 277.359 106.326 277.461 107.187ZM279.964 113.732H280.97V111.282L281.673 110.63L284.123 113.732H285.402L282.431 109.982L285.197 107.187H283.953L281.089 110.102H280.97V105.005H279.964V113.732ZM288.726 113.869C290.056 113.869 291.027 113.204 291.334 112.215L290.363 111.943C290.107 112.624 289.515 112.965 288.726 112.965C287.546 112.965 286.732 112.203 286.685 110.801H291.437V110.374C291.437 107.937 289.988 107.102 288.624 107.102C286.851 107.102 285.675 108.499 285.675 110.511C285.675 112.522 286.834 113.869 288.726 113.869ZM286.685 109.931C286.753 108.913 287.473 108.005 288.624 108.005C289.715 108.005 290.414 108.823 290.414 109.931H286.685ZM295.573 107.187H294.175V105.619H293.17V107.187H292.181V108.039H293.17V112.13C293.17 113.272 294.09 113.818 294.942 113.818C295.317 113.818 295.556 113.749 295.692 113.698L295.488 112.795C295.402 112.812 295.266 112.846 295.045 112.846C294.601 112.846 294.175 112.71 294.175 111.857V108.039H295.573V107.187ZM299.434 113.869C300.883 113.869 301.838 112.982 302.008 111.823H301.003C300.815 112.539 300.219 112.965 299.434 112.965C298.241 112.965 297.474 111.977 297.474 110.46C297.474 108.977 298.258 108.005 299.434 108.005C300.321 108.005 300.849 108.551 301.003 109.147H302.008C301.838 107.92 300.798 107.102 299.417 107.102C297.645 107.102 296.469 108.499 296.469 110.494C296.469 112.454 297.594 113.869 299.434 113.869ZM304.244 109.795C304.244 108.653 304.973 108.005 305.966 108.005C306.912 108.005 307.483 108.602 307.483 109.642V113.732H308.489V109.573C308.489 107.89 307.594 107.102 306.256 107.102C305.224 107.102 304.636 107.532 304.329 108.21H304.244V105.005H303.239V113.732H304.244V109.795ZM312.833 113.869C314.162 113.869 315.134 113.204 315.441 112.215L314.469 111.943C314.213 112.624 313.621 112.965 312.833 112.965C311.652 112.965 310.838 112.203 310.791 110.801H315.543V110.374C315.543 107.937 314.094 107.102 312.73 107.102C310.958 107.102 309.782 108.499 309.782 110.511C309.782 112.522 310.941 113.869 312.833 113.869ZM310.791 109.931C310.86 108.913 311.58 108.005 312.73 108.005C313.821 108.005 314.52 108.823 314.52 109.931H310.791ZM321.469 108.653C321.154 107.724 320.446 107.102 319.151 107.102C317.77 107.102 316.748 107.886 316.748 108.994C316.748 109.897 317.284 110.502 318.486 110.784L319.577 111.039C320.238 111.193 320.549 111.508 320.549 111.96C320.549 112.522 319.952 112.982 319.015 112.982C318.192 112.982 317.676 112.629 317.498 111.926L316.543 112.164C316.777 113.276 317.694 113.869 319.032 113.869C320.553 113.869 321.588 113.038 321.588 111.909C321.588 110.997 321.017 110.421 319.85 110.136L318.878 109.897C318.103 109.705 317.753 109.445 317.753 108.943C317.753 108.38 318.35 107.971 319.151 107.971C320.029 107.971 320.391 108.457 320.566 108.909L321.469 108.653Z" fill="#1E1D1D"/>
<circle cx="259.309" cy="46.0039" r="4.5" fill="#1E1D1D"/>
<path d="M399.169 50.5762H400.75V47.6273H402.42C404.436 47.6273 405.518 46.4171 405.518 44.7381C405.518 43.0719 404.449 41.8489 402.442 41.8489H399.169V50.5762ZM400.75 46.3276V43.1699H402.199C403.383 43.1699 403.908 43.8091 403.908 44.7381C403.908 45.6671 403.383 46.3276 402.207 46.3276H400.75ZM407.132 50.5762H408.713V47.3801H410.323L412.036 50.5762H413.801L411.913 47.1159C412.94 46.7026 413.481 45.8248 413.481 44.6401C413.481 42.9739 412.407 41.8489 410.404 41.8489H407.132V50.5762ZM408.713 46.0676V43.1699H410.161C411.342 43.1699 411.87 43.7111 411.87 44.6401C411.87 45.5691 411.342 46.0676 410.17 46.0676H408.713ZM422.975 46.2125C422.975 43.3915 421.253 41.7296 418.965 41.7296C416.672 41.7296 414.955 43.3915 414.955 46.2125C414.955 49.0293 416.672 50.6955 418.965 50.6955C421.253 50.6955 422.975 49.0336 422.975 46.2125ZM421.385 46.2125C421.385 48.1983 420.388 49.2765 418.965 49.2765C417.546 49.2765 416.544 48.1983 416.544 46.2125C416.544 44.2267 417.546 43.1486 418.965 43.1486C420.388 43.1486 421.385 44.2267 421.385 46.2125ZM423.951 43.1742H426.648V50.5762H428.216V43.1742H430.914V41.8489H423.951V43.1742ZM439.919 46.2125C439.919 43.3915 438.198 41.7296 435.909 41.7296C433.617 41.7296 431.899 43.3915 431.899 46.2125C431.899 49.0293 433.617 50.6955 435.909 50.6955C438.198 50.6955 439.919 49.0336 439.919 46.2125ZM438.33 46.2125C438.33 48.1983 437.333 49.2765 435.909 49.2765C434.49 49.2765 433.489 48.1983 433.489 46.2125C433.489 44.2267 434.49 43.1486 435.909 43.1486C437.333 43.1486 438.33 44.2267 438.33 46.2125ZM440.896 43.1742H443.593V50.5762H445.161V43.1742H447.859V41.8489H440.896V43.1742ZM448.844 41.8489L452.019 47.3205V50.5762H453.596V47.3205L456.77 41.8489H454.985L452.85 45.7097H452.765L450.63 41.8489H448.844ZM458.13 50.5762H459.711V47.6273H461.382C463.397 47.6273 464.48 46.4171 464.48 44.7381C464.48 43.0719 463.41 41.8489 461.403 41.8489H458.13V50.5762ZM459.711 46.3276V43.1699H461.16C462.345 43.1699 462.869 43.8091 462.869 44.7381C462.869 45.6671 462.345 46.3276 461.169 46.3276H459.711ZM466.093 50.5762H471.803V49.2509H467.674V46.8688H471.475V45.5435H467.674V43.1742H471.769V41.8489H466.093V50.5762Z" fill="#1E1D1D"/>
<path d="M400.95 73.7324H402.041L403.967 66.7779H404.035L405.962 73.7324H407.052L409.439 65.0051H408.365L406.541 72.1131H406.456L404.598 65.0051H403.405L401.547 72.1131H401.462L399.638 65.0051H398.564L400.95 73.7324ZM410.379 73.7324H411.385V67.187H410.379V73.7324ZM410.891 66.0961C411.283 66.0961 411.606 65.7892 411.606 65.4142C411.606 65.0392 411.283 64.7324 410.891 64.7324C410.499 64.7324 410.175 65.0392 410.175 65.4142C410.175 65.7892 410.499 66.0961 410.891 66.0961ZM412.987 73.7324H413.993V69.5904C413.993 68.704 414.691 68.0563 415.646 68.0563C415.914 68.0563 416.191 68.1074 416.26 68.1245V67.1017C416.145 67.0932 415.88 67.0847 415.731 67.0847C414.947 67.0847 414.265 67.5279 414.027 68.1756H413.958V67.187H412.987V73.7324ZM419.757 73.8688C421.086 73.8688 422.058 73.204 422.365 72.2154L421.393 71.9426C421.137 72.6245 420.545 72.9654 419.757 72.9654C418.576 72.9654 417.762 72.2026 417.716 70.8006H422.467V70.3745C422.467 67.937 421.018 67.1017 419.655 67.1017C417.882 67.1017 416.706 68.4995 416.706 70.5108C416.706 72.5222 417.865 73.8688 419.757 73.8688ZM417.716 69.9313C417.784 68.9128 418.504 68.0051 419.655 68.0051C420.745 68.0051 421.444 68.8233 421.444 69.9313H417.716ZM426.672 67.187H425.206V66.5222C425.206 65.8745 425.478 65.5336 426.143 65.5336C426.433 65.5336 426.603 65.6017 426.706 65.6358L426.995 64.7665C426.842 64.6983 426.535 64.5961 426.041 64.5961C425.103 64.5961 424.2 65.1586 424.2 66.2836V67.187H423.143V68.0392H424.2V73.7324H425.206V68.0392H426.672V67.187ZM427.841 73.7324H428.847V69.5904C428.847 68.704 429.546 68.0563 430.5 68.0563C430.769 68.0563 431.046 68.1074 431.114 68.1245V67.1017C430.999 67.0932 430.735 67.0847 430.585 67.0847C429.801 67.0847 429.119 67.5279 428.881 68.1756H428.813V67.187H427.841V73.7324ZM433.992 73.8858C435.134 73.8858 435.731 73.2722 435.935 72.8461H435.986V73.7324H436.992V69.4199C436.992 67.3404 435.407 67.1017 434.572 67.1017C433.583 67.1017 432.458 67.4426 431.947 68.6358L432.901 68.9767C433.123 68.4995 433.647 67.9881 434.606 67.9881C435.53 67.9881 435.986 68.4782 435.986 69.3176V69.3517C435.986 69.8375 435.492 69.7949 434.299 69.9483C433.084 70.106 431.759 70.3745 431.759 71.8745C431.759 73.1529 432.748 73.8858 433.992 73.8858ZM434.145 72.9824C433.344 72.9824 432.765 72.6245 432.765 71.9256C432.765 71.1586 433.464 70.9199 434.248 70.8176C434.674 70.7665 435.816 70.6472 435.986 70.4426V71.3631C435.986 72.1813 435.339 72.9824 434.145 72.9824ZM438.588 73.7324H439.593V69.6415C439.593 68.6827 440.292 68.0051 441.076 68.0051C441.839 68.0051 442.372 68.5037 442.372 69.2495V73.7324H443.394V69.4711C443.394 68.6273 443.923 68.0051 444.843 68.0051C445.559 68.0051 446.173 68.3844 446.173 69.3517V73.7324H447.179V69.3517C447.179 67.8134 446.352 67.1017 445.184 67.1017C444.247 67.1017 443.561 67.5321 443.224 68.2097H443.156C442.832 67.5108 442.261 67.1017 441.4 67.1017C440.548 67.1017 439.917 67.5108 439.644 68.2097H439.559V67.187H438.588V73.7324ZM451.522 73.8688C452.851 73.8688 453.823 73.204 454.13 72.2154L453.158 71.9426C452.902 72.6245 452.31 72.9654 451.522 72.9654C450.341 72.9654 449.527 72.2026 449.48 70.8006H454.232V70.3745C454.232 67.937 452.783 67.1017 451.419 67.1017C449.647 67.1017 448.47 68.4995 448.47 70.5108C448.47 72.5222 449.63 73.8688 451.522 73.8688ZM449.48 69.9313C449.549 68.9128 450.269 68.0051 451.419 68.0051C452.51 68.0051 453.209 68.8233 453.209 69.9313H449.48ZM460.158 68.6529C459.843 67.7239 459.135 67.1017 457.84 67.1017C456.459 67.1017 455.436 67.8858 455.436 68.9938C455.436 69.8972 455.973 70.5023 457.175 70.7836L458.266 71.0392C458.927 71.1926 459.238 71.508 459.238 71.9597C459.238 72.5222 458.641 72.9824 457.704 72.9824C456.881 72.9824 456.365 72.6287 456.186 71.9256L455.232 72.1642C455.466 73.2765 456.382 73.8688 457.721 73.8688C459.242 73.8688 460.277 73.0378 460.277 71.9086C460.277 70.9966 459.706 70.4213 458.539 70.1358L457.567 69.8972C456.792 69.7054 456.442 69.4455 456.442 68.9426C456.442 68.3801 457.039 67.9711 457.84 67.9711C458.718 67.9711 459.08 68.4569 459.255 68.9086L460.158 68.6529ZM399.365 93.7324H404.479V92.7949H400.422V85.0051H399.365V93.7324ZM408.398 93.8688C410.17 93.8688 411.364 92.5222 411.364 90.4938C411.364 88.4483 410.17 87.1017 408.398 87.1017C406.625 87.1017 405.432 88.4483 405.432 90.4938C405.432 92.5222 406.625 93.8688 408.398 93.8688ZM408.398 92.9654C407.051 92.9654 406.437 91.8063 406.437 90.4938C406.437 89.1813 407.051 88.0051 408.398 88.0051C409.744 88.0051 410.358 89.1813 410.358 90.4938C410.358 91.8063 409.744 92.9654 408.398 92.9654ZM416.409 89.5222H412.591V90.4597H416.409V89.5222ZM418.075 93.7324H419.131V89.829H422.916V88.8915H419.131V85.9426H423.308V85.0051H418.075V93.7324ZM424.741 93.7324H425.747V87.187H424.741V93.7324ZM425.253 86.0961C425.645 86.0961 425.968 85.7892 425.968 85.4142C425.968 85.0392 425.645 84.7324 425.253 84.7324C424.861 84.7324 424.537 85.0392 424.537 85.4142C424.537 85.7892 424.861 86.0961 425.253 86.0961ZM430.62 93.7324H431.677V90.5449H433.586C435.619 90.5449 436.535 89.3091 436.535 87.7665C436.535 86.2239 435.619 85.0051 433.569 85.0051H430.62V93.7324ZM431.677 89.6074V85.9426H433.535C434.954 85.9426 435.495 86.7182 435.495 87.7665C435.495 88.8148 434.954 89.6074 433.552 89.6074H431.677ZM437.861 93.7324H438.867V89.5904C438.867 88.704 439.566 88.0563 440.52 88.0563C440.789 88.0563 441.066 88.1074 441.134 88.1245V87.1017C441.019 87.0932 440.755 87.0847 440.605 87.0847C439.821 87.0847 439.139 87.5279 438.901 88.1756H438.833V87.187H437.861V93.7324ZM444.546 93.8688C446.319 93.8688 447.512 92.5222 447.512 90.4938C447.512 88.4483 446.319 87.1017 444.546 87.1017C442.773 87.1017 441.58 88.4483 441.58 90.4938C441.58 92.5222 442.773 93.8688 444.546 93.8688ZM444.546 92.9654C443.199 92.9654 442.586 91.8063 442.586 90.4938C442.586 89.1813 443.199 88.0051 444.546 88.0051C445.892 88.0051 446.506 89.1813 446.506 90.4938C446.506 91.8063 445.892 92.9654 444.546 92.9654ZM451.653 87.187H450.256V85.6188H449.25V87.187H448.261V88.0392H449.25V92.1301C449.25 93.2722 450.17 93.8176 451.023 93.8176C451.398 93.8176 451.636 93.7495 451.773 93.6983L451.568 92.7949C451.483 92.812 451.347 92.8461 451.125 92.8461C450.682 92.8461 450.256 92.7097 450.256 91.8574V88.0392H451.653V87.187ZM455.515 93.8688C457.288 93.8688 458.481 92.5222 458.481 90.4938C458.481 88.4483 457.288 87.1017 455.515 87.1017C453.742 87.1017 452.549 88.4483 452.549 90.4938C452.549 92.5222 453.742 93.8688 455.515 93.8688ZM455.515 92.9654C454.168 92.9654 453.555 91.8063 453.555 90.4938C453.555 89.1813 454.168 88.0051 455.515 88.0051C456.862 88.0051 457.475 89.1813 457.475 90.4938C457.475 91.8063 456.862 92.9654 455.515 92.9654ZM462.623 87.187H461.225V85.6188H460.219V87.187H459.231V88.0392H460.219V92.1301C460.219 93.2722 461.14 93.8176 461.992 93.8176C462.367 93.8176 462.606 93.7495 462.742 93.6983L462.537 92.7949C462.452 92.812 462.316 92.8461 462.094 92.8461C461.651 92.8461 461.225 92.7097 461.225 91.8574V88.0392H462.623V87.187ZM464.543 96.187C465.451 96.187 466.09 95.7054 466.469 94.687L469.256 87.204L468.157 87.187L466.35 92.4029H466.282L464.475 87.187H463.384L465.805 93.7665L465.617 94.2779C465.251 95.275 464.799 95.3688 464.066 95.1813L463.81 96.0676C463.912 96.1188 464.202 96.187 464.543 96.187ZM470.347 96.187H471.353V92.7267H471.438C471.659 93.0847 472.085 93.8688 473.347 93.8688C474.983 93.8688 476.125 92.5563 476.125 90.4767C476.125 88.4142 474.983 87.1017 473.33 87.1017C472.051 87.1017 471.659 87.8858 471.438 88.2267H471.318V87.187H470.347V96.187ZM471.335 90.4597C471.335 88.9938 471.983 88.0051 473.21 88.0051C474.489 88.0051 475.12 89.079 475.12 90.4597C475.12 91.8574 474.472 92.9654 473.21 92.9654C472 92.9654 471.335 91.9426 471.335 90.4597ZM480.164 93.8688C481.493 93.8688 482.465 93.204 482.772 92.2154L481.8 91.9426C481.544 92.6245 480.952 92.9654 480.164 92.9654C478.983 92.9654 478.169 92.2026 478.122 90.8006H482.874V90.3745C482.874 87.937 481.425 87.1017 480.061 87.1017C478.289 87.1017 477.113 88.4995 477.113 90.5108C477.113 92.5222 478.272 93.8688 480.164 93.8688ZM478.122 89.9313C478.191 88.9128 478.911 88.0051 480.061 88.0051C481.152 88.0051 481.851 88.8233 481.851 89.9313H478.122Z" fill="#1E1D1D"/>
<circle cx="385.615" cy="46.0039" r="4.5" fill="#1E1D1D"/>
<path d="M525.436 43.1742H528.134V50.5762H529.702V43.1742H532.399V41.8489H525.436V43.1742ZM533.982 50.5762H539.692V49.2509H535.563V46.8688H539.364V45.5435H535.563V43.1742H539.658V41.8489H533.982V50.5762ZM546.254 44.248H547.775C547.745 42.7736 546.488 41.7296 544.63 41.7296C542.798 41.7296 541.421 42.7608 541.425 44.3034C541.425 45.5563 542.316 46.2765 543.752 46.6472L544.745 46.9029C545.687 47.1415 546.309 47.4355 546.313 48.1131C546.309 48.8588 545.602 49.3574 544.57 49.3574C543.582 49.3574 542.815 48.9142 542.751 47.998H541.195C541.259 49.7324 542.55 50.7083 544.583 50.7083C546.675 50.7083 547.89 49.6642 547.894 48.1259C547.89 46.6131 546.641 45.9228 545.329 45.6117L544.511 45.4071C543.795 45.2367 543.019 44.9341 543.028 44.2054C543.032 43.5492 543.62 43.0676 544.609 43.0676C545.55 43.0676 546.173 43.5066 546.254 44.248ZM549.16 43.1742H551.858V50.5762H553.426V43.1742H556.123V41.8489H549.16V43.1742Z" fill="#1E1D1D"/>
<path d="M531.743 65.0051V70.6983C531.743 71.9767 530.865 72.8972 529.408 72.8972C527.95 72.8972 527.073 71.9767 527.073 70.6983V65.0051H526.016V70.7836C526.016 72.5733 527.354 73.8858 529.408 73.8858C531.462 73.8858 532.8 72.5733 532.8 70.7836V65.0051H531.743ZM539.17 68.6529C538.855 67.7239 538.148 67.1017 536.852 67.1017C535.471 67.1017 534.449 67.8858 534.449 68.9938C534.449 69.8972 534.986 70.5023 536.187 70.7836L537.278 71.0392C537.939 71.1926 538.25 71.508 538.25 71.9597C538.25 72.5222 537.653 72.9824 536.716 72.9824C535.893 72.9824 535.378 72.6287 535.199 71.9256L534.244 72.1642C534.479 73.2765 535.395 73.8688 536.733 73.8688C538.254 73.8688 539.29 73.0378 539.29 71.9086C539.29 70.9966 538.719 70.4213 537.551 70.1358L536.579 69.8972C535.804 69.7054 535.454 69.4455 535.454 68.9426C535.454 68.3801 536.051 67.9711 536.852 67.9711C537.73 67.9711 538.092 68.4569 538.267 68.9086L539.17 68.6529ZM542.49 73.8858C543.632 73.8858 544.228 73.2722 544.433 72.8461H544.484V73.7324H545.49V69.4199C545.49 67.3404 543.904 67.1017 543.069 67.1017C542.081 67.1017 540.956 67.4426 540.444 68.6358L541.399 68.9767C541.62 68.4995 542.144 67.9881 543.103 67.9881C544.028 67.9881 544.484 68.4782 544.484 69.3176V69.3517C544.484 69.8375 543.99 69.7949 542.796 69.9483C541.582 70.106 540.257 70.3745 540.257 71.8745C540.257 73.1529 541.245 73.8858 542.49 73.8858ZM542.643 72.9824C541.842 72.9824 541.262 72.6245 541.262 71.9256C541.262 71.1586 541.961 70.9199 542.745 70.8176C543.171 70.7665 544.314 70.6472 544.484 70.4426V71.3631C544.484 72.1813 543.836 72.9824 542.643 72.9824ZM547.222 73.7324H548.193V72.7267H548.312C548.534 73.0847 548.96 73.8688 550.222 73.8688C551.858 73.8688 553 72.5563 553 70.4767C553 68.4142 551.858 67.1017 550.205 67.1017C548.926 67.1017 548.534 67.8858 548.312 68.2267H548.227V65.0051H547.222V73.7324ZM548.21 70.4597C548.21 68.9938 548.858 68.0051 550.085 68.0051C551.364 68.0051 551.994 69.079 551.994 70.4597C551.994 71.8574 551.347 72.9654 550.085 72.9654C548.875 72.9654 548.21 71.9426 548.21 70.4597ZM554.298 73.7324H555.304V67.187H554.298V73.7324ZM554.81 66.0961C555.202 66.0961 555.526 65.7892 555.526 65.4142C555.526 65.0392 555.202 64.7324 554.81 64.7324C554.418 64.7324 554.094 65.0392 554.094 65.4142C554.094 65.7892 554.418 66.0961 554.81 66.0961ZM557.912 65.0051H556.906V73.7324H557.912V65.0051ZM559.514 73.7324H560.519V67.187H559.514V73.7324ZM560.025 66.0961C560.417 66.0961 560.741 65.7892 560.741 65.4142C560.741 65.0392 560.417 64.7324 560.025 64.7324C559.633 64.7324 559.309 65.0392 559.309 65.4142C559.309 65.7892 559.633 66.0961 560.025 66.0961ZM564.968 67.187H563.57V65.6188H562.564V67.187H561.576V68.0392H562.564V72.1301C562.564 73.2722 563.485 73.8176 564.337 73.8176C564.712 73.8176 564.951 73.7495 565.087 73.6983L564.883 72.7949C564.797 72.812 564.661 72.8461 564.439 72.8461C563.996 72.8461 563.57 72.7097 563.57 71.8574V68.0392H564.968V67.187ZM566.888 76.187C567.796 76.187 568.435 75.7054 568.815 74.687L571.601 67.204L570.502 67.187L568.695 72.4029H568.627L566.82 67.187H565.729L568.15 73.7665L567.962 74.2779C567.596 75.275 567.144 75.3688 566.411 75.1813L566.155 76.0676C566.258 76.1188 566.548 76.187 566.888 76.187ZM575.486 65.9426H578.231V73.7324H579.287V65.9426H582.032V65.0051H575.486V65.9426ZM585.081 73.8688C586.411 73.8688 587.383 73.204 587.689 72.2154L586.718 71.9426C586.462 72.6245 585.87 72.9654 585.081 72.9654C583.901 72.9654 583.087 72.2026 583.04 70.8006H587.792V70.3745C587.792 67.937 586.343 67.1017 584.979 67.1017C583.206 67.1017 582.03 68.4995 582.03 70.5108C582.03 72.5222 583.189 73.8688 585.081 73.8688ZM583.04 69.9313C583.108 68.9128 583.829 68.0051 584.979 68.0051C586.07 68.0051 586.769 68.8233 586.769 69.9313H583.04ZM593.718 68.6529C593.402 67.7239 592.695 67.1017 591.4 67.1017C590.019 67.1017 588.996 67.8858 588.996 68.9938C588.996 69.8972 589.533 70.5023 590.735 70.7836L591.826 71.0392C592.486 71.1926 592.797 71.508 592.797 71.9597C592.797 72.5222 592.201 72.9824 591.263 72.9824C590.441 72.9824 589.925 72.6287 589.746 71.9256L588.792 72.1642C589.026 73.2765 589.942 73.8688 591.28 73.8688C592.802 73.8688 593.837 73.0378 593.837 71.9086C593.837 70.9966 593.266 70.4213 592.099 70.1358L591.127 69.8972C590.351 69.7054 590.002 69.4455 590.002 68.9426C590.002 68.3801 590.599 67.9711 591.4 67.9711C592.277 67.9711 592.64 68.4569 592.814 68.9086L593.718 68.6529ZM597.958 67.187H596.56V65.6188H595.554V67.187H594.566V68.0392H595.554V72.1301C595.554 73.2722 596.475 73.8176 597.327 73.8176C597.702 73.8176 597.941 73.7495 598.077 73.6983L597.872 72.7949C597.787 72.812 597.651 72.8461 597.429 72.8461C596.986 72.8461 596.56 72.7097 596.56 71.8574V68.0392H597.958V67.187Z" fill="#1E1D1D"/>
<circle cx="512.266" cy="46.0039" r="4.5" fill="#1E1D1D"/>
<path d="M653.326 41.8489H651.745V50.5762H653.326V41.8489ZM655.278 41.8489V50.5762H656.795V44.5676H656.876L659.287 50.5506H660.421L662.833 44.5804H662.914V50.5762H664.431V41.8489H662.496L659.905 48.1728H659.803L657.212 41.8489H655.278ZM666.393 50.5762H667.974V47.6273H669.644C671.66 47.6273 672.742 46.4171 672.742 44.7381C672.742 43.0719 671.672 41.8489 669.665 41.8489H666.393V50.5762ZM667.974 46.3276V43.1699H669.422C670.607 43.1699 671.131 43.8091 671.131 44.7381C671.131 45.6671 670.607 46.3276 669.431 46.3276H667.974ZM674.355 50.5762H679.78V49.2509H675.936V41.8489H674.355V50.5762ZM681.392 50.5762H687.102V49.2509H682.973V46.8688H686.774V45.5435H682.973V43.1742H687.068V41.8489H681.392V50.5762ZM688.921 41.8489V50.5762H690.438V44.5676H690.519L692.931 50.5506H694.065L696.477 44.5804H696.558V50.5762H698.075V41.8489H696.14L693.549 48.1728H693.447L690.856 41.8489H688.921ZM700.036 50.5762H705.746V49.2509H701.617V46.8688H705.418V45.5435H701.617V43.1742H705.712V41.8489H700.036V50.5762ZM714.737 41.8489H713.165V47.7978H713.088L708.98 41.8489H707.565V50.5762H709.146V44.6316H709.219L713.331 50.5762H714.737V41.8489ZM716.316 43.1742H719.014V50.5762H720.582V43.1742H723.279V41.8489H716.316V43.1742Z" fill="#1E1D1D"/>
<path d="M654.634 73.7324C657.293 73.7324 658.793 72.079 658.793 69.3517C658.793 66.6415 657.293 65.0051 654.753 65.0051H651.941V73.7324H654.634ZM652.997 72.7949V65.9426H654.685C656.73 65.9426 657.77 67.2381 657.77 69.3517C657.77 71.4824 656.73 72.7949 654.566 72.7949H652.997ZM662.934 73.8688C664.263 73.8688 665.235 73.204 665.542 72.2154L664.57 71.9426C664.314 72.6245 663.722 72.9654 662.934 72.9654C661.753 72.9654 660.939 72.2026 660.892 70.8006H665.644V70.3745C665.644 67.937 664.195 67.1017 662.831 67.1017C661.059 67.1017 659.882 68.4995 659.882 70.5108C659.882 72.5222 661.042 73.8688 662.934 73.8688ZM660.892 69.9313C660.961 68.9128 661.681 68.0051 662.831 68.0051C663.922 68.0051 664.621 68.8233 664.621 69.9313H660.892ZM671.57 68.6529C671.255 67.7239 670.547 67.1017 669.252 67.1017C667.871 67.1017 666.848 67.8858 666.848 68.9938C666.848 69.8972 667.385 70.5023 668.587 70.7836L669.678 71.0392C670.338 71.1926 670.65 71.508 670.65 71.9597C670.65 72.5222 670.053 72.9824 669.115 72.9824C668.293 72.9824 667.777 72.6287 667.598 71.9256L666.644 72.1642C666.878 73.2765 667.794 73.8688 669.132 73.8688C670.654 73.8688 671.689 73.0378 671.689 71.9086C671.689 70.9966 671.118 70.4213 669.951 70.1358L668.979 69.8972C668.204 69.7054 667.854 69.4455 667.854 68.9426C667.854 68.3801 668.451 67.9711 669.252 67.9711C670.13 67.9711 670.492 68.4569 670.667 68.9086L671.57 68.6529ZM672.963 73.7324H673.969V67.187H672.963V73.7324ZM673.475 66.0961C673.867 66.0961 674.19 65.7892 674.19 65.4142C674.19 65.0392 673.867 64.7324 673.475 64.7324C673.082 64.7324 672.759 65.0392 672.759 65.4142C672.759 65.7892 673.082 66.0961 673.475 66.0961ZM678.213 76.3233C679.781 76.3233 681.042 75.6074 681.042 73.9199V67.187H680.071V68.2267H679.969C679.747 67.8858 679.338 67.1017 678.059 67.1017C676.406 67.1017 675.264 68.4142 675.264 70.4256C675.264 72.4711 676.457 73.6301 678.042 73.6301C679.321 73.6301 679.73 72.8801 679.951 72.5222H680.037V73.8517C680.037 74.9426 679.27 75.437 678.213 75.437C677.024 75.437 676.606 74.8105 676.338 74.4483L675.537 75.0108C675.946 75.6969 676.751 76.3233 678.213 76.3233ZM678.179 72.7267C676.917 72.7267 676.27 71.7722 676.27 70.4086C676.27 69.079 676.9 68.0051 678.179 68.0051C679.406 68.0051 680.054 68.9938 680.054 70.4086C680.054 71.8574 679.389 72.7267 678.179 72.7267ZM683.649 69.7949C683.649 68.6529 684.356 68.0051 685.319 68.0051C686.253 68.0051 686.819 68.6145 686.819 69.6415V73.7324H687.825V69.5733C687.825 67.9029 686.934 67.1017 685.609 67.1017C684.621 67.1017 684.007 67.5449 683.7 68.2097H683.615V67.187H682.643V73.7324H683.649V69.7949ZM697.467 67.187H698.49C698.443 65.8702 697.228 64.8858 695.541 64.8858C693.87 64.8858 692.558 65.8574 692.558 67.3233C692.558 68.4995 693.41 69.1983 694.774 69.5904L695.848 69.8972C696.768 70.1529 697.586 70.4767 697.586 71.3461C697.586 72.3006 696.666 72.9313 695.456 72.9313C694.416 72.9313 693.495 72.4711 693.41 71.4824H692.319C692.421 72.9142 693.581 73.8858 695.456 73.8858C697.467 73.8858 698.609 72.7779 698.609 71.3631C698.609 69.7267 697.058 69.1983 696.154 68.9597L695.268 68.7211C694.62 68.5506 693.581 68.2097 693.581 67.2722C693.581 66.437 694.348 65.8233 695.507 65.8233C696.564 65.8233 697.365 66.3262 697.467 67.187ZM700.618 76.187C701.526 76.187 702.165 75.7054 702.544 74.687L705.331 67.204L704.232 67.187L702.425 72.4029H702.357L700.55 67.187H699.459L701.879 73.7665L701.692 74.2779C701.325 75.275 700.874 75.3688 700.141 75.1813L699.885 76.0676C699.987 76.1188 700.277 76.187 700.618 76.187ZM711.058 68.6529C710.743 67.7239 710.035 67.1017 708.74 67.1017C707.359 67.1017 706.336 67.8858 706.336 68.9938C706.336 69.8972 706.873 70.5023 708.075 70.7836L709.166 71.0392C709.826 71.1926 710.137 71.508 710.137 71.9597C710.137 72.5222 709.541 72.9824 708.603 72.9824C707.781 72.9824 707.265 72.6287 707.086 71.9256L706.132 72.1642C706.366 73.2765 707.282 73.8688 708.62 73.8688C710.142 73.8688 711.177 73.0378 711.177 71.9086C711.177 70.9966 710.606 70.4213 709.439 70.1358L708.467 69.8972C707.691 69.7054 707.342 69.4455 707.342 68.9426C707.342 68.3801 707.939 67.9711 708.74 67.9711C709.618 67.9711 709.98 68.4569 710.155 68.9086L711.058 68.6529ZM715.298 67.187H713.9V65.6188H712.894V67.187H711.906V68.0392H712.894V72.1301C712.894 73.2722 713.815 73.8176 714.667 73.8176C715.042 73.8176 715.281 73.7495 715.417 73.6983L715.212 72.7949C715.127 72.812 714.991 72.8461 714.769 72.8461C714.326 72.8461 713.9 72.7097 713.9 71.8574V68.0392H715.298V67.187ZM719.245 73.8688C720.574 73.8688 721.546 73.204 721.852 72.2154L720.881 71.9426C720.625 72.6245 720.033 72.9654 719.245 72.9654C718.064 72.9654 717.25 72.2026 717.203 70.8006H721.955V70.3745C721.955 67.937 720.506 67.1017 719.142 67.1017C717.369 67.1017 716.193 68.4995 716.193 70.5108C716.193 72.5222 717.352 73.8688 719.245 73.8688ZM717.203 69.9313C717.271 68.9128 717.992 68.0051 719.142 68.0051C720.233 68.0051 720.932 68.8233 720.932 69.9313H717.203ZM723.245 73.7324H724.25V69.6415C724.25 68.6827 724.949 68.0051 725.733 68.0051C726.496 68.0051 727.029 68.5037 727.029 69.2495V73.7324H728.051V69.4711C728.051 68.6273 728.58 68.0051 729.5 68.0051C730.216 68.0051 730.83 68.3844 730.83 69.3517V73.7324H731.835V69.3517C731.835 67.8134 731.009 67.1017 729.841 67.1017C728.904 67.1017 728.218 67.5321 727.881 68.2097H727.813C727.489 67.5108 726.918 67.1017 726.057 67.1017C725.205 67.1017 724.574 67.5108 724.301 68.2097H724.216V67.187H723.245V73.7324ZM651.941 93.7324H652.997V89.829H657.651V93.7324H658.708V85.0051H657.651V88.8915H652.997V85.0051H651.941V93.7324ZM660.447 93.7324H661.453V87.187H660.447V93.7324ZM660.958 86.0961C661.35 86.0961 661.674 85.7892 661.674 85.4142C661.674 85.0392 661.35 84.7324 660.958 84.7324C660.566 84.7324 660.243 85.0392 660.243 85.4142C660.243 85.7892 660.566 86.0961 660.958 86.0961ZM666.805 89.5222H662.987V90.4597H666.805V89.5222ZM668.471 93.7324H669.527V89.829H673.312V88.8915H669.527V85.9426H673.704V85.0051H668.471V93.7324ZM675.137 93.7324H676.143V87.187H675.137V93.7324ZM675.649 86.0961C676.041 86.0961 676.364 85.7892 676.364 85.4142C676.364 85.0392 676.041 84.7324 675.649 84.7324C675.257 84.7324 674.933 85.0392 674.933 85.4142C674.933 85.7892 675.257 86.0961 675.649 86.0961ZM681.016 93.7324H682.073V90.5449H683.982C686.015 90.5449 686.931 89.3091 686.931 87.7665C686.931 86.2239 686.015 85.0051 683.965 85.0051H681.016V93.7324ZM682.073 89.6074V85.9426H683.931C685.35 85.9426 685.891 86.7182 685.891 87.7665C685.891 88.8148 685.35 89.6074 683.948 89.6074H682.073ZM688.257 93.7324H689.263V89.5904C689.263 88.704 689.962 88.0563 690.916 88.0563C691.185 88.0563 691.462 88.1074 691.53 88.1245V87.1017C691.415 87.0932 691.151 87.0847 691.001 87.0847C690.217 87.0847 689.535 87.5279 689.297 88.1756H689.229V87.187H688.257V93.7324ZM694.942 93.8688C696.715 93.8688 697.908 92.5222 697.908 90.4938C697.908 88.4483 696.715 87.1017 694.942 87.1017C693.169 87.1017 691.976 88.4483 691.976 90.4938C691.976 92.5222 693.169 93.8688 694.942 93.8688ZM694.942 92.9654C693.595 92.9654 692.982 91.8063 692.982 90.4938C692.982 89.1813 693.595 88.0051 694.942 88.0051C696.288 88.0051 696.902 89.1813 696.902 90.4938C696.902 91.8063 696.288 92.9654 694.942 92.9654ZM702.049 87.187H700.652V85.6188H699.646V87.187H698.657V88.0392H699.646V92.1301C699.646 93.2722 700.566 93.8176 701.419 93.8176C701.794 93.8176 702.032 93.7495 702.169 93.6983L701.964 92.7949C701.879 92.812 701.743 92.8461 701.521 92.8461C701.078 92.8461 700.652 92.7097 700.652 91.8574V88.0392H702.049V87.187ZM705.911 93.8688C707.684 93.8688 708.877 92.5222 708.877 90.4938C708.877 88.4483 707.684 87.1017 705.911 87.1017C704.138 87.1017 702.945 88.4483 702.945 90.4938C702.945 92.5222 704.138 93.8688 705.911 93.8688ZM705.911 92.9654C704.564 92.9654 703.951 91.8063 703.951 90.4938C703.951 89.1813 704.564 88.0051 705.911 88.0051C707.258 88.0051 707.871 89.1813 707.871 90.4938C707.871 91.8063 707.258 92.9654 705.911 92.9654ZM713.019 87.187H711.621V85.6188H710.615V87.187H709.627V88.0392H710.615V92.1301C710.615 93.2722 711.536 93.8176 712.388 93.8176C712.763 93.8176 713.002 93.7495 713.138 93.6983L712.933 92.7949C712.848 92.812 712.712 92.8461 712.49 92.8461C712.047 92.8461 711.621 92.7097 711.621 91.8574V88.0392H713.019V87.187ZM714.939 96.187C715.847 96.187 716.486 95.7054 716.865 94.687L719.652 87.204L718.553 87.187L716.746 92.4029H716.678L714.871 87.187H713.78L716.201 93.7665L716.013 94.2779C715.647 95.275 715.195 95.3688 714.462 95.1813L714.206 96.0676C714.308 96.1188 714.598 96.187 714.939 96.187ZM720.743 96.187H721.749V92.7267H721.834C722.055 93.0847 722.481 93.8688 723.743 93.8688C725.379 93.8688 726.521 92.5563 726.521 90.4767C726.521 88.4142 725.379 87.1017 723.726 87.1017C722.447 87.1017 722.055 87.8858 721.834 88.2267H721.714V87.187H720.743V96.187ZM721.731 90.4597C721.731 88.9938 722.379 88.0051 723.606 88.0051C724.885 88.0051 725.516 89.079 725.516 90.4597C725.516 91.8574 724.868 92.9654 723.606 92.9654C722.396 92.9654 721.731 91.9426 721.731 90.4597ZM730.56 93.8688C731.889 93.8688 732.861 93.204 733.168 92.2154L732.196 91.9426C731.94 92.6245 731.348 92.9654 730.56 92.9654C729.379 92.9654 728.565 92.2026 728.518 90.8006H733.27V90.3745C733.27 87.937 731.821 87.1017 730.457 87.1017C728.685 87.1017 727.509 88.4995 727.509 90.5108C727.509 92.5222 728.668 93.8688 730.56 93.8688ZM728.518 89.9313C728.587 88.9128 729.307 88.0051 730.457 88.0051C731.548 88.0051 732.247 88.8233 732.247 89.9313H728.518Z" fill="#1E1D1D"/>
<circle cx="638.19" cy="46.0039" r="4.5" fill="#1E1D1D"/>
</svg>
